<mxfile host="app.diagrams.net" modified="2023-12-21T08:30:01.446Z" agent="Mozilla/5.0 (Macintosh; Intel Mac OS X 10_15_7) AppleWebKit/537.36 (KHTML, like Gecko) Chrome/118.0.0.0 Safari/537.36" etag="WYVWhYvYliXyFz7WdZcA" version="22.1.11" type="github" pages="2">
  <diagram id="6a731a19-8d31-9384-78a2-239565b7b9f0" name="Page-1">
    <mxGraphModel dx="1026" dy="591" grid="1" gridSize="10" guides="1" tooltips="1" connect="1" arrows="1" fold="1" page="1" pageScale="1" pageWidth="1169" pageHeight="827" background="#003469" math="0" shadow="0">
      <root>
        <mxCell id="0" />
        <mxCell id="1" parent="0" />
        <mxCell id="2019" value="" style="rounded=1;whiteSpace=wrap;html=1;dashed=1;strokeColor=none;strokeWidth=2;fillColor=#E6E6E6;fontFamily=Verdana;fontSize=12;fontColor=#00BEF2" parent="1" vertex="1">
          <mxGeometry x="40" y="120" width="165" height="670" as="geometry" />
        </mxCell>
        <mxCell id="2020" value="" style="rounded=1;whiteSpace=wrap;html=1;dashed=1;strokeColor=none;strokeWidth=2;fillColor=#E6E6E6;fontFamily=Verdana;fontSize=12;fontColor=#00BEF2" parent="1" vertex="1">
          <mxGeometry x="220" y="120" width="165" height="670" as="geometry" />
        </mxCell>
        <mxCell id="2021" value="" style="rounded=1;whiteSpace=wrap;html=1;dashed=1;strokeColor=none;strokeWidth=2;fillColor=#E6E6E6;fontFamily=Verdana;fontSize=12;fontColor=#00BEF2" parent="1" vertex="1">
          <mxGeometry x="400" y="120" width="165" height="670" as="geometry" />
        </mxCell>
        <mxCell id="2022" value="" style="rounded=1;whiteSpace=wrap;html=1;dashed=1;strokeColor=none;strokeWidth=2;fillColor=#E6E6E6;fontFamily=Verdana;fontSize=12;fontColor=#00BEF2" parent="1" vertex="1">
          <mxGeometry x="580" y="120" width="165" height="670" as="geometry" />
        </mxCell>
        <mxCell id="2023" value="" style="rounded=1;whiteSpace=wrap;html=1;dashed=1;strokeColor=none;strokeWidth=2;fillColor=#E6E6E6;fontFamily=Verdana;fontSize=12;fontColor=#00BEF2" parent="1" vertex="1">
          <mxGeometry x="760" y="120" width="165" height="670" as="geometry" />
        </mxCell>
        <mxCell id="2024" value="" style="rounded=1;whiteSpace=wrap;html=1;dashed=1;strokeColor=none;strokeWidth=2;fillColor=#E6E6E6;fontFamily=Verdana;fontSize=12;fontColor=#00BEF2" parent="1" vertex="1">
          <mxGeometry x="940" y="120" width="165" height="670" as="geometry" />
        </mxCell>
        <mxCell id="2025" value="Event" style="whiteSpace=wrap;html=1;dashed=1;strokeColor=none;strokeWidth=2;fillColor=#3399FF;fontFamily=Helvetica;fontSize=18;fontColor=#FFFFFF;fontStyle=1" parent="1" vertex="1">
          <mxGeometry x="40" y="120" width="165" height="60" as="geometry" />
        </mxCell>
        <mxCell id="2026" value="Compute" style="whiteSpace=wrap;html=1;dashed=1;strokeColor=none;strokeWidth=2;fillColor=#3399FF;fontFamily=Helvetica;fontSize=18;fontColor=#FFFFFF;fontStyle=1" parent="1" vertex="1">
          <mxGeometry x="220" y="120" width="165" height="60" as="geometry" />
        </mxCell>
        <mxCell id="2027" value="Data&lt;div&gt;Services&lt;/div&gt;" style="whiteSpace=wrap;html=1;dashed=1;strokeColor=none;strokeWidth=2;fillColor=#3399FF;fontFamily=Helvetica;fontSize=18;fontColor=#FFFFFF;fontStyle=1" parent="1" vertex="1">
          <mxGeometry x="400" y="120" width="165" height="60" as="geometry" />
        </mxCell>
        <mxCell id="2028" value="Data&lt;div&gt;Storage&lt;/div&gt;" style="whiteSpace=wrap;html=1;dashed=1;strokeColor=none;strokeWidth=2;fillColor=#3399FF;fontFamily=Helvetica;fontSize=18;fontColor=#FFFFFF;fontStyle=1" parent="1" vertex="1">
          <mxGeometry x="580" y="120" width="165" height="60" as="geometry" />
        </mxCell>
        <mxCell id="2029" value="App&lt;div&gt;Services&lt;/div&gt;" style="whiteSpace=wrap;html=1;dashed=1;strokeColor=none;strokeWidth=2;fillColor=#3399FF;fontFamily=Helvetica;fontSize=18;fontColor=#FFFFFF;fontStyle=1" parent="1" vertex="1">
          <mxGeometry x="760" y="120" width="165" height="60" as="geometry" />
        </mxCell>
        <mxCell id="2030" value="&amp;nbsp; &amp;nbsp;Presentation" style="whiteSpace=wrap;html=1;dashed=1;strokeColor=none;strokeWidth=2;fillColor=#3399FF;fontFamily=Helvetica;fontSize=18;fontColor=#FFFFFF;fontStyle=1" parent="1" vertex="1">
          <mxGeometry x="940" y="120" width="165" height="60" as="geometry" />
        </mxCell>
        <mxCell id="2031" value="" style="shape=mxgraph.arrows.two_way_arrow_horizontal;html=1;verticalLabelPosition=bottom;verticalAlign=top;strokeWidth=2;strokeColor=none;dashed=1;fillColor=#FFFFFF;fontFamily=Verdana;fontSize=12;fontColor=#00BEF2" parent="1" vertex="1">
          <mxGeometry x="180" y="131" width="67" height="39" as="geometry" />
        </mxCell>
        <mxCell id="2032" value="" style="shape=mxgraph.arrows.two_way_arrow_horizontal;html=1;verticalLabelPosition=bottom;verticalAlign=top;strokeWidth=2;strokeColor=none;dashed=1;fillColor=#FFFFFF;fontFamily=Verdana;fontSize=12;fontColor=#00BEF2" parent="1" vertex="1">
          <mxGeometry x="360" y="131" width="67" height="39" as="geometry" />
        </mxCell>
        <mxCell id="2033" value="" style="shape=mxgraph.arrows.two_way_arrow_horizontal;html=1;verticalLabelPosition=bottom;verticalAlign=top;strokeWidth=2;strokeColor=none;dashed=1;fillColor=#FFFFFF;fontFamily=Verdana;fontSize=12;fontColor=#00BEF2" parent="1" vertex="1">
          <mxGeometry x="540" y="131" width="67" height="39" as="geometry" />
        </mxCell>
        <mxCell id="2034" value="" style="shape=mxgraph.arrows.two_way_arrow_horizontal;html=1;verticalLabelPosition=bottom;verticalAlign=top;strokeWidth=2;strokeColor=none;dashed=1;fillColor=#FFFFFF;fontFamily=Verdana;fontSize=12;fontColor=#00BEF2" parent="1" vertex="1">
          <mxGeometry x="720" y="131" width="67" height="39" as="geometry" />
        </mxCell>
        <mxCell id="2035" value="" style="shape=mxgraph.arrows.two_way_arrow_horizontal;html=1;verticalLabelPosition=bottom;verticalAlign=top;strokeWidth=2;strokeColor=none;dashed=1;fillColor=#FFFFFF;fontFamily=Verdana;fontSize=12;fontColor=#00BEF2" parent="1" vertex="1">
          <mxGeometry x="900" y="131" width="67" height="39" as="geometry" />
        </mxCell>
        <mxCell id="2036" value="" style="verticalLabelPosition=bottom;html=1;verticalAlign=top;strokeColor=none;fillColor=#003366;shape=mxgraph.azure.cloud_service;dashed=1;fontFamily=Helvetica;fontSize=18;fontColor=#FFFFFF;opacity=25" parent="1" vertex="1">
          <mxGeometry x="90" y="180" width="970" height="600" as="geometry" />
        </mxCell>
        <mxCell id="2037" value="" style="verticalLabelPosition=bottom;html=1;verticalAlign=top;strokeColor=none;fillColor=#3399FF;shape=mxgraph.azure.tablet;dashed=1;fontFamily=Helvetica;fontSize=14;fontColor=#004C99" parent="1" vertex="1">
          <mxGeometry x="66" y="401" width="50" height="37.5" as="geometry" />
        </mxCell>
        <mxCell id="2038" value="" style="verticalLabelPosition=bottom;html=1;verticalAlign=top;strokeColor=none;fillColor=#3399FF;shape=mxgraph.azure.mobile;dashed=1;fontFamily=Helvetica;fontSize=14;fontColor=#004C99" parent="1" vertex="1">
          <mxGeometry x="146" y="395" width="35" height="50" as="geometry" />
        </mxCell>
        <mxCell id="2039" value="Devices" style="verticalLabelPosition=bottom;html=1;verticalAlign=top;strokeColor=none;fillColor=#3399FF;shape=mxgraph.azure.laptop;dashed=1;fontFamily=Helvetica;fontSize=14;fontColor=#004C99" parent="1" vertex="1">
          <mxGeometry x="96" y="451" width="50" height="30" as="geometry" />
        </mxCell>
        <mxCell id="2040" value="Applications" style="verticalLabelPosition=bottom;html=1;verticalAlign=top;strokeColor=none;fillColor=#3399FF;shape=mxgraph.azure.mobile_services;dashed=1;fontFamily=Helvetica;fontSize=14;fontColor=#004C99" parent="1" vertex="1">
          <mxGeometry x="107" y="250" width="32.5" height="50" as="geometry" />
        </mxCell>
        <mxCell id="2041" value="Social" style="verticalLabelPosition=bottom;html=1;verticalAlign=top;strokeColor=none;fillColor=#3399FF;shape=mxgraph.azure.user;dashed=1;fontSize=14;fontColor=#004C99" parent="1" vertex="1">
          <mxGeometry x="92" y="680" width="47.5" height="50" as="geometry" />
        </mxCell>
        <mxCell id="2042" value="" style="verticalLabelPosition=bottom;html=1;verticalAlign=top;strokeColor=none;fillColor=#3399FF;shape=mxgraph.azure.github_code;dashed=1;fontSize=14;fontColor=#004C99" parent="1" vertex="1">
          <mxGeometry x="133" y="560" width="50" height="50" as="geometry" />
        </mxCell>
        <mxCell id="2043" value="" style="verticalLabelPosition=bottom;html=1;verticalAlign=top;strokeColor=none;fillColor=#3399FF;shape=mxgraph.azure.dropbox_code_source;dashed=1;fontSize=14;fontColor=#004C99" parent="1" vertex="1">
          <mxGeometry x="73" y="563" width="50" height="47.5" as="geometry" />
        </mxCell>
        <mxCell id="2044" value="Repositories" style="text;html=1;strokeColor=none;fillColor=none;align=center;verticalAlign=middle;whiteSpace=wrap;overflow=hidden;dashed=1;fontSize=14;fontColor=#004C99" parent="1" vertex="1">
          <mxGeometry x="60" y="620" width="120" height="20" as="geometry" />
        </mxCell>
        <mxCell id="2045" value="Azure Website" style="verticalLabelPosition=bottom;html=1;verticalAlign=top;strokeColor=none;fillColor=#3399FF;shape=mxgraph.azure.azure_website;dashed=1;fontSize=14;fontColor=#004C99" parent="1" vertex="1">
          <mxGeometry x="278" y="258" width="50" height="50" as="geometry" />
        </mxCell>
        <mxCell id="2046" value="Mobile Services" style="verticalLabelPosition=bottom;html=1;verticalAlign=top;strokeColor=none;fillColor=#3399FF;shape=mxgraph.azure.mobile_services;dashed=1;fontSize=14;fontColor=#004C99" parent="1" vertex="1">
          <mxGeometry x="287" y="661" width="32.5" height="50" as="geometry" />
        </mxCell>
        <mxCell id="2047" value="Windows Azure Management Portal" style="text;html=1;strokeColor=none;fillColor=none;align=center;verticalAlign=middle;whiteSpace=wrap;overflow=hidden;dashed=1;fontSize=36;fontColor=#FFFFFF;fontFamily=Helvetica;fontStyle=1" parent="1" vertex="1">
          <mxGeometry x="40" y="50" width="1060" height="50" as="geometry" />
        </mxCell>
        <mxCell id="2048" value="Business&amp;nbsp;&lt;div&gt;Analytics&lt;/div&gt;" style="rounded=1;whiteSpace=wrap;html=1;dashed=1;strokeColor=none;strokeWidth=2;fillColor=#FFFFFF;fontFamily=Helvetica;fontSize=14;fontColor=#FFB366;opacity=75;verticalAlign=top;fontStyle=1" parent="1" vertex="1">
          <mxGeometry x="410" y="190" width="140" height="260" as="geometry" />
        </mxCell>
        <mxCell id="2049" value="Data&lt;div&gt;Management&lt;/div&gt;" style="rounded=1;whiteSpace=wrap;html=1;dashed=1;strokeColor=none;strokeWidth=2;fillColor=#FFFFFF;fontFamily=Helvetica;fontSize=14;fontColor=#FFB366;opacity=75;verticalAlign=top;fontStyle=1" parent="1" vertex="1">
          <mxGeometry x="413" y="460" width="140" height="320" as="geometry" />
        </mxCell>
        <mxCell id="2050" value="SQL Reporting" style="verticalLabelPosition=bottom;html=1;verticalAlign=top;strokeColor=none;fillColor=#3399FF;shape=mxgraph.azure.sql_reporting;dashed=1;fontSize=14;fontColor=#004C99" parent="1" vertex="1">
          <mxGeometry x="460" y="258" width="40" height="50" as="geometry" />
        </mxCell>
        <mxCell id="2051" value="HDInsight" style="verticalLabelPosition=bottom;html=1;verticalAlign=top;strokeColor=none;fillColor=#3399FF;shape=mxgraph.azure.hdinsight;dashed=1;fontSize=14;fontColor=#004C99" parent="1" vertex="1">
          <mxGeometry x="458" y="355" width="50" height="50" as="geometry" />
        </mxCell>
        <mxCell id="2052" value="SQL Database" style="verticalLabelPosition=bottom;html=1;verticalAlign=top;strokeColor=none;fillColor=#3399FF;shape=mxgraph.azure.sql_database;dashed=1;fontFamily=Helvetica;fontSize=14;fontColor=#004C99" parent="1" vertex="1">
          <mxGeometry x="464" y="600" width="37.5" height="50" as="geometry" />
        </mxCell>
        <mxCell id="2053" value="Tables" style="verticalLabelPosition=bottom;html=1;verticalAlign=top;strokeColor=none;fillColor=#3399FF;shape=mxgraph.azure.storage_table;dashed=1;fontFamily=Helvetica;fontSize=14;fontColor=#004C99" parent="1" vertex="1">
          <mxGeometry x="458" y="689" width="50" height="45" as="geometry" />
        </mxCell>
        <mxCell id="2054" value="Blobs" style="verticalLabelPosition=bottom;html=1;verticalAlign=top;strokeColor=none;fillColor=#3399FF;shape=mxgraph.azure.storage_blob;dashed=1;fontFamily=Helvetica;fontSize=14;fontColor=#004C99" parent="1" vertex="1">
          <mxGeometry x="457" y="523" width="50" height="45" as="geometry" />
        </mxCell>
        <mxCell id="2055" value="Storage Management" style="rounded=1;whiteSpace=wrap;html=1;dashed=1;strokeColor=none;strokeWidth=2;fillColor=#FFFFFF;fontFamily=Helvetica;fontSize=14;fontColor=#FFB366;opacity=75;verticalAlign=top;fontStyle=1" parent="1" vertex="1">
          <mxGeometry x="594" y="240" width="140" height="280" as="geometry" />
        </mxCell>
        <mxCell id="2056" value="Storage Servers" style="verticalLabelPosition=bottom;html=1;verticalAlign=top;strokeColor=none;fillColor=#3399FF;shape=mxgraph.azure.server_rack;dashed=1;fontFamily=Helvetica;fontSize=14;fontColor=#004C99" parent="1" vertex="1">
          <mxGeometry x="639" y="316" width="50" height="50" as="geometry" />
        </mxCell>
        <mxCell id="2057" value="Database" style="verticalLabelPosition=bottom;html=1;verticalAlign=top;strokeColor=none;fillColor=#3399FF;shape=mxgraph.azure.database;dashed=1;fontFamily=Helvetica;fontSize=14;fontColor=#004C99" parent="1" vertex="1">
          <mxGeometry x="644" y="414" width="37.5" height="50" as="geometry" />
        </mxCell>
        <mxCell id="2058" value="Physical&lt;div&gt;Data Storage&lt;/div&gt;" style="verticalLabelPosition=bottom;html=1;verticalAlign=top;strokeColor=none;fillColor=#3399FF;shape=mxgraph.azure.vhd;dashed=1;fontFamily=Helvetica;fontSize=14;fontColor=#004C99" parent="1" vertex="1">
          <mxGeometry x="643" y="590" width="40" height="50" as="geometry" />
        </mxCell>
        <mxCell id="2059" value="Identity" style="rounded=1;whiteSpace=wrap;html=1;dashed=1;strokeColor=none;strokeWidth=2;fillColor=#FFFFFF;fontFamily=Helvetica;fontSize=14;fontColor=#FFB366;opacity=75;verticalAlign=top;fontStyle=1" parent="1" vertex="1">
          <mxGeometry x="773" y="196" width="140" height="134" as="geometry" />
        </mxCell>
        <mxCell id="2060" value="Windows Azure&amp;nbsp;&lt;div&gt;Active Directorry&lt;/div&gt;" style="verticalLabelPosition=bottom;html=1;verticalAlign=top;strokeColor=none;fillColor=#3399FF;shape=mxgraph.azure.azure_active_directory;dashed=1;fontFamily=Helvetica;fontSize=14;fontColor=#004C99" parent="1" vertex="1">
          <mxGeometry x="819" y="225" width="47.5" height="50" as="geometry" />
        </mxCell>
        <mxCell id="2061" value="Performance" style="rounded=1;whiteSpace=wrap;html=1;dashed=1;strokeColor=none;strokeWidth=2;fillColor=#FFFFFF;fontFamily=Helvetica;fontSize=14;fontColor=#FFB366;opacity=75;verticalAlign=top;fontStyle=1" parent="1" vertex="1">
          <mxGeometry x="774" y="341" width="140" height="199" as="geometry" />
        </mxCell>
        <mxCell id="2062" value="Caching" style="verticalLabelPosition=bottom;html=1;verticalAlign=top;strokeColor=none;fillColor=#3399FF;shape=mxgraph.azure.azure_cache;dashed=1;fontFamily=Helvetica;fontSize=14;fontColor=#004C99" parent="1" vertex="1">
          <mxGeometry x="821" y="376" width="45" height="50" as="geometry" />
        </mxCell>
        <mxCell id="2063" value="Content&amp;nbsp;&lt;div&gt;Delivery Network&lt;/div&gt;" style="verticalLabelPosition=bottom;html=1;verticalAlign=top;strokeColor=none;fillColor=#3399FF;shape=mxgraph.azure.content_delivery_network;dashed=1;fontFamily=Helvetica;fontSize=14;fontColor=#004C99" parent="1" vertex="1">
          <mxGeometry x="819" y="455" width="50" height="32.5" as="geometry" />
        </mxCell>
        <mxCell id="2064" value="Messaging" style="rounded=1;whiteSpace=wrap;html=1;dashed=1;strokeColor=none;strokeWidth=2;fillColor=#FFFFFF;fontFamily=Helvetica;fontSize=14;fontColor=#FFB366;opacity=75;verticalAlign=top;fontStyle=1" parent="1" vertex="1">
          <mxGeometry x="773" y="550" width="140" height="229" as="geometry" />
        </mxCell>
        <mxCell id="2065" value="Queues" style="verticalLabelPosition=bottom;html=1;verticalAlign=top;strokeColor=none;fillColor=#3399FF;shape=mxgraph.azure.queue_generic;dashed=1;fontFamily=Helvetica;fontSize=14;fontColor=#004C99" parent="1" vertex="1">
          <mxGeometry x="820" y="576" width="50" height="15" as="geometry" />
        </mxCell>
        <mxCell id="2066" value="Service Bus" style="verticalLabelPosition=bottom;html=1;verticalAlign=top;strokeColor=none;fillColor=#3399FF;shape=mxgraph.azure.service_bus;dashed=1;fontFamily=Helvetica;fontSize=14;fontColor=#004C99" parent="1" vertex="1">
          <mxGeometry x="824" y="624" width="45" height="50" as="geometry" />
        </mxCell>
        <mxCell id="2067" value="Media Services" style="verticalLabelPosition=bottom;html=1;verticalAlign=top;strokeColor=none;fillColor=#3399FF;shape=mxgraph.azure.media_service;dashed=1;fontFamily=Helvetica;fontSize=14;fontColor=#004C99" parent="1" vertex="1">
          <mxGeometry x="821" y="703" width="45" height="50" as="geometry" />
        </mxCell>
        <mxCell id="2068" value="Cloud&lt;div&gt;Services&lt;/div&gt;" style="rounded=1;whiteSpace=wrap;html=1;dashed=1;strokeColor=none;strokeWidth=2;fillColor=#FFFFFF;fontFamily=Helvetica;fontSize=14;fontColor=#FFB366;opacity=75;verticalAlign=top;fontStyle=1" parent="1" vertex="1">
          <mxGeometry x="233" y="397" width="140" height="223" as="geometry" />
        </mxCell>
        <mxCell id="2069" value="Cloud" style="verticalLabelPosition=bottom;html=1;verticalAlign=top;strokeColor=none;fillColor=#3399FF;shape=mxgraph.azure.cloud;dashed=1;fontSize=14;fontColor=#004C99" parent="1" vertex="1">
          <mxGeometry x="278" y="449" width="50" height="32.5" as="geometry" />
        </mxCell>
        <mxCell id="2070" value="Virtual Machine" style="verticalLabelPosition=bottom;html=1;verticalAlign=top;strokeColor=none;fillColor=#3399FF;shape=mxgraph.azure.virtual_machine;dashed=1;fontSize=14;fontColor=#004C99" parent="1" vertex="1">
          <mxGeometry x="278" y="536" width="50" height="40" as="geometry" />
        </mxCell>
        <mxCell id="2071" value="Web Dashboards" style="verticalLabelPosition=bottom;html=1;verticalAlign=top;strokeColor=none;fillColor=#3399FF;shape=mxgraph.azure.laptop;dashed=1;fontFamily=Helvetica;fontSize=14;fontColor=#004C99" parent="1" vertex="1">
          <mxGeometry x="998" y="301" width="50" height="30" as="geometry" />
        </mxCell>
        <mxCell id="2072" value="Certificates" style="verticalLabelPosition=bottom;html=1;verticalAlign=top;strokeColor=none;fillColor=#3399FF;shape=mxgraph.azure.certificate;dashed=1;fontFamily=Helvetica;fontSize=14;fontColor=#004C99" parent="1" vertex="1">
          <mxGeometry x="998" y="399" width="50" height="40" as="geometry" />
        </mxCell>
        <mxCell id="2073" value="Enterprise&lt;div&gt;Services&lt;/div&gt;" style="verticalLabelPosition=bottom;html=1;verticalAlign=top;strokeColor=none;fillColor=#3399FF;shape=mxgraph.azure.enterprise;dashed=1;fontFamily=Helvetica;fontSize=14;fontColor=#004C99" parent="1" vertex="1">
          <mxGeometry x="1008" y="518" width="30" height="50" as="geometry" />
        </mxCell>
        <mxCell id="2074" value="Seminars" style="verticalLabelPosition=bottom;html=1;verticalAlign=top;strokeColor=none;fillColor=#3399FF;shape=mxgraph.azure.user;dashed=1;fontFamily=Helvetica;fontSize=14;fontColor=#004C99" parent="1" vertex="1">
          <mxGeometry x="1001" y="630" width="47.5" height="50" as="geometry" />
        </mxCell>
        <mxCell id="2075" value="" style="arrow;html=1;endArrow=block;endFill=1;strokeColor=none;strokeWidth=4;fontFamily=Helvetica;fontSize=36;fontColor=#FFB366;fillColor=#FFB366;" parent="1" edge="1">
          <mxGeometry width="100" height="100" relative="1" as="geometry">
            <mxPoint x="167" y="283" as="sourcePoint" />
            <mxPoint x="247" y="283" as="targetPoint" />
          </mxGeometry>
        </mxCell>
        <mxCell id="2076" value="" style="arrow;html=1;endArrow=block;endFill=1;strokeColor=none;strokeWidth=4;fontFamily=Helvetica;fontSize=36;fontColor=#FFB366;fillColor=#FFB366;opacity=100" parent="1" edge="1">
          <mxGeometry width="100" height="100" relative="1" as="geometry">
            <mxPoint x="347" y="283" as="sourcePoint" />
            <mxPoint x="427" y="283" as="targetPoint" />
          </mxGeometry>
        </mxCell>
        <mxCell id="2077" value="" style="arrow;html=1;endArrow=block;endFill=1;strokeColor=none;strokeWidth=4;fontFamily=Helvetica;fontSize=36;fontColor=#FFB366;fillColor=#FFB366;" parent="1" edge="1">
          <mxGeometry width="100" height="100" relative="1" as="geometry">
            <mxPoint x="527" y="360" as="sourcePoint" />
            <mxPoint x="607" y="360" as="targetPoint" />
          </mxGeometry>
        </mxCell>
        <mxCell id="2078" value="" style="arrow;html=1;endArrow=block;endFill=1;strokeColor=none;strokeWidth=4;fontFamily=Helvetica;fontSize=36;fontColor=#FFB366;fillColor=#FFB366;" parent="1" edge="1">
          <mxGeometry width="100" height="100" relative="1" as="geometry">
            <mxPoint x="714" y="426" as="sourcePoint" />
            <mxPoint x="794" y="426" as="targetPoint" />
          </mxGeometry>
        </mxCell>
        <mxCell id="2079" value="" style="arrow;html=1;endArrow=block;endFill=1;strokeColor=none;strokeWidth=4;fontFamily=Helvetica;fontSize=36;fontColor=#FFB366;fillColor=#FFB366;" parent="1" edge="1">
          <mxGeometry width="100" height="100" relative="1" as="geometry">
            <mxPoint x="714" y="270" as="sourcePoint" />
            <mxPoint x="794" y="270" as="targetPoint" />
          </mxGeometry>
        </mxCell>
        <mxCell id="2080" value="" style="arrow;html=1;endArrow=block;endFill=1;strokeColor=none;strokeWidth=4;fontFamily=Helvetica;fontSize=36;fontColor=#FFB366;fillColor=#FFB366;" parent="1" edge="1">
          <mxGeometry width="100" height="100" relative="1" as="geometry">
            <mxPoint x="887" y="438" as="sourcePoint" />
            <mxPoint x="967" y="438" as="targetPoint" />
          </mxGeometry>
        </mxCell>
        <mxCell id="2081" value="" style="arrow;html=1;endArrow=block;endFill=1;strokeColor=none;strokeWidth=4;fontFamily=Helvetica;fontSize=36;fontColor=#FFB366;fillColor=#FFB366;" parent="1" edge="1">
          <mxGeometry width="100" height="100" relative="1" as="geometry">
            <mxPoint x="894" y="664" as="sourcePoint" />
            <mxPoint x="974" y="664" as="targetPoint" />
          </mxGeometry>
        </mxCell>
        <mxCell id="2082" value="" style="arrow;html=1;endArrow=block;endFill=1;strokeColor=none;strokeWidth=4;fontFamily=Helvetica;fontSize=36;fontColor=#FFB366;fillColor=#FFB366;" parent="1" edge="1">
          <mxGeometry width="100" height="100" relative="1" as="geometry">
            <mxPoint x="707" y="639" as="sourcePoint" />
            <mxPoint x="787" y="639" as="targetPoint" />
          </mxGeometry>
        </mxCell>
        <mxCell id="2083" value="" style="arrow;html=1;endArrow=block;endFill=1;strokeColor=none;strokeWidth=4;fontFamily=Helvetica;fontSize=36;fontColor=#FFB366;fillColor=#FFB366;" parent="1" edge="1">
          <mxGeometry width="100" height="100" relative="1" as="geometry">
            <mxPoint x="534" y="624" as="sourcePoint" />
            <mxPoint x="614" y="624" as="targetPoint" />
          </mxGeometry>
        </mxCell>
        <mxCell id="2084" value="" style="arrow;html=1;endArrow=block;endFill=1;strokeColor=none;strokeWidth=4;fontFamily=Helvetica;fontSize=36;fontColor=#FFB366;fillColor=#FFB366;" parent="1" edge="1">
          <mxGeometry width="100" height="100" relative="1" as="geometry">
            <mxPoint x="347" y="536" as="sourcePoint" />
            <mxPoint x="427" y="536" as="targetPoint" />
          </mxGeometry>
        </mxCell>
        <mxCell id="2085" value="" style="arrow;html=1;endArrow=block;endFill=1;strokeColor=none;strokeWidth=4;fontFamily=Helvetica;fontSize=36;fontColor=#FFB366;fillColor=#FFB366;" parent="1" edge="1">
          <mxGeometry width="100" height="100" relative="1" as="geometry">
            <mxPoint x="174" y="688" as="sourcePoint" />
            <mxPoint x="254" y="688" as="targetPoint" />
          </mxGeometry>
        </mxCell>
      </root>
    </mxGraphModel>
  </diagram>
  <diagram id="eifAnz-UWgbdyZsH1ufG" name="Page-2">
    <mxGraphModel dx="1026" dy="591" grid="1" gridSize="10" guides="1" tooltips="1" connect="1" arrows="1" fold="1" page="1" pageScale="1" pageWidth="827" pageHeight="1169" math="0" shadow="0">
      <root>
        <mxCell id="0" />
        <mxCell id="1" parent="0" />
        <mxCell id="xkKd55qxpHbyt4-YmWr0-11" value="" style="rounded=1;whiteSpace=wrap;html=1;fillColor=#dae8fc;strokeColor=#6c8ebf;" vertex="1" parent="1">
          <mxGeometry x="30" y="465" width="120" height="360" as="geometry" />
        </mxCell>
        <mxCell id="xkKd55qxpHbyt4-YmWr0-13" value="" style="shape=image;verticalLabelPosition=bottom;labelBackgroundColor=#ffffff;verticalAlign=top;aspect=fixed;imageAspect=0;image=data:image/svg+xml,PHN2ZyB4bWxuczpjYz0iaHR0cDovL2NyZWF0aXZlY29tbW9ucy5vcmcvbnMjIiB4bWxuczpkYz0iaHR0cDovL3B1cmwub3JnL2RjL2VsZW1lbnRzLzEuMS8iIHhtbG5zOmlua3NjYXBlPSJodHRwOi8vd3d3Lmlua3NjYXBlLm9yZy9uYW1lc3BhY2VzL2lua3NjYXBlIiB4bWxuczpyZGY9Imh0dHA6Ly93d3cudzMub3JnLzE5OTkvMDIvMjItcmRmLXN5bnRheC1ucyMiIHhtbG5zOnNvZGlwb2RpPSJodHRwOi8vc29kaXBvZGkuc291cmNlZm9yZ2UubmV0L0RURC9zb2RpcG9kaS0wLmR0ZCIgeG1sbnM6c3ZnPSJodHRwOi8vd3d3LnczLm9yZy8yMDAwL3N2ZyIgeG1sbnM9Imh0dHA6Ly93d3cudzMub3JnLzIwMDAvc3ZnIiB4bWxuczp4bGluaz0iaHR0cDovL3d3dy53My5vcmcvMTk5OS94bGluayIgdmVyc2lvbj0iMS4xIiBpZD0ic3ZnMTQ5ODMiIGlua3NjYXBlOnZlcnNpb249IjAuOTIuMyAoMjQwNTU0NiwgMjAxOC0wMy0xMSkiIHNvZGlwb2RpOmRvY25hbWU9ImxhcHRvcF9vdXRsb29rLnN2ZyIgeD0iMHB4IiB5PSIwcHgiIHZpZXdCb3g9IjAgMCA2Ni4xMSAzOC41NCIgc3R5bGU9ImVuYWJsZS1iYWNrZ3JvdW5kOm5ldyAwIDAgNjYuMTEgMzguNTQ7IiB4bWw6c3BhY2U9InByZXNlcnZlIj4mI3hhOzxzb2RpcG9kaTpuYW1lZHZpZXcgYm9yZGVyY29sb3I9IiM2NjY2NjYiIGJvcmRlcm9wYWNpdHk9IjEiIGZpdC1tYXJnaW4tYm90dG9tPSIwIiBmaXQtbWFyZ2luLWxlZnQ9IjAiIGZpdC1tYXJnaW4tcmlnaHQ9IjAiIGZpdC1tYXJnaW4tdG9wPSIwIiBncmlkdG9sZXJhbmNlPSIxMCIgZ3VpZGV0b2xlcmFuY2U9IjEwIiBpZD0ibmFtZWR2aWV3MTQ5ODUiIGlua3NjYXBlOmN1cnJlbnQtbGF5ZXI9InN2ZzE0OTgzIiBpbmtzY2FwZTpjeD0iNDQuMDc2MDQ3IiBpbmtzY2FwZTpjeT0iMjUuNjkyMDU0IiBpbmtzY2FwZTpwYWdlb3BhY2l0eT0iMCIgaW5rc2NhcGU6cGFnZXNoYWRvdz0iMiIgaW5rc2NhcGU6d2luZG93LWhlaWdodD0iMTAxNyIgaW5rc2NhcGU6d2luZG93LW1heGltaXplZD0iMSIgaW5rc2NhcGU6d2luZG93LXdpZHRoPSIxOTIwIiBpbmtzY2FwZTp3aW5kb3cteD0iLTgiIGlua3NjYXBlOndpbmRvdy15PSItOCIgaW5rc2NhcGU6em9vbT0iMTYuODcxMjU0IiBvYmplY3R0b2xlcmFuY2U9IjEwIiBwYWdlY29sb3I9IiNmZmZmZmYiIHNob3dncmlkPSJmYWxzZSI+JiN4YTsJPC9zb2RpcG9kaTpuYW1lZHZpZXc+JiN4YTs8ZyBpZD0iZzE0OTgxIiB0cmFuc2Zvcm09InRyYW5zbGF0ZSgwLDUuMmUtNCkiPiYjeGE7CTx0aXRsZSBpZD0idGl0bGUxNDg5NiI+UGFnZS0xPC90aXRsZT4mI3hhOwk8ZyBpZD0iZ3JvdXAzNzkyLTEiPiYjeGE7CQk8dGl0bGUgaWQ9InRpdGxlMTQ4OTgiPkxhcHRvcCAoT3V0bG9vayk8L3RpdGxlPiYjeGE7CQk8ZyBpZD0ic2hhcGUzNzkzLTIiIHRyYW5zZm9ybT0idHJhbnNsYXRlKDcuODg3MjksLTMuMjUwNTIpIj4mI3hhOwkJCTx0aXRsZSBpZD0idGl0bGUxNDkwMCI+U2hlZXQuMzc5MzwvdGl0bGU+JiN4YTsJCQk8cGF0aCBpZD0icGF0aDE0OTAyIiBpbmtzY2FwZTpjb25uZWN0b3ItY3VydmF0dXJlPSIwIiBzdHlsZT0iZmlsbDojM0Y1NzY1OyIgZD0iTTAsMy4yNXYzNS4yOWg1MS4wNFYzLjI1SDB6Ii8+JiN4YTsJCTwvZz4mI3hhOwkJPGcgaWQ9InNoYXBlMzc5NC00IiB0cmFuc2Zvcm09InRyYW5zbGF0ZSgzMi45NDEsLTM2LjQ1MjIpIj4mI3hhOwkJCTx0aXRsZSBpZD0idGl0bGUxNDkwNSI+U2hlZXQuMzc5NDwvdGl0bGU+JiN4YTsJCQk8cGF0aCBpZD0icGF0aDE0OTA3IiBpbmtzY2FwZTpjb25uZWN0b3ItY3VydmF0dXJlPSIwIiBzdHlsZT0iZmlsbDojMzMzMzMzOyIgZD0iTTAsMzcuODVjMC0wLjM4LDAuMjItMC43LDAuNDYtMC43ICAgICBjMC4yNiwwLDAuNDcsMC4zMiwwLjQ3LDAuN2MwLDAuMzktMC4yMSwwLjY5LTAuNDcsMC42OUMwLjIyLDM4LjU0LDAsMzguMjQsMCwzNy44NXoiLz4mI3hhOwkJPC9nPiYjeGE7CQk8ZyBpZD0ic2hhcGUzNzk1LTYiIHRyYW5zZm9ybT0idHJhbnNsYXRlKDkuNzQzMTMsLTQuNjQzNikiPiYjeGE7CQkJPHRpdGxlIGlkPSJ0aXRsZTE0OTEwIj5TaGVldC4zNzk1PC90aXRsZT4mI3hhOwkJCTxwYXRoIGlkPSJwYXRoMTQ5MTIiIGlua3NjYXBlOmNvbm5lY3Rvci1jdXJ2YXR1cmU9IjAiIHN0eWxlPSJmaWxsOiM0MDQwNDA7IiBkPSJNMCw3LjQzdjMxLjExaDQ3Ljc5VjcuNDNIMHoiLz4mI3hhOwkJPC9nPiYjeGE7CQk8ZyBpZD0ic2hhcGUzNzk2LTgiPiYjeGE7CQkJPHRpdGxlIGlkPSJ0aXRsZTE0OTE1Ij5TaGVldC4zNzk2PC90aXRsZT4mI3hhOwkJCTxwYXRoIGlkPSJwYXRoMTQ5MTciIGlua3NjYXBlOmNvbm5lY3Rvci1jdXJ2YXR1cmU9IjAiIHN0eWxlPSJmaWxsOiMzRjU3NjU7IiBkPSJNMCwzNS43NmMwLDAuNCwwLDAuNCwwLDAuNCAgICAgYzAsMS4xOSwxLjE1LDIuMzgsMi42NSwyLjM4YzYwLjgzLDAsNjAuODMsMCw2MC44MywwYzEuNSwwLDIuNjMtMS4xOSwyLjYzLTIuMzhjMC0wLjQsMC0wLjQsMC0wLjRIMHoiLz4mI3hhOwkJPC9nPiYjeGE7CQk8ZyBpZD0ic2hhcGUzNzk3LTEwIiB0cmFuc2Zvcm09InRyYW5zbGF0ZSgxMi4wNjI5LC03LjQyOTc2KSI+JiN4YTsJCQk8dGl0bGUgaWQ9InRpdGxlMTQ5MjAiPlNoZWV0LjM3OTc8L3RpdGxlPiYjeGE7CQkJPHBhdGggaWQ9InBhdGgxNDkyMiIgaW5rc2NhcGU6Y29ubmVjdG9yLWN1cnZhdHVyZT0iMCIgc3R5bGU9ImZpbGw6I0ZGRkZGRjsiIGQ9Ik0wLDEyLjc3djI1Ljc3aDQzLjE1VjEyLjc3SDB6Ii8+JiN4YTsJCTwvZz4mI3hhOwkJPGcgaWQ9InNoYXBlMzc5OC0xMiIgdHJhbnNmb3JtPSJ0cmFuc2xhdGUoMTIuMDYyOSwtNy40Mjk3NikiPiYjeGE7CQkJPHRpdGxlIGlkPSJ0aXRsZTE0OTI1Ij5TaGVldC4zNzk4PC90aXRsZT4mI3hhOwkJCSYjeGE7CQkJCTxwYXRoIGlkPSJwYXRoMTQ5MjciIGlua3NjYXBlOmNvbm5lY3Rvci1jdXJ2YXR1cmU9IjAiIHN0eWxlPSJmaWxsOm5vbmU7c3Ryb2tlOiMxQjM3NUY7c3Ryb2tlLXdpZHRoOjEuMjI0OTtzdHJva2UtbGluZWNhcDpyb3VuZDtzdHJva2UtbGluZWpvaW46cm91bmQ7c3Ryb2tlLW1pdGVybGltaXQ6MzsiIGQ9IiAgICAgTTAsMTIuNzdoNDMuMTV2MjUuNzdIMFYxMi43NyIvPiYjeGE7CQk8L2c+JiN4YTsJCTxnIGlkPSJzaGFwZTM3OTktMTUiIHRyYW5zZm9ybT0idHJhbnNsYXRlKDI1Ljk4MTcsLTcuNDI5NzYpIj4mI3hhOwkJCTx0aXRsZSBpZD0idGl0bGUxNDkzMCI+U2hlZXQuMzc5OTwvdGl0bGU+JiN4YTsJCQk8cGF0aCBpZD0icGF0aDE0OTMyIiBpbmtzY2FwZTpjb25uZWN0b3ItY3VydmF0dXJlPSIwIiBzdHlsZT0iZmlsbDojRkZGRkZGOyIgZD0iTTAsMTIuNzd2MjUuNzdoMjkuMjNWMTIuNzdIMHoiLz4mI3hhOwkJPC9nPiYjeGE7CQk8ZyBpZD0ic2hhcGUzODAwLTE3IiB0cmFuc2Zvcm09InRyYW5zbGF0ZSgyNS45ODE3LC03LjQyOTc2KSI+JiN4YTsJCQk8dGl0bGUgaWQ9InRpdGxlMTQ5MzUiPlNoZWV0LjM4MDA8L3RpdGxlPiYjeGE7CQkJJiN4YTsJCQkJPHBhdGggaWQ9InBhdGgxNDkzNyIgaW5rc2NhcGU6Y29ubmVjdG9yLWN1cnZhdHVyZT0iMCIgc3R5bGU9ImZpbGw6bm9uZTtzdHJva2U6IzFCMzc1RjtzdHJva2Utd2lkdGg6MS4yMjQ5O3N0cm9rZS1saW5lY2FwOnJvdW5kO3N0cm9rZS1saW5lam9pbjpyb3VuZDtzdHJva2UtbWl0ZXJsaW1pdDozOyIgZD0iICAgICBNMCwxMi43N2gyOS4yM3YyNS43N0gwVjEyLjc3Ii8+JiN4YTsJCTwvZz4mI3hhOwkJPGcgaWQ9InNoYXBlMzgwMS0yMCIgdHJhbnNmb3JtPSJ0cmFuc2xhdGUoMzAuNjIxMiwtMjAuNjY0KSI+JiN4YTsJCQk8dGl0bGUgaWQ9InRpdGxlMTQ5NDAiPlNoZWV0LjM4MDE8L3RpdGxlPiYjeGE7CQkJJiN4YTsJCQkJPHBhdGggaWQ9InBhdGgxNDk0MiIgaW5rc2NhcGU6Y29ubmVjdG9yLWN1cnZhdHVyZT0iMCIgc3R5bGU9ImZpbGw6bm9uZTtzdHJva2U6IzFCMzc1RjtzdHJva2Utd2lkdGg6MS4yMjQ5O3N0cm9rZS1saW5lY2FwOnJvdW5kO3N0cm9rZS1saW5lam9pbjpyb3VuZDtzdHJva2UtbWl0ZXJsaW1pdDozOyIgZD0iICAgICBNMCwzOC41NGgyMC43NiIvPiYjeGE7CQk8L2c+JiN4YTsJCTxnIGlkPSJzaGFwZTM4MDItMjMiIHRyYW5zZm9ybT0idHJhbnNsYXRlKDMwLjYyMTIsLTE2LjI1MjYpIj4mI3hhOwkJCTx0aXRsZSBpZD0idGl0bGUxNDk0NSI+U2hlZXQuMzgwMjwvdGl0bGU+JiN4YTsJCQkmI3hhOwkJCQk8cGF0aCBpZD0icGF0aDE0OTQ3IiBpbmtzY2FwZTpjb25uZWN0b3ItY3VydmF0dXJlPSIwIiBzdHlsZT0iZmlsbDpub25lO3N0cm9rZTojMUIzNzVGO3N0cm9rZS13aWR0aDoxLjIyNDk7c3Ryb2tlLWxpbmVjYXA6cm91bmQ7c3Ryb2tlLWxpbmVqb2luOnJvdW5kO3N0cm9rZS1taXRlcmxpbWl0OjM7IiBkPSIgICAgIE0wLDM4LjU0aDIwLjc2Ii8+JiN4YTsJCTwvZz4mI3hhOwkJPGcgaWQ9InNoYXBlMzgwMy0yNiIgdHJhbnNmb3JtPSJ0cmFuc2xhdGUoMzAuNjIxMiwtMTEuODQxMikiPiYjeGE7CQkJPHRpdGxlIGlkPSJ0aXRsZTE0OTUwIj5TaGVldC4zODAzPC90aXRsZT4mI3hhOwkJCSYjeGE7CQkJCTxwYXRoIGlkPSJwYXRoMTQ5NTIiIGlua3NjYXBlOmNvbm5lY3Rvci1jdXJ2YXR1cmU9IjAiIHN0eWxlPSJmaWxsOm5vbmU7c3Ryb2tlOiMxQjM3NUY7c3Ryb2tlLXdpZHRoOjEuMjI0OTtzdHJva2UtbGluZWNhcDpyb3VuZDtzdHJva2UtbGluZWpvaW46cm91bmQ7c3Ryb2tlLW1pdGVybGltaXQ6MzsiIGQ9IiAgICAgTTAsMzguNTRoMjAuNzYiLz4mI3hhOwkJPC9nPiYjeGE7CQk8ZyBpZD0ic2hhcGUzODA0LTI5IiB0cmFuc2Zvcm09InRyYW5zbGF0ZSgxNS41NDI2LC0yMC42NjQpIj4mI3hhOwkJCTx0aXRsZSBpZD0idGl0bGUxNDk1NSI+U2hlZXQuMzgwNDwvdGl0bGU+JiN4YTsJCQkmI3hhOwkJCQk8cGF0aCBpZD0icGF0aDE0OTU3IiBpbmtzY2FwZTpjb25uZWN0b3ItY3VydmF0dXJlPSIwIiBzdHlsZT0iZmlsbDpub25lO3N0cm9rZTojMUIzNzVGO3N0cm9rZS13aWR0aDoxLjIyNDk7c3Ryb2tlLWxpbmVjYXA6cm91bmQ7c3Ryb2tlLWxpbmVqb2luOnJvdW5kO3N0cm9rZS1taXRlcmxpbWl0OjM7IiBkPSIgICAgIE0wLDM4LjU0aDcuNjEiLz4mI3hhOwkJPC9nPiYjeGE7CQk8ZyBpZD0ic2hhcGUzODA1LTMyIiB0cmFuc2Zvcm09InRyYW5zbGF0ZSgxNS41NDI2LC0xNi4yNTI2KSI+JiN4YTsJCQk8dGl0bGUgaWQ9InRpdGxlMTQ5NjAiPlNoZWV0LjM4MDU8L3RpdGxlPiYjeGE7CQkJJiN4YTsJCQkJPHBhdGggaWQ9InBhdGgxNDk2MiIgaW5rc2NhcGU6Y29ubmVjdG9yLWN1cnZhdHVyZT0iMCIgc3R5bGU9ImZpbGw6bm9uZTtzdHJva2U6IzFCMzc1RjtzdHJva2Utd2lkdGg6MS4yMjQ5O3N0cm9rZS1saW5lY2FwOnJvdW5kO3N0cm9rZS1saW5lam9pbjpyb3VuZDtzdHJva2UtbWl0ZXJsaW1pdDozOyIgZD0iICAgICBNMCwzOC41NGg3LjYxIi8+JiN4YTsJCTwvZz4mI3hhOwkJPGcgaWQ9InNoYXBlMzgwNi0zNSIgdHJhbnNmb3JtPSJ0cmFuc2xhdGUoMTUuNTQyNiwtMTEuODQxMikiPiYjeGE7CQkJPHRpdGxlIGlkPSJ0aXRsZTE0OTY1Ij5TaGVldC4zODA2PC90aXRsZT4mI3hhOwkJCSYjeGE7CQkJCTxwYXRoIGlkPSJwYXRoMTQ5NjciIGlua3NjYXBlOmNvbm5lY3Rvci1jdXJ2YXR1cmU9IjAiIHN0eWxlPSJmaWxsOm5vbmU7c3Ryb2tlOiMxQjM3NUY7c3Ryb2tlLXdpZHRoOjEuMjI0OTtzdHJva2UtbGluZWNhcDpyb3VuZDtzdHJva2UtbGluZWpvaW46cm91bmQ7c3Ryb2tlLW1pdGVybGltaXQ6MzsiIGQ9IiAgICAgTTAsMzguNTRoNy42MSIvPiYjeGE7CQk8L2c+JiN4YTsJCTxnIGlkPSJzaGFwZTM4MDctMzgiIHRyYW5zZm9ybT0idHJhbnNsYXRlKDE0Ljg0NjcsLTIyLjI4OTMpIj4mI3hhOwkJCTx0aXRsZSBpZD0idGl0bGUxNDk3MCI+U2hlZXQuMzgwNzwvdGl0bGU+JiN4YTsJCQk8cGF0aCBpZD0icGF0aDE0OTcyIiBpbmtzY2FwZTpjb25uZWN0b3ItY3VydmF0dXJlPSIwIiBzdHlsZT0iZmlsbDojMUIzNzVGOyIgZD0iTTguOTcsMzEuNDdjLTMuNDYsMC0zLjQ2LDAtMy40NiwwICAgICBjMC0yLjIyLDAtMi4yMiwwLTIuMjJDMCwzMC4yLDAsMzAuMiwwLDMwLjJjMCw3LjQxLDAsNy40MSwwLDcuNDFjNS41MSwwLjkzLDUuNTEsMC45Myw1LjUxLDAuOTNjMC0yLjA5LDAtMi4wOSwwLTIuMDkgICAgIGMzLjQ4LDAsMy40OCwwLDMuNDgsMGMwLjE2LDAsMC4yOS0wLjE2LDAuMjktMC4zMmMwLTQuMzQsMC00LjM0LDAtNC4zNEM5LjI4LDMxLjYxLDkuMTUsMzEuNDcsOC45NywzMS40N3ogTTQuMDIsMzQuMjMgICAgIGMtMC4wNiwwLjEzLTAuMDgsMC4yMi0wLjExLDAuMzRjLTAuMDEsMC4xMy0wLjA1LDAuMjQtMC4xMywwLjMyYy0wLjA0LDAuMS0wLjExLDAuMTctMC4xNywwLjI2Yy0wLjA5LDAuMDctMC4xMywwLjE2LTAuMjMsMC4yICAgICBjLTAuMDYsMC4wNy0wLjE1LDAuMTItMC4yNSwwLjEzYy0wLjA5LDAuMDctMC4xNCwwLjA5LTAuMjYsMC4wOUMyLjc4LDM1LjYsMi43LDM1LjYsMi41OCwzNS42Yy0wLjEyLDAtMC4xOS0wLjAzLTAuMjktMC4wNSAgICAgYy0wLjA5LTAuMDQtMC4xNi0wLjA3LTAuMjUtMC4xMWMtMC4wNy0wLjAyLTAuMTYtMC4wOS0wLjItMC4xNmMtMC4wOS0wLjA2LTAuMTMtMC4xLTAuMjItMC4xOGMtMC4wNS0wLjA4LTAuMS0wLjItMC4xNC0wLjI3ICAgICBjLTAuMDQtMC4wOS0wLjA5LTAuMTgtMC4xLTAuMjljLTAuMDYtMC4wOS0wLjA4LTAuMTgtMC4wOC0wLjI5QzEuMjgsMzQuMTIsMS4yOCwzNCwxLjI4LDMzLjljMC0wLjEyLDAtMC4yNSwwLjAyLTAuMzYgICAgIGMwLTAuMTIsMC4wMi0wLjI1LDAuMDgtMC4zMmMwLjAxLTAuMTEsMC4wNi0wLjIyLDAuMDgtMC4yOWMwLjA2LTAuMTEsMC4xMS0wLjE4LDAuMTYtMC4yN2MwLjA2LTAuMDgsMC4xMy0wLjE1LDAuMjItMC4yNCAgICAgYzAuMDQtMC4wNSwwLjEzLTAuMDksMC4yLTAuMTZjMC4wOS0wLjA1LDAuMTgtMC4wNywwLjI3LTAuMDljMC4xMS0wLjA0LDAuMi0wLjA3LDAuMzEtMC4wN2MwLjA5LDAsMC4xOCwwLDAuMjksMCAgICAgYzAuMDksMC4wMywwLjE2LDAuMDcsMC4yNywwLjA5YzAuMSwwLjA1LDAuMTUsMC4wNywwLjI0LDAuMTRjMC4wNiwwLjA2LDAuMTUsMC4xMywwLjIsMC4yYzAuMDUsMC4wOSwwLjEyLDAuMTUsMC4xNiwwLjI3ICAgICBjMC4wOCwwLjA3LDAuMTIsMC4xNywwLjEzLDAuMjljMC4wMywwLjExLDAuMDUsMC4yNCwwLjExLDAuMzNjMC4wMSwwLjE0LDAuMDEsMC4yOCwwLjAxLDAuNDFTNC4wMywzNC4xLDQuMDIsMzQuMjN6IE04Ljk3LDM2LjEzICAgICBjLTMuNDYsMC0zLjQ2LDAtMy40NiwwYzAtMi43MywwLTIuNzMsMC0yLjczYzEuMDMsMC45NiwxLjAzLDAuOTYsMS4wMywwLjk2YzAuMSwwLjA5LDAuMjUsMC4wOSwwLjMsMCAgICAgYzIuMTMtMS45NywyLjEzLTEuOTcsMi4xMy0xLjk3VjM2LjEzeiBNOC45NywzMS45N0M2LjcxLDM0LjEsNi43MSwzNC4xLDYuNzEsMzQuMWMwLDAuMDItMC4wMSwwLjAyLTAuMDQsMCAgICAgQzUuNTEsMzMsNS41MSwzMyw1LjUxLDMzYzAtMS4yMSwwLTEuMjEsMC0xLjIxYzMuNDYsMCwzLjQ2LDAsMy40NiwwTDguOTcsMzEuOTd6IE0zLjI4LDMzLjM4Yy0wLjA1LTAuMDUtMC4wNS0wLjEzLTAuMDgtMC4xOCAgICAgYy0wLjAyLTAuMDctMC4wNC0wLjExLTAuMTEtMC4xNkMzLjA3LDMyLjk3LDMuMDQsMzIuOTYsMywzMi45MWMtMC4wMS0wLjA0LTAuMDctMC4wNy0wLjExLTAuMDlDMi44NCwzMi44LDIuOCwzMi44LDIuNzUsMzIuNzggICAgIGMtMC4wNCwwLTAuMTEsMC0wLjE1LDBjLTAuMDUsMC0wLjExLDAtMC4xNSwwLjAyYy0wLjA2LDAtMC4xMiwwLjAyLTAuMTQsMC4wNGMtMC4wNSwwLjAzLTAuMTEsMC4wNy0wLjE0LDAuMTIgICAgIGMtMC4wMSwwLjAxLTAuMDcsMC4wOC0wLjExLDAuMTNDMi4wNCwzMy4xMywyLjAyLDMzLjIsMiwzMy4yNWMtMC4wMywwLjA0LTAuMDMsMC4xMy0wLjA3LDAuMTdjMCwwLjA3LTAuMDIsMC4xNC0wLjAyLDAuMjMgICAgIGMwLDAuMDUtMC4wMywwLjEzLTAuMDMsMC4yYzAsMC4wOSwwLjAzLDAuMTUsMC4wMywwLjI1YzAsMC4wNiwwLjAyLDAuMTUsMC4wMiwwLjE5YzAuMDQsMC4xLDAuMDcsMC4xNSwwLjA5LDAuMTkgICAgIGMwLjAyLDAuMDYsMC4wNCwwLjExLDAuMDgsMC4xN2MwLjAzLDAuMDUsMC4wNiwwLjA4LDAuMSwwLjEyYzAuMDIsMC4wNCwwLjA5LDAuMDYsMC4xMSwwLjA5YzAuMDQsMC4wMywwLjA4LDAuMDQsMC4xNCwwLjA0ICAgICBjMC4wNCwwLjA0LDAuMSwwLjA0LDAuMTMsMC4wNGMwLjA0LDAsMC4xMiwwLDAuMTYsMGMwLjA0LTAuMDQsMC4xLTAuMDQsMC4xMy0wLjA1YzAuMDQtMC4wMywwLjA2LTAuMDYsMC4xMy0wLjA4ICAgICBjMC4wMy0wLjA0LDAuMDctMC4wOCwwLjA5LTAuMTFjMC4wNC0wLjA1LDAuMDctMC4xMSwwLjA5LTAuMTZjMC4wMi0wLjA5LDAuMDUtMC4xMywwLjEtMC4yMmMwLjAxLTAuMDQsMC4wMS0wLjEzLDAuMDEtMC4yICAgICBjMC4wMy0wLjA5LDAuMDMtMC4xNiwwLjAzLTAuMjVzMC0wLjE3LTAuMDMtMC4yNUMzLjI5LDMzLjU0LDMuMjksMzMuNDUsMy4yOCwzMy4zOHoiLz4mI3hhOwkJPC9nPiYjeGE7CQk8ZyBpZD0ic2hhcGUzODA4LTQwIiB0cmFuc2Zvcm09InRyYW5zbGF0ZSgzMC42MjEzLC0yNi4wMDQxKSI+JiN4YTsJCQk8dGl0bGUgaWQ9InRpdGxlMTQ5NzUiPlNoZWV0LjM4MDg8L3RpdGxlPiYjeGE7CQkJPHBhdGggaWQ9InBhdGgxNDk3NyIgaW5rc2NhcGU6Y29ubmVjdG9yLWN1cnZhdHVyZT0iMCIgc3R5bGU9ImZpbGw6I0ZGQjkwMDsiIGQ9Ik0wLDMzLjY3djQuODdoMjAuNjV2LTQuODdIMHoiLz4mI3hhOwkJPC9nPiYjeGE7CTwvZz4mI3hhOzwvZz4mI3hhOzwvc3ZnPg==;" vertex="1" parent="1">
          <mxGeometry x="55.5" y="725.69" width="66" height="39" as="geometry" />
        </mxCell>
        <mxCell id="xkKd55qxpHbyt4-YmWr0-14" value="" style="shape=image;verticalLabelPosition=bottom;labelBackgroundColor=#ffffff;verticalAlign=top;aspect=fixed;imageAspect=0;image=data:image/svg+xml,PHN2ZyB4bWxuczpjYz0iaHR0cDovL2NyZWF0aXZlY29tbW9ucy5vcmcvbnMjIiB4bWxuczpkYz0iaHR0cDovL3B1cmwub3JnL2RjL2VsZW1lbnRzLzEuMS8iIHhtbG5zOmlua3NjYXBlPSJodHRwOi8vd3d3Lmlua3NjYXBlLm9yZy9uYW1lc3BhY2VzL2lua3NjYXBlIiB4bWxuczpyZGY9Imh0dHA6Ly93d3cudzMub3JnLzE5OTkvMDIvMjItcmRmLXN5bnRheC1ucyMiIHhtbG5zOnNvZGlwb2RpPSJodHRwOi8vc29kaXBvZGkuc291cmNlZm9yZ2UubmV0L0RURC9zb2RpcG9kaS0wLmR0ZCIgeG1sbnM6c3ZnPSJodHRwOi8vd3d3LnczLm9yZy8yMDAwL3N2ZyIgeG1sbnM9Imh0dHA6Ly93d3cudzMub3JnLzIwMDAvc3ZnIiB4bWxuczp4bGluaz0iaHR0cDovL3d3dy53My5vcmcvMTk5OS94bGluayIgdmVyc2lvbj0iMS4xIiBpZD0ic3ZnMjQxMzMiIGlua3NjYXBlOnZlcnNpb249IjAuOTIuMyAoMjQwNTU0NiwgMjAxOC0wMy0xMSkiIHNvZGlwb2RpOmRvY25hbWU9Im1vYmlsZV8yLnN2ZyIgeD0iMHB4IiB5PSIwcHgiIHZpZXdCb3g9IjAgMCAyNi4yNSA0Ny4yNSIgc3R5bGU9ImVuYWJsZS1iYWNrZ3JvdW5kOm5ldyAwIDAgMjYuMjUgNDcuMjU7IiB4bWw6c3BhY2U9InByZXNlcnZlIj4mI3hhOzxzb2RpcG9kaTpuYW1lZHZpZXcgYm9yZGVyY29sb3I9IiM2NjY2NjYiIGJvcmRlcm9wYWNpdHk9IjEiIGZpdC1tYXJnaW4tYm90dG9tPSIwIiBmaXQtbWFyZ2luLWxlZnQ9IjAiIGZpdC1tYXJnaW4tcmlnaHQ9IjAiIGZpdC1tYXJnaW4tdG9wPSIwIiBncmlkdG9sZXJhbmNlPSIxMCIgZ3VpZGV0b2xlcmFuY2U9IjEwIiBpZD0ibmFtZWR2aWV3MjQxMzUiIGlua3NjYXBlOmN1cnJlbnQtbGF5ZXI9InN2ZzI0MTMzIiBpbmtzY2FwZTpjeD0iMTcuNDk5OTkxIiBpbmtzY2FwZTpjeT0iMzEuNDk5OTg1IiBpbmtzY2FwZTpwYWdlb3BhY2l0eT0iMCIgaW5rc2NhcGU6cGFnZXNoYWRvdz0iMiIgaW5rc2NhcGU6d2luZG93LWhlaWdodD0iMTAxNyIgaW5rc2NhcGU6d2luZG93LW1heGltaXplZD0iMSIgaW5rc2NhcGU6d2luZG93LXdpZHRoPSIxOTIwIiBpbmtzY2FwZTp3aW5kb3cteD0iLTgiIGlua3NjYXBlOndpbmRvdy15PSItOCIgaW5rc2NhcGU6em9vbT0iMTMuMzM4NDY4IiBvYmplY3R0b2xlcmFuY2U9IjEwIiBwYWdlY29sb3I9IiNmZmZmZmYiIHNob3dncmlkPSJmYWxzZSI+JiN4YTsJPC9zb2RpcG9kaTpuYW1lZHZpZXc+JiN4YTs8ZyBpZD0iZzI0MTMxIiB0cmFuc2Zvcm09InRyYW5zbGF0ZSgtMC43NTAwMTkzOSwtMC43NSkiPiYjeGE7CTx0aXRsZSBpZD0idGl0bGUyNDEwNiI+UGFnZS0xPC90aXRsZT4mI3hhOwk8ZyBpZD0iZ3JvdXAzMzM4LTEiIHRyYW5zZm9ybT0idHJhbnNsYXRlKDEuNSwtMS41KSI+JiN4YTsJCTx0aXRsZSBpZD0idGl0bGUyNDEwOCI+TW9iaWxlICMyPC90aXRsZT4mI3hhOwkJPGcgaWQ9InNoYXBlMzMzOS0yIj4mI3hhOwkJCTx0aXRsZSBpZD0idGl0bGUyNDExMCI+cmVjdDE2MzQ8L3RpdGxlPiYjeGE7CQkJJiN4YTsJCQkJPHBhdGggaWQ9InBhdGgyNDExMiIgaW5rc2NhcGU6Y29ubmVjdG9yLWN1cnZhdHVyZT0iMCIgc3R5bGU9ImZpbGw6I0ZDRkNGQztzdHJva2U6IzU1NkE4QTtzdHJva2Utd2lkdGg6MS41O3N0cm9rZS1taXRlcmxpbWl0OjM7IiBkPSIgICAgIE0wLDQ1Ljc1YzAsMS42NiwxLjM0LDMsMywzaDE4Ljc1YzEuNjYsMCwzLTEuMzQsMy0zVjZjMC0xLjY2LTEuMzQtMy0zLTNIM0MxLjM0LDMsMCw0LjM0LDAsNlY0NS43NXoiLz4mI3hhOwkJPC9nPiYjeGE7CQk8ZyBpZD0ic2hhcGUzMzQwLTQiIHRyYW5zZm9ybT0idHJhbnNsYXRlKDMsLTYuNzUpIj4mI3hhOwkJCTx0aXRsZSBpZD0idGl0bGUyNDExNSI+cmVjdDE2MzY8L3RpdGxlPiYjeGE7CQkJPHJlY3QgaWQ9InJlY3QyNDExNyIgeD0iMCIgeT0iMTUuNzUiIHN0eWxlPSJmaWxsOiNBQUU5RkI7IiB3aWR0aD0iMTguNzUiIGhlaWdodD0iMzMiLz4mI3hhOwkJPC9nPiYjeGE7CQk8ZyBpZD0ic2hhcGUzMzQxLTYiIHRyYW5zZm9ybT0idHJhbnNsYXRlKDguODU3NSwtNDEuMjUpIj4mI3hhOwkJCTx0aXRsZSBpZD0idGl0bGUyNDEyMCI+cGF0aDE2Mzg8L3RpdGxlPiYjeGE7CQkJPHBhdGggaWQ9InBhdGgyNDEyMiIgaW5rc2NhcGU6Y29ubmVjdG9yLWN1cnZhdHVyZT0iMCIgc3R5bGU9ImZpbGw6Izk5OTk5OTsiIGQ9Ik03LjAzLDQ4Ljc1SDAuNzVDMC4zNCw0OC43NSwwLDQ4LjQxLDAsNDggICAgIHMwLjM0LTAuNzUsMC43NS0wLjc1aDYuMjhjMC40MSwwLDAuNzUsMC4zNCwwLjc1LDAuNzVTNy40NCw0OC43NSw3LjAzLDQ4Ljc1eiIvPiYjeGE7CQk8L2c+JiN4YTsJCTxnIGlkPSJzaGFwZTMzNDItOCIgdHJhbnNmb3JtPSJ0cmFuc2xhdGUoMTEuMjU3NSwtMykiPiYjeGE7CQkJPHRpdGxlIGlkPSJ0aXRsZTI0MTI1Ij5wYXRoMTY0MDwvdGl0bGU+JiN4YTsJCQk8cGF0aCBpZD0icGF0aDI0MTI3IiBpbmtzY2FwZTpjb25uZWN0b3ItY3VydmF0dXJlPSIwIiBzdHlsZT0iZmlsbDojOTk5OTk5OyIgZD0iTTIuNzUsNDguNzVIMC4yNEMwLjEsNDguNzUsMCw0OC40MSwwLDQ4ICAgICBzMC4xMS0wLjc1LDAuMjQtMC43NWgyLjUxYzAuMTQsMCwwLjI0LDAuMzQsMC4yNCwwLjc1UzIuODgsNDguNzUsMi43NSw0OC43NXoiLz4mI3hhOwkJPC9nPiYjeGE7CTwvZz4mI3hhOzwvZz4mI3hhOzwvc3ZnPg==;" vertex="1" parent="1">
          <mxGeometry x="75.5" y="621.5" width="26" height="47" as="geometry" />
        </mxCell>
        <mxCell id="xkKd55qxpHbyt4-YmWr0-15" value="" style="shape=image;verticalLabelPosition=bottom;labelBackgroundColor=#ffffff;verticalAlign=top;aspect=fixed;imageAspect=0;image=data:image/svg+xml,PHN2ZyB4bWxuczpjYz0iaHR0cDovL2NyZWF0aXZlY29tbW9ucy5vcmcvbnMjIiB4bWxuczpkYz0iaHR0cDovL3B1cmwub3JnL2RjL2VsZW1lbnRzLzEuMS8iIHhtbG5zOmlua3NjYXBlPSJodHRwOi8vd3d3Lmlua3NjYXBlLm9yZy9uYW1lc3BhY2VzL2lua3NjYXBlIiB4bWxuczpyZGY9Imh0dHA6Ly93d3cudzMub3JnLzE5OTkvMDIvMjItcmRmLXN5bnRheC1ucyMiIHhtbG5zOnNvZGlwb2RpPSJodHRwOi8vc29kaXBvZGkuc291cmNlZm9yZ2UubmV0L0RURC9zb2RpcG9kaS0wLmR0ZCIgeG1sbnM6c3ZnPSJodHRwOi8vd3d3LnczLm9yZy8yMDAwL3N2ZyIgeG1sbnM9Imh0dHA6Ly93d3cudzMub3JnLzIwMDAvc3ZnIiB4bWxuczp4bGluaz0iaHR0cDovL3d3dy53My5vcmcvMTk5OS94bGluayIgdmVyc2lvbj0iMS4xIiBpZD0ic3ZnMTM2NyIgaW5rc2NhcGU6dmVyc2lvbj0iMC45Mi4zICgyNDA1NTQ2LCAyMDE4LTAzLTExKSIgc29kaXBvZGk6ZG9jbmFtZT0iYW5kcm9pZF90YWJsZXQuc3ZnIiB4PSIwcHgiIHk9IjBweCIgdmlld0JveD0iMCAwIDQzLjQ2IDI4LjgiIHN0eWxlPSJlbmFibGUtYmFja2dyb3VuZDpuZXcgMCAwIDQzLjQ2IDI4Ljg7IiB4bWw6c3BhY2U9InByZXNlcnZlIj4mI3hhOzxzb2RpcG9kaTpuYW1lZHZpZXcgYm9yZGVyY29sb3I9IiM2NjY2NjYiIGJvcmRlcm9wYWNpdHk9IjEiIGZpdC1tYXJnaW4tYm90dG9tPSIwIiBmaXQtbWFyZ2luLWxlZnQ9IjAiIGZpdC1tYXJnaW4tcmlnaHQ9IjAiIGZpdC1tYXJnaW4tdG9wPSIwIiBncmlkdG9sZXJhbmNlPSIxMCIgZ3VpZGV0b2xlcmFuY2U9IjEwIiBpZD0ibmFtZWR2aWV3MTM2OSIgaW5rc2NhcGU6Y3VycmVudC1sYXllcj0ic3ZnMTM2NyIgaW5rc2NhcGU6Y3g9IjI4Ljk3NTkyIiBpbmtzY2FwZTpjeT0iMTkuMjAyMTI2IiBpbmtzY2FwZTpwYWdlb3BhY2l0eT0iMCIgaW5rc2NhcGU6cGFnZXNoYWRvdz0iMiIgaW5rc2NhcGU6d2luZG93LWhlaWdodD0iMTAxNyIgaW5rc2NhcGU6d2luZG93LW1heGltaXplZD0iMSIgaW5rc2NhcGU6d2luZG93LXdpZHRoPSIxOTIwIiBpbmtzY2FwZTp3aW5kb3cteD0iLTgiIGlua3NjYXBlOndpbmRvdy15PSItOCIgaW5rc2NhcGU6em9vbT0iMjIuNTgwNjY1IiBvYmplY3R0b2xlcmFuY2U9IjEwIiBwYWdlY29sb3I9IiNmZmZmZmYiIHNob3dncmlkPSJmYWxzZSI+JiN4YTsJPC9zb2RpcG9kaTpuYW1lZHZpZXc+JiN4YTs8ZyBpZD0iZzEzNjUiPiYjeGE7CTx0aXRsZSBpZD0idGl0bGUxMjk1Ij5QYWdlLTE8L3RpdGxlPiYjeGE7CTxnIGlkPSJncm91cDMzMDMtMSI+JiN4YTsJCTx0aXRsZSBpZD0idGl0bGUxMjk3Ij5BbmRyb2lkIFRhYmxldC4xOTQ8L3RpdGxlPiYjeGE7CQk8ZyBpZD0ic2hhcGUzMzA0LTIiPiYjeGE7CQkJPHRpdGxlIGlkPSJ0aXRsZTEyOTkiPlNoZWV0LjMzMDQ8L3RpdGxlPiYjeGE7CQkJPHBhdGggaWQ9InBhdGgxMzAxIiBpbmtzY2FwZTpjb25uZWN0b3ItY3VydmF0dXJlPSIwIiBzdHlsZT0iZmlsbDojM0Y1NzY1OyIgZD0iTTEuNzYsMjguOEMwLjY5LDI4LjgsMCwyOC4xNSwwLDI3LjA3ICAgICBDMCwxLjc2LDAsMS43NiwwLDEuNzZDMCwwLjg4LDAuNjksMCwxLjc2LDBjMzkuOTgsMCwzOS45OCwwLDM5Ljk4LDBjMC44OCwwLDEuNzIsMC44OCwxLjcyLDEuNzZjMCwyNS4zMSwwLDI1LjMxLDAsMjUuMzEgICAgIGMwLDEuMDgtMC44NCwxLjczLTEuNzIsMS43M0gxLjc2eiIvPiYjeGE7CQk8L2c+JiN4YTsJCTxnIGlkPSJzaGFwZTMzMDUtNCIgdHJhbnNmb3JtPSJ0cmFuc2xhdGUoMy4wNjA4NCwtMy4wNjM0OCkiPiYjeGE7CQkJPHRpdGxlIGlkPSJ0aXRsZTEzMDQiPlNoZWV0LjMzMDU8L3RpdGxlPiYjeGE7CQkJPHBhdGggaWQ9InBhdGgxMzA2IiBpbmtzY2FwZTpjb25uZWN0b3ItY3VydmF0dXJlPSIwIiBzdHlsZT0iZmlsbDojRkZGRkZGOyIgZD0iTTAsNi4xM1YyOC44aDM2LjczVjYuMTNIMHoiLz4mI3hhOwkJPC9nPiYjeGE7CQk8ZyBpZD0ic2hhcGUzMzA2LTYiIHRyYW5zZm9ybT0idHJhbnNsYXRlKDI2LjMyMzIsLTExLjY0MTIpIj4mI3hhOwkJCTx0aXRsZSBpZD0idGl0bGUxMzA5Ij5TaGVldC4zMzA2PC90aXRsZT4mI3hhOwkJCTxwYXRoIGlkPSJwYXRoMTMxMSIgaW5rc2NhcGU6Y29ubmVjdG9yLWN1cnZhdHVyZT0iMCIgc3R5bGU9ImZpbGw6Izk3QzAzRTsiIGQ9Ik0xLjg0LDI0LjJjMCwzLjY4LDAsMy42OCwwLDMuNjggICAgIGMwLDAuMjMsMCwwLjQ2LTAuMjMsMC42OWMwLDAuMjMtMC4yMywwLjIzLTAuNjksMC4yM0MwLjQ2LDI4LjgsMCwyOC4zNCwwLDI3Ljg4YzAtMy42OCwwLTMuNjgsMC0zLjY4ICAgICBjMC0wLjIzLDAuMjMtMC40NiwwLjQ2LTAuNjljMC0wLjIzLDAuMjMtMC4yMywwLjQ2LTAuMjNDMS42MSwyMy4yOCwxLjg0LDIzLjUxLDEuODQsMjQuMnoiLz4mI3hhOwkJPC9nPiYjeGE7CQk8ZyBpZD0ic2hhcGUzMzA3LTgiIHRyYW5zZm9ybT0idHJhbnNsYXRlKDE3Ljc1MjksLTYuNzM5NjcpIj4mI3hhOwkJCTx0aXRsZSBpZD0idGl0bGUxMzE0Ij5TaGVldC4zMzA3PC90aXRsZT4mI3hhOwkJCTxwYXRoIGlkPSJwYXRoMTMxNiIgaW5rc2NhcGU6Y29ubmVjdG9yLWN1cnZhdHVyZT0iMCIgc3R5bGU9ImZpbGw6Izk3QzAzRTsiIGQ9Ik03Ljk2LDE4LjM4YzAsNi4zNiwwLDYuMzYsMCw2LjM2ICAgICBjMCwwLjY5LDAsMS4xNS0xLjA3LDEuMTVjLTAuNDYsMC0wLjQ2LDAtMC40NiwwYzAsMi4wMywwLDIuMDMsMCwyLjAzYzAsMC40Ni0wLjQ2LDAuODgtMC44OCwwLjg4Yy0wLjQ2LDAtMC44OC0wLjQyLTAuODgtMC44OCAgICAgYzAtMi4wMywwLTIuMDMsMC0yLjAzYy0xLjU3LDAtMS41NywwLTEuNTcsMGMwLDIuMDMsMCwyLjAzLDAsMi4wM2MwLDAuNDYtMC4xOSwwLjg4LTAuODgsMC44OGMtMC40MiwwLTAuODgtMC40Mi0wLjg4LTAuODggICAgIGMwLTIuMDMsMC0yLjAzLDAtMi4wM2MtMC40MiwwLTAuNDIsMC0wLjQyLDBDMCwyNS44OSwwLDI1LjQzLDAsMjQuNzRjMC02LjM2LDAtNi4zNiwwLTYuMzZINy45NnoiLz4mI3hhOwkJPC9nPiYjeGE7CQk8ZyBpZD0ic2hhcGUzMzA4LTEwIiB0cmFuc2Zvcm09InRyYW5zbGF0ZSgxNy43NTI5LC0xNy43NjgyKSI+JiN4YTsJCQk8dGl0bGUgaWQ9InRpdGxlMTMxOSI+U2hlZXQuMzMwODwvdGl0bGU+JiN4YTsJCQk8cGF0aCBpZD0icGF0aDEzMjEiIGlua3NjYXBlOmNvbm5lY3Rvci1jdXJ2YXR1cmU9IjAiIHN0eWxlPSJmaWxsOiNGRkZGRkY7IiBkPSJNNy45NiwyOC44QzAsMjguOCwwLDI4LjgsMCwyOC44ICAgICBjMC0xLDAuNjktMi4wMywxLjk5LTIuNjVjLTAuNjUtMC44LTAuNjUtMC44LTAuNjUtMC44YzAtMC4yMywwLTAuMjMsMC0wLjIzczAsMCwwLjIzLDBjMC42NSwxLjAzLDAuNjUsMS4wMywwLjY1LDEuMDMgICAgIGMwLjQ2LTAuMTksMS4xMS0wLjE5LDEuNzYtMC4xOWMwLjQ2LDAsMS4xMSwwLDEuNTcsMC4xOWMwLjg4LTEuMDMsMC44OC0xLjAzLDAuODgtMS4wM3MwLDAsMC4yMywwYzAsMCwwLDAsMCwwLjIzICAgICBjLTAuODgsMC44LTAuODgsMC44LTAuODgsMC44QzcuMDgsMjYuNzcsNy45NiwyNy44LDcuOTYsMjguOHogTTYuMiwyNy4zOGMwLTAuMTktMC4yMy0wLjQyLTAuNDItMC40MiAgICAgYy0wLjQ2LDAtMC40NiwwLjIzLTAuNDYsMC40MnMwLDAuNDIsMC40NiwwLjQyQzUuOTcsMjcuOCw2LjIsMjcuNTcsNi4yLDI3LjM4eiBNMi42OCwyNy4zOGMwLTAuMTktMC4yMy0wLjQyLTAuNDYtMC40MiAgICAgUzEuOCwyNy4xOSwxLjgsMjcuMzhzMC4xOSwwLjQyLDAuNDIsMC40MlMyLjY4LDI3LjU3LDIuNjgsMjcuMzh6Ii8+JiN4YTsJCTwvZz4mI3hhOwkJPGcgaWQ9InNoYXBlMzMwOS0xMiIgdHJhbnNmb3JtPSJ0cmFuc2xhdGUoMTUuMzA0MiwtMTEuNjQxMikiPiYjeGE7CQkJPHRpdGxlIGlkPSJ0aXRsZTEzMjQiPlNoZWV0LjMzMDk8L3RpdGxlPiYjeGE7CQkJPHBhdGggaWQ9InBhdGgxMzI2IiBpbmtzY2FwZTpjb25uZWN0b3ItY3VydmF0dXJlPSIwIiBzdHlsZT0iZmlsbDojOTdDMDNFOyIgZD0iTTEuODQsMjQuMmMwLDMuNjgsMCwzLjY4LDAsMy42OCAgICAgYzAsMC4yMywwLDAuNDYtMC4yMywwLjY5QzEuMzgsMjguOCwxLjE1LDI4LjgsMC45MiwyOC44QzAuNDYsMjguOCwwLDI4LjM0LDAsMjcuODhjMC0zLjY4LDAtMy42OCwwLTMuNjggICAgIGMwLTAuMjMsMC4yMy0wLjQ2LDAuMjMtMC42OWMwLjIzLTAuMjMsMC40Ni0wLjIzLDAuNjktMC4yM0MxLjM4LDIzLjI4LDEuODQsMjMuNTEsMS44NCwyNC4yeiIvPiYjeGE7CQk8L2c+JiN4YTsJCTxnIGlkPSJzaGFwZTMzMTAtMTQiIHRyYW5zZm9ybT0idHJhbnNsYXRlKDE1LjMwNDIsLTYuMTI2OTcpIj4mI3hhOwkJCTx0aXRsZSBpZD0idGl0bGUxMzI5Ij5TaGVldC4zMzEwPC90aXRsZT4mI3hhOwkJCTxwYXRoIGlkPSJwYXRoMTMzMSIgaW5rc2NhcGU6Y29ubmVjdG9yLWN1cnZhdHVyZT0iMCIgc3R5bGU9ImZpbGw6I0ZGRkZGRjsiIGQ9Ik0xMS45OCwxNy41NGMtMC4yMywwLTAuNjUsMC4yMy0wLjg4LDAuMjMgICAgIGMwLTAuMjMsMC0wLjIzLDAtMC4yM2wwLDBjMC0xLjExLTAuNjUtMi4yMi0xLjczLTMuMWMwLjQyLTAuNDYsMC40Mi0wLjQ2LDAuNDItMC40NmMwLTAuMTksMC4yMy0wLjE5LDAtMC40MiAgICAgYzAtMC4yMywwLTAuNDYtMC4yMi0wLjQ2YzAtMC4yMy0wLjItMC4yMy0wLjQzLTAuMjNjLTAuMjMsMC0wLjQyLDAuMjMtMC40MiwwLjQ2Yy0wLjY1LDAuNjUtMC42NSwwLjY1LTAuNjUsMC42NSAgICAgYy0wLjQ2LTAuMTktMC44OC0wLjE5LTEuMzQtMC4xOWMtMC42NSwwLTEuMDcsMC0xLjQ5LDAuMTljLTAuNDYtMC42NS0wLjQ2LTAuNjUtMC40Ni0wLjY1Yy0wLjE5LTAuMjMtMC40Mi0wLjQ2LTAuNjUtMC40NiAgICAgYzAsMC0wLjE5LDAtMC40MiwwLjIzYzAsMC0wLjIzLDAuMjMtMC4yMywwLjQ2YzAsMC4yMywwLDAuMjMsMC4yMywwLjQyYzAuMjMsMC40NiwwLjIzLDAuNDYsMC4yMywwLjQ2ICAgICBjLTEuMTEsMC44OC0xLjc2LDEuOTktMS43NiwzLjFsMCwwYzAsMC4yMywwLDAuMjMsMCwwLjIzYy0wLjE5LDAtMC40Mi0wLjIzLTAuODQtMC4yM0MwLjQ2LDE3LjU0LDAsMTguMTksMCwxOS4wNyAgICAgYzAsMy41NiwwLDMuNTYsMCwzLjU2YzAsMC44OCwwLjQ2LDEuNTMsMS4zNCwxLjUzYzAuNDIsMCwwLjY1LTAuMjMsMC44NC0wLjQyYzAsMC42NSwwLDAuNjUsMCwwLjY1YzAsMC40MiwwLDEuNTMsMS41MywxLjUzICAgICBjMCwxLjU3LDAsMS41NywwLDEuNTdjMCwwLjY2LDAuNjUsMS4zMSwxLjMsMS4zMWMwLjg4LDAsMS41My0wLjY1LDEuNTMtMS4zMWMwLTEuNTcsMC0xLjU3LDAtMS41N2MwLjQyLDAsMC40MiwwLDAuNDIsMCAgICAgYzAsMS41NywwLDEuNTcsMCwxLjU3YzAsMC42NiwwLjY1LDEuMzEsMS4zLDEuMzFjMC44OCwwLDEuNTMtMC42NSwxLjUzLTEuMzFjMC0xLjU3LDAtMS41NywwLTEuNTdjMS4zMSwwLDEuMzEtMS4xMSwxLjMxLTEuNTMgICAgIGMwLTAuNjUsMC0wLjY1LDAtMC42NWMwLjIzLDAuMTksMC42NSwwLjQyLDAuODgsMC40MmMwLjg0LDAsMS40OS0wLjY1LDEuNDktMS41M2MwLTMuNTYsMC0zLjU2LDAtMy41NiAgICAgQzEzLjQ3LDE4LjE5LDEyLjgyLDE3LjU0LDExLjk4LDE3LjU0eiIvPiYjeGE7CQk8L2c+JiN4YTsJCTxnIGlkPSJzaGFwZTMzMTEtMTYiIHRyYW5zZm9ybT0idHJhbnNsYXRlKDE1LjMwNDIsLTExLjY0MTIpIj4mI3hhOwkJCTx0aXRsZSBpZD0idGl0bGUxMzM0Ij5TaGVldC4zMzExPC90aXRsZT4mI3hhOwkJCTxwYXRoIGlkPSJwYXRoMTMzNiIgaW5rc2NhcGU6Y29ubmVjdG9yLWN1cnZhdHVyZT0iMCIgc3R5bGU9ImZpbGw6IzNGNTc2NTsiIGQ9Ik0xLjg0LDI0LjJjMC0wLjY5LTAuNDYtMC45Mi0wLjkyLTAuOTIgICAgIGMtMC4yMywwLTAuNDYsMC0wLjY5LDAuMjNDMC4yMywyMy43NCwwLDIzLjk3LDAsMjQuMmMwLDMuNjgsMCwzLjY4LDAsMy42OGMwLDAuNDYsMC40NiwwLjkyLDAuOTIsMC45MmMwLjIzLDAsMC40NiwwLDAuNjktMC4yMyAgICAgczAuMjMtMC40NiwwLjIzLTAuNjlWMjQuMnoiLz4mI3hhOwkJPC9nPiYjeGE7CQk8ZyBpZD0ic2hhcGUzMzEyLTE4IiB0cmFuc2Zvcm09InRyYW5zbGF0ZSgxNy43NTI5LC02LjczOTY3KSI+JiN4YTsJCQk8dGl0bGUgaWQ9InRpdGxlMTMzOSI+U2hlZXQuMzMxMjwvdGl0bGU+JiN4YTsJCQk8cGF0aCBpZD0icGF0aDEzNDEiIGlua3NjYXBlOmNvbm5lY3Rvci1jdXJ2YXR1cmU9IjAiIHN0eWxlPSJmaWxsOiMzRjU3NjU7IiBkPSJNMCwxOC4zOGMwLDYuMzYsMCw2LjM2LDAsNi4zNiAgICAgYzAsMC42OSwwLDEuMTUsMC45MiwxLjE1YzAuNDIsMCwwLjQyLDAsMC40MiwwYzAsMi4wMywwLDIuMDMsMCwyLjAzYzAsMC40NiwwLjQ2LDAuODgsMC44OCwwLjg4YzAuNjksMCwwLjg4LTAuNDIsMC44OC0wLjg4ICAgICBjMC0yLjAzLDAtMi4wMywwLTIuMDNjMS41NywwLDEuNTcsMCwxLjU3LDBjMCwyLjAzLDAsMi4wMywwLDIuMDNjMCwwLjQ2LDAuNDIsMC44OCwwLjg4LDAuODhjMC40MiwwLDAuODgtMC40MiwwLjg4LTAuODggICAgIGMwLTIuMDMsMC0yLjAzLDAtMi4wM2MwLjQ2LDAsMC40NiwwLDAuNDYsMGMxLjA3LDAsMS4wNy0wLjQ2LDEuMDctMS4xNWMwLTYuMzYsMC02LjM2LDAtNi4zNkgweiIvPiYjeGE7CQk8L2c+JiN4YTsJCTxnIGlkPSJzaGFwZTMzMTMtMjAiIHRyYW5zZm9ybT0idHJhbnNsYXRlKDE3Ljc1MjksLTE3Ljc2ODIpIj4mI3hhOwkJCTx0aXRsZSBpZD0idGl0bGUxMzQ0Ij5TaGVldC4zMzEzPC90aXRsZT4mI3hhOwkJCTxwYXRoIGlkPSJwYXRoMTM0NiIgaW5rc2NhcGU6Y29ubmVjdG9yLWN1cnZhdHVyZT0iMCIgc3R5bGU9ImZpbGw6IzNGNTc2NTsiIGQ9Ik01Ljc4LDI2LjE1YzAuODgtMC44LDAuODgtMC44LDAuODgtMC44ICAgICBjMC0wLjIzLDAtMC4yMywwLTAuMjNjLTAuMjMsMC0wLjIzLDAtMC4yMywwYy0wLjg4LDEuMDMtMC44OCwxLjAzLTAuODgsMS4wM2MtMC40Ni0wLjE5LTEuMTEtMC4xOS0xLjU3LTAuMTkgICAgIGMtMC42NSwwLTEuMywwLTEuNzYsMC4xOWMtMC42NS0xLjAzLTAuNjUtMS4wMy0wLjY1LTEuMDNjLTAuMjMsMC0wLjIzLDAtMC4yMywwczAsMCwwLDAuMjNjMC42NSwwLjgsMC42NSwwLjgsMC42NSwwLjggICAgIEMwLjY5LDI2Ljc3LDAsMjcuOCwwLDI4LjhjNy45NiwwLDcuOTYsMCw3Ljk2LDBDNy45NiwyNy44LDcuMDgsMjYuNzcsNS43OCwyNi4xNXoiLz4mI3hhOwkJPC9nPiYjeGE7CQk8ZyBpZD0ic2hhcGUzMzE0LTIyIiB0cmFuc2Zvcm09InRyYW5zbGF0ZSgyNi4zMjMyLC0xMS42NDEyKSI+JiN4YTsJCQk8dGl0bGUgaWQ9InRpdGxlMTM0OSI+U2hlZXQuMzMxNDwvdGl0bGU+JiN4YTsJCQk8cGF0aCBpZD0icGF0aDEzNTEiIGlua3NjYXBlOmNvbm5lY3Rvci1jdXJ2YXR1cmU9IjAiIHN0eWxlPSJmaWxsOiMzRjU3NjU7IiBkPSJNMS44NCwyNC4yYzAtMC42OS0wLjIzLTAuOTItMC45Mi0wLjkyICAgICBjLTAuMjMsMC0wLjQ2LDAtMC40NiwwLjIzQzAuMjMsMjMuNzQsMCwyMy45NywwLDI0LjJjMCwzLjY4LDAsMy42OCwwLDMuNjhjMCwwLjQ2LDAuNDYsMC45MiwwLjkyLDAuOTJzMC42OSwwLDAuNjktMC4yMyAgICAgYzAuMjMtMC4yMywwLjIzLTAuNDYsMC4yMy0wLjY5VjI0LjJ6Ii8+JiN4YTsJCTwvZz4mI3hhOwkJPGcgaWQ9InNoYXBlMzMxNS0yNCIgdHJhbnNmb3JtPSJ0cmFuc2xhdGUoMTkuNTg5NCwtMTguOTkzNikiPiYjeGE7CQkJPHRpdGxlIGlkPSJ0aXRsZTEzNTQiPlNoZWV0LjMzMTU8L3RpdGxlPiYjeGE7CQkJPHBhdGggaWQ9InBhdGgxMzU2IiBpbmtzY2FwZTpjb25uZWN0b3ItY3VydmF0dXJlPSIwIiBzdHlsZT0iZmlsbDojRkZGRkZGOyIgZD0iTTAsMjguNDljMC0wLjE1LDAuMzEtMC4zMSwwLjYxLTAuMzEgICAgIGMwLjM1LDAsMC42MSwwLjE2LDAuNjEsMC4zMWMwLDAuMTktMC4yNiwwLjMxLTAuNjEsMC4zMUMwLjMxLDI4LjgsMCwyOC42OCwwLDI4LjQ5eiIvPiYjeGE7CQk8L2c+JiN4YTsJCTxnIGlkPSJzaGFwZTMzMTYtMjYiIHRyYW5zZm9ybT0idHJhbnNsYXRlKDIzLjI2MjQsLTE4Ljk5MzYpIj4mI3hhOwkJCTx0aXRsZSBpZD0idGl0bGUxMzU5Ij5TaGVldC4zMzE2PC90aXRsZT4mI3hhOwkJCTxwYXRoIGlkPSJwYXRoMTM2MSIgaW5rc2NhcGU6Y29ubmVjdG9yLWN1cnZhdHVyZT0iMCIgc3R5bGU9ImZpbGw6I0ZGRkZGRjsiIGQ9Ik0wLDI4LjQ5YzAtMC4xNSwwLjE1LTAuMzEsMC4zMS0wLjMxICAgICBjMC4xOSwwLDAuMywwLjE2LDAuMywwLjMxYzAsMC4xOS0wLjExLDAuMzEtMC4zLDAuMzFDMC4xNSwyOC44LDAsMjguNjgsMCwyOC40OXoiLz4mI3hhOwkJPC9nPiYjeGE7CTwvZz4mI3hhOzwvZz4mI3hhOzwvc3ZnPg==;" vertex="1" parent="1">
          <mxGeometry x="67" y="520" width="43" height="29" as="geometry" />
        </mxCell>
        <mxCell id="xkKd55qxpHbyt4-YmWr0-36" value="" style="rounded=1;whiteSpace=wrap;html=1;" vertex="1" parent="1">
          <mxGeometry x="202.5" y="460" width="600" height="370" as="geometry" />
        </mxCell>
        <mxCell id="xkKd55qxpHbyt4-YmWr0-46" value="" style="image;sketch=0;aspect=fixed;html=1;points=[];align=center;fontSize=12;image=img/lib/mscae/CustomDomain.svg;" vertex="1" parent="1">
          <mxGeometry x="288.62999999999994" y="470" width="77.15" height="64.8" as="geometry" />
        </mxCell>
        <mxCell id="xkKd55qxpHbyt4-YmWr0-47" value="" style="image;sketch=0;aspect=fixed;html=1;points=[];align=center;fontSize=12;image=img/lib/mscae/Kubernetes.svg;opacity=10;" vertex="1" parent="1">
          <mxGeometry x="336.87" y="489.90999999999997" width="323.13" height="310.19" as="geometry" />
        </mxCell>
        <mxCell id="xkKd55qxpHbyt4-YmWr0-48" value="" style="shape=image;verticalLabelPosition=bottom;labelBackgroundColor=#ffffff;verticalAlign=top;aspect=fixed;imageAspect=0;image=data:image/svg+xml,PHN2ZyB4bWxuczpjYz0iaHR0cDovL2NyZWF0aXZlY29tbW9ucy5vcmcvbnMjIiB4bWxuczpkYz0iaHR0cDovL3B1cmwub3JnL2RjL2VsZW1lbnRzLzEuMS8iIHhtbG5zOmlua3NjYXBlPSJodHRwOi8vd3d3Lmlua3NjYXBlLm9yZy9uYW1lc3BhY2VzL2lua3NjYXBlIiB4bWxuczpyZGY9Imh0dHA6Ly93d3cudzMub3JnLzE5OTkvMDIvMjItcmRmLXN5bnRheC1ucyMiIHhtbG5zOnNvZGlwb2RpPSJodHRwOi8vc29kaXBvZGkuc291cmNlZm9yZ2UubmV0L0RURC9zb2RpcG9kaS0wLmR0ZCIgeG1sbnM6c3ZnPSJodHRwOi8vd3d3LnczLm9yZy8yMDAwL3N2ZyIgeG1sbnM9Imh0dHA6Ly93d3cudzMub3JnLzIwMDAvc3ZnIiB4bWxuczp4bGluaz0iaHR0cDovL3d3dy53My5vcmcvMTk5OS94bGluayIgdmVyc2lvbj0iMS4xIiBpZD0ic3ZnMTAyMTA3IiBpbmtzY2FwZTp2ZXJzaW9uPSIwLjkyLjMgKDI0MDU1NDYsIDIwMTgtMDMtMTEpIiBzb2RpcG9kaTpkb2NuYW1lPSJteXNxbF8yLnN2ZyIgeD0iMHB4IiB5PSIwcHgiIHZpZXdCb3g9IjAgMCA1Mi44OCA2MC4wNyIgc3R5bGU9ImVuYWJsZS1iYWNrZ3JvdW5kOm5ldyAwIDAgNTIuODggNjAuMDc7IiB4bWw6c3BhY2U9InByZXNlcnZlIj4mI3hhOzxmaWx0ZXIgaWQ9ImZpbHRlcl8yIj4mI3hhOwk8ZmVHYXVzc2lhbkJsdXIgaWQ9ImZlR2F1c3NpYW5CbHVyMTAyMDc1IiBzdGREZXZpYXRpb249IjIiLz4mI3hhOzwvZmlsdGVyPiYjeGE7PHNvZGlwb2RpOm5hbWVkdmlldyBib3JkZXJjb2xvcj0iIzY2NjY2NiIgYm9yZGVyb3BhY2l0eT0iMSIgZml0LW1hcmdpbi1ib3R0b209IjAiIGZpdC1tYXJnaW4tbGVmdD0iMCIgZml0LW1hcmdpbi1yaWdodD0iMCIgZml0LW1hcmdpbi10b3A9IjAiIGdyaWR0b2xlcmFuY2U9IjEwIiBndWlkZXRvbGVyYW5jZT0iMTAiIGlkPSJuYW1lZHZpZXcxMDIxMDkiIGlua3NjYXBlOmN1cnJlbnQtbGF5ZXI9InN2ZzEwMjEwNyIgaW5rc2NhcGU6Y3g9IjM1LjI1IiBpbmtzY2FwZTpjeT0iNDAuMDQ1MjAxIiBpbmtzY2FwZTpwYWdlb3BhY2l0eT0iMCIgaW5rc2NhcGU6cGFnZXNoYWRvdz0iMiIgaW5rc2NhcGU6d2luZG93LWhlaWdodD0iMTAxNyIgaW5rc2NhcGU6d2luZG93LW1heGltaXplZD0iMSIgaW5rc2NhcGU6d2luZG93LXdpZHRoPSIxOTIwIiBpbmtzY2FwZTp3aW5kb3cteD0iLTgiIGlua3NjYXBlOndpbmRvdy15PSItOCIgaW5rc2NhcGU6em9vbT0iMTAuODI0NDc2IiBvYmplY3R0b2xlcmFuY2U9IjEwIiBwYWdlY29sb3I9IiNmZmZmZmYiIHNob3dncmlkPSJmYWxzZSI+JiN4YTsJPC9zb2RpcG9kaTpuYW1lZHZpZXc+JiN4YTs8ZyBpZD0iZzEwMjEwNSI+JiN4YTsJPHRpdGxlIGlkPSJ0aXRsZTEwMjA3OSI+UGFnZS0xPC90aXRsZT4mI3hhOwk8ZyBpZD0iZ3JvdXAzNjM3LTEiPiYjeGE7CQk8dGl0bGUgaWQ9InRpdGxlMTAyMDgxIj5NeVNRTCAjMjwvdGl0bGU+JiN4YTsJCTxnIGlkPSJzaGFwZTM2MzgtMiI+JiN4YTsJCQk8dGl0bGUgaWQ9InRpdGxlMTAyMDgzIj5EYXRhYmFzZSAjMjwvdGl0bGU+JiN4YTsJCQk8cGF0aCBpZD0icGF0aDEwMjA4NSIgaW5rc2NhcGU6Y29ubmVjdG9yLWN1cnZhdHVyZT0iMCIgc3R5bGU9ImZpbGw6IzNGNTc2NTsiIGQ9Ik0yNi43MSwwYzE0LjY0LDAsMjYuMTcsMy45MywyNi4xNyw4LjMxICAgICBjMCw0My41NCwwLDQzLjU0LDAsNDMuNTRjMCw0LjgzLTExLjUzLDguMjItMjYuMTcsOC4yMkMxMi4xNSw2MC4wNywwLDU2LjY4LDAsNTEuODVDMCw4LjMxLDAsOC4zMSwwLDguMzEgICAgIEMwLDMuOTMsMTIuMTUsMCwyNi43MSwweiBNMjYuNzEsMTQuMjFjMTIuNTksMCwyMi42OC0yLjk1LDIyLjY4LTUuOWMwLTIuODYtMTAuMDktNS4zNi0yMi42OC01LjM2Yy0xMi42LDAtMjIuNiwyLjUtMjIuNiw1LjM2ICAgICBDNC4xMSwxMS4yNiwxNC4xMSwxNC4yMSwyNi43MSwxNC4yMXoiLz4mI3hhOwkJPC9nPiYjeGE7CQk8ZyBpZD0ic2hhcGUzNjM5LTQiIHRyYW5zZm9ybT0idHJhbnNsYXRlKDEwLjU4OTIsLTcuMjMwNDkpIj4mI3hhOwkJCTx0aXRsZSBpZD0idGl0bGUxMDIwODgiPlNoZWV0LjM2Mzk8L3RpdGxlPiYjeGE7CQkJPGcgaWQ9InNoYWRvdzM2MzktNSIgdHJhbnNmb3JtPSJ0cmFuc2xhdGUoMC4zNDU2LDEuOTcyOCkiPiYjeGE7CQkJCTxnIGlkPSJwYXRoMTAyMDkwIiBpbmtzY2FwZTpjb25uZWN0b3ItY3VydmF0dXJlPSIwIiBzdHlsZT0iZmlsdGVyOnVybCgjZmlsdGVyXzIpOyI+JiN4YTsJCQkJCTxwYXRoIHN0eWxlPSJvcGFjaXR5OjAuMjI7ZmlsbDojNUI5QkQ1OyIgZD0iTTMyLjY3LDUyLjMyYy0xLjkxLTAuMDUtMy4zNiwwLjEzLTQuNjEsMC42NWMtMC4zNSwwLjE1LTAuOTIsMC4xNS0wLjk3LDAuNiAgICAgICBjMC4xOSwwLjIsMC4yMiwwLjUxLDAuMzgsMC43NmMwLjI5LDAuNDgsMC43OSwxLjEyLDEuMjQsMS40NmMwLjQ5LDAuMzcsMSwwLjc2LDEuNTIsMS4wOGMwLjkzLDAuNTcsMS45NywwLjksMi44NywxLjQ3ICAgICAgIGMwLjUzLDAuMzMsMS4wNiwwLjc2LDEuNTcsMS4xNGMwLjI2LDAuMTgsMC40MywwLjQ3LDAuNzYsMC41OWMwLTAuMDIsMC0wLjAzLDAtMC4wNWMtMC4xNy0wLjIyLTAuMjItMC41My0wLjM4LTAuNzYgICAgICAgYy0wLjIzLTAuMjQtMC40Ny0wLjQ3LTAuNy0wLjcxYy0wLjY5LTAuOTEtMS41Ni0xLjcxLTIuNDktMi4zOGMtMC43NS0wLjUzLTIuNC0xLjI1LTIuNzEtMi4xMWMtMC4wMi0wLjAyLTAuMDQtMC4wNC0wLjA2LTAuMDYgICAgICAgYzAuNTMtMC4wNiwxLjE0LTAuMjUsMS42My0wLjM4YzAuODEtMC4yMiwxLjU0LTAuMTYsMi4zOC0wLjM4YzAuMzgtMC4xMSwwLjc2LTAuMjEsMS4xNC0wLjMyYzAtMC4wNywwLTAuMTUsMC0wLjIyICAgICAgIGMtMC40Mi0wLjQ0LTAuNzMtMS4wMS0xLjE5LTEuNDFjLTEuMjItMS4wMy0yLjU0LTIuMDYtMy45LTIuOTNjLTAuNzYtMC40Ny0xLjctMC43OC0yLjUtMS4xOWMtMC4yNy0wLjEzLTAuNzQtMC4yLTAuOTItMC40MyAgICAgICBjLTAuNDItMC41NC0wLjY1LTEuMjItMC45Ny0xLjg0Yy0wLjY4LTEuMzEtMS4zNS0yLjc1LTEuOTYtNC4xMmMtMC40MS0wLjk0LTAuNjgtMS44Ny0xLjE5LTIuNzEgICAgICAgYy0yLjQ2LTQuMDUtNS4xMS02LjQ5LTkuMjEtOC44OWMtMC44OC0wLjUxLTEuOTMtMC43Mi0zLjA0LTAuOThjLTAuNTktMC4wNC0xLjE5LTAuMDctMS43OS0wLjExICAgICAgIGMtMC4zNi0wLjE1LTAuNzQtMC42LTEuMDgtMC44MWMtMS4zNi0wLjg2LTQuODUtMi43My01Ljg1LTAuMjdDMCwyOC41NiwxLjU5LDMwLjA3LDIuMTUsMzAuODZjMC40LDAuNTUsMC45MSwxLjE3LDEuMiwxLjc5ICAgICAgIGMwLjE4LDAuNCwwLjIyLDAuODEsMC4zOCwxLjI0YzAuMzksMS4wNiwwLjczLDIuMjIsMS4yNCwzLjJjMC4yNiwwLjUsMC41NCwxLjAyLDAuODcsMS40NmMwLjIsMC4yOCwwLjU0LDAuNCwwLjYsMC44MiAgICAgICBjLTAuMzQsMC40Ni0wLjM2LDEuMTktMC41NSwxLjc5Yy0wLjg0LDIuNjctMC41Miw1Ljk5LDAuNzEsNy45NmMwLjM4LDAuNjEsMS4yNywxLjkxLDIuNDksMS40MWMxLjA3LTAuNDMsMC44My0xLjc5LDEuMTQtMi45OCAgICAgICBjMC4wNy0wLjI3LDAuMDMtMC40NywwLjE2LTAuNjVjMCwwLjAyLDAsMC4wNCwwLDAuMDZjMC4zMywwLjY1LDAuNjUsMS4zLDAuOTgsMS45NWMwLjcyLDEuMTYsMiwyLjM3LDMuMDksMy4xOSAgICAgICBjMC41NiwwLjQzLDEsMS4xNywxLjczLDEuNDFjMC0wLjAxLDAtMC4wMywwLTAuMDVjLTAuMDIsMC0wLjAzLDAtMC4wNSwwYy0wLjE0LTAuMjItMC4zNi0wLjMxLTAuNTQtMC40OSAgICAgICBjLTAuNDMtMC40MS0wLjktMC45My0xLjI1LTEuNDFjLTAuOTktMS4zNC0xLjg2LTIuODEtMi42Ni00LjMzYy0wLjM4LTAuNzMtMC43MS0xLjU0LTEuMDMtMi4yOCAgICAgICBjLTAuMTItMC4yOS0wLjEyLTAuNzItMC4zOC0wLjg3Yy0wLjM1LDAuNTUtMC44NiwwLjk5LTEuMTMsMS42M2MtMC40NCwxLjAzLTAuNDksMi4yOC0wLjY1LDMuNTggICAgICAgYy0wLjEsMC4wMy0wLjA2LDAuMDEtMC4xMSwwLjA1Yy0wLjc2LTAuMTgtMS4wMi0wLjk2LTEuMy0xLjYzYy0wLjcxLTEuNjgtMC44NS00LjQtMC4yMi02LjM0YzAuMTYtMC41LDAuODktMi4wOCwwLjU5LTIuNTUgICAgICAgYy0wLjE0LTAuNDYtMC42LTAuNzMtMC44Ni0xLjA4Yy0wLjMyLTAuNDQtMC42NS0xLjAxLTAuODctMS41MmMtMC41OC0xLjMxLTAuODUtMi43OS0xLjQ2LTQuMTJjLTAuMy0wLjYzLTAuNzktMS4yNy0xLjItMS44NCAgICAgICBjLTAuNDQtMC42My0wLjk1LTEuMDktMS4zLTEuODRjLTAuMTItMC4yNy0wLjI5LTAuNy0wLjEtMC45OGMwLjA1LTAuMTgsMC4xNC0wLjI2LDAuMzItMC4zMmMwLjMyLTAuMjUsMS4xOSwwLjA4LDEuNTIsMC4yMSAgICAgICBjMC44NywwLjM2LDEuNTksMC43MSwyLjMzLDEuMmMwLjM1LDAuMjMsMC43MSwwLjY4LDEuMTQsMC44MWMwLjE2LDAsMC4zMiwwLDAuNDgsMGMwLjc3LDAuMTcsMS42MiwwLjA1LDIuMzQsMC4yNyAgICAgICBjMS4yNiwwLjM4LDIuMzgsMC45OCwzLjQxLDEuNjNjMy4xMiwxLjk3LDUuNjgsNC43OCw3LjQzLDguMTNjMC4yOCwwLjU0LDAuNCwxLjA1LDAuNjUsMS42MmMwLjUsMS4xNiwxLjEzLDIuMzQsMS42MiwzLjQ3ICAgICAgIGMwLjUsMS4xMywwLjk4LDIuMjYsMS42OCwzLjJjMC4zNywwLjQ5LDEuOCwwLjc2LDIuNDQsMS4wM2MwLjQ2LDAuMTksMS4yLDAuMzksMS42MywwLjY1YzAuODIsMC40OSwxLjYxLDEuMDgsMi4zOCwxLjYzICAgICAgIEMzMS40Myw1MS4yNCwzMi42MSw1MS44MywzMi42Nyw1Mi4zMnoiLz4mI3hhOwkJCQk8L2c+JiN4YTsJCQk8L2c+JiN4YTsJCQk8cGF0aCBpZD0icGF0aDEwMjA5MyIgaW5rc2NhcGU6Y29ubmVjdG9yLWN1cnZhdHVyZT0iMCIgc3R5bGU9ImZpbGw6I0ZGRkZGRjsiIGQ9Ik0zMi42Nyw1Mi4zMmMtMS45MS0wLjA1LTMuMzYsMC4xMy00LjYxLDAuNjUgICAgIGMtMC4zNSwwLjE1LTAuOTIsMC4xNS0wLjk3LDAuNmMwLjE5LDAuMiwwLjIyLDAuNTEsMC4zOCwwLjc2YzAuMjksMC40OCwwLjc5LDEuMTIsMS4yNCwxLjQ2YzAuNDksMC4zNywxLDAuNzYsMS41MiwxLjA4ICAgICBjMC45MywwLjU3LDEuOTcsMC45LDIuODcsMS40N2MwLjUzLDAuMzMsMS4wNiwwLjc2LDEuNTcsMS4xNGMwLjI2LDAuMTgsMC40MywwLjQ3LDAuNzYsMC41OWMwLTAuMDIsMC0wLjAzLDAtMC4wNSAgICAgYy0wLjE3LTAuMjItMC4yMi0wLjUzLTAuMzgtMC43NmMtMC4yMy0wLjI0LTAuNDctMC40Ny0wLjctMC43MWMtMC42OS0wLjkxLTEuNTYtMS43MS0yLjQ5LTIuMzhjLTAuNzUtMC41My0yLjQtMS4yNS0yLjcxLTIuMTEgICAgIGMtMC4wMi0wLjAyLTAuMDQtMC4wNC0wLjA2LTAuMDZjMC41My0wLjA2LDEuMTQtMC4yNSwxLjYzLTAuMzhjMC44MS0wLjIyLDEuNTQtMC4xNiwyLjM4LTAuMzhjMC4zOC0wLjExLDAuNzYtMC4yMSwxLjE0LTAuMzIgICAgIGMwLTAuMDcsMC0wLjE1LDAtMC4yMmMtMC40Mi0wLjQ0LTAuNzMtMS4wMS0xLjE5LTEuNDFjLTEuMjItMS4wMy0yLjU0LTIuMDYtMy45LTIuOTNjLTAuNzYtMC40Ny0xLjctMC43OC0yLjUtMS4xOSAgICAgYy0wLjI3LTAuMTMtMC43NC0wLjItMC45Mi0wLjQzYy0wLjQyLTAuNTQtMC42NS0xLjIyLTAuOTctMS44NGMtMC42OC0xLjMxLTEuMzUtMi43NS0xLjk2LTQuMTJjLTAuNDEtMC45NC0wLjY4LTEuODctMS4xOS0yLjcxICAgICBjLTIuNDYtNC4wNS01LjExLTYuNDktOS4yMS04Ljg5Yy0wLjg4LTAuNTEtMS45My0wLjcyLTMuMDQtMC45OGMtMC41OS0wLjA0LTEuMTktMC4wNy0xLjc5LTAuMTFjLTAuMzYtMC4xNS0wLjc0LTAuNi0xLjA4LTAuODEgICAgIGMtMS4zNi0wLjg2LTQuODUtMi43My01Ljg1LTAuMjdDMCwyOC41NiwxLjU5LDMwLjA3LDIuMTUsMzAuODZjMC40LDAuNTUsMC45MSwxLjE3LDEuMiwxLjc5YzAuMTgsMC40LDAuMjIsMC44MSwwLjM4LDEuMjQgICAgIGMwLjM5LDEuMDYsMC43MywyLjIyLDEuMjQsMy4yYzAuMjYsMC41LDAuNTQsMS4wMiwwLjg3LDEuNDZjMC4yLDAuMjgsMC41NCwwLjQsMC42LDAuODJjLTAuMzQsMC40Ni0wLjM2LDEuMTktMC41NSwxLjc5ICAgICBjLTAuODQsMi42Ny0wLjUyLDUuOTksMC43MSw3Ljk2YzAuMzgsMC42MSwxLjI3LDEuOTEsMi40OSwxLjQxYzEuMDctMC40MywwLjgzLTEuNzksMS4xNC0yLjk4YzAuMDctMC4yNywwLjAzLTAuNDcsMC4xNi0wLjY1ICAgICBjMCwwLjAyLDAsMC4wNCwwLDAuMDZjMC4zMywwLjY1LDAuNjUsMS4zLDAuOTgsMS45NWMwLjcyLDEuMTYsMiwyLjM3LDMuMDksMy4xOWMwLjU2LDAuNDMsMSwxLjE3LDEuNzMsMS40MSAgICAgYzAtMC4wMSwwLTAuMDMsMC0wLjA1Yy0wLjAyLDAtMC4wMywwLTAuMDUsMGMtMC4xNC0wLjIyLTAuMzYtMC4zMS0wLjU0LTAuNDljLTAuNDMtMC40MS0wLjktMC45My0xLjI1LTEuNDEgICAgIGMtMC45OS0xLjM0LTEuODYtMi44MS0yLjY2LTQuMzNjLTAuMzgtMC43My0wLjcxLTEuNTQtMS4wMy0yLjI4Yy0wLjEyLTAuMjktMC4xMi0wLjcyLTAuMzgtMC44N2MtMC4zNSwwLjU1LTAuODYsMC45OS0xLjEzLDEuNjMgICAgIGMtMC40NCwxLjAzLTAuNDksMi4yOC0wLjY1LDMuNThjLTAuMSwwLjAzLTAuMDYsMC4wMS0wLjExLDAuMDVjLTAuNzYtMC4xOC0xLjAyLTAuOTYtMS4zLTEuNjNjLTAuNzEtMS42OC0wLjg1LTQuNC0wLjIyLTYuMzQgICAgIGMwLjE2LTAuNSwwLjg5LTIuMDgsMC41OS0yLjU1Yy0wLjE0LTAuNDYtMC42LTAuNzMtMC44Ni0xLjA4Yy0wLjMyLTAuNDQtMC42NS0xLjAxLTAuODctMS41MmMtMC41OC0xLjMxLTAuODUtMi43OS0xLjQ2LTQuMTIgICAgIGMtMC4zLTAuNjMtMC43OS0xLjI3LTEuMi0xLjg0Yy0wLjQ0LTAuNjMtMC45NS0xLjA5LTEuMy0xLjg0Yy0wLjEyLTAuMjctMC4yOS0wLjctMC4xLTAuOThjMC4wNS0wLjE4LDAuMTQtMC4yNiwwLjMyLTAuMzIgICAgIGMwLjMyLTAuMjUsMS4xOSwwLjA4LDEuNTIsMC4yMWMwLjg3LDAuMzYsMS41OSwwLjcxLDIuMzMsMS4yYzAuMzUsMC4yMywwLjcxLDAuNjgsMS4xNCwwLjgxYzAuMTYsMCwwLjMyLDAsMC40OCwwICAgICBjMC43NywwLjE3LDEuNjIsMC4wNSwyLjM0LDAuMjdjMS4yNiwwLjM4LDIuMzgsMC45OCwzLjQxLDEuNjNjMy4xMiwxLjk3LDUuNjgsNC43OCw3LjQzLDguMTNjMC4yOCwwLjU0LDAuNCwxLjA1LDAuNjUsMS42MiAgICAgYzAuNSwxLjE2LDEuMTMsMi4zNCwxLjYyLDMuNDdjMC41LDEuMTMsMC45OCwyLjI2LDEuNjgsMy4yYzAuMzcsMC40OSwxLjgsMC43NiwyLjQ0LDEuMDNjMC40NiwwLjE5LDEuMiwwLjM5LDEuNjMsMC42NSAgICAgYzAuODIsMC40OSwxLjYxLDEuMDgsMi4zOCwxLjYzQzMxLjQzLDUxLjI0LDMyLjYxLDUxLjgzLDMyLjY3LDUyLjMyeiIvPiYjeGE7CQk8L2c+JiN4YTsJCTxnIGlkPSJzaGFwZTM2NDAtOSIgdHJhbnNmb3JtPSJ0cmFuc2xhdGUoMTguMDU0MiwtMzMuMzU2NSkiPiYjeGE7CQkJPHRpdGxlIGlkPSJ0aXRsZTEwMjA5NiI+U2hlZXQuMzY0MDwvdGl0bGU+JiN4YTsJCQk8ZyBpZD0ic2hhZG93MzY0MC0xMCIgdHJhbnNmb3JtPSJ0cmFuc2xhdGUoMC4zNDU2LDEuOTcyOCkiPiYjeGE7CQkJCTxnIGlkPSJwYXRoMTAyMDk4IiBpbmtzY2FwZTpjb25uZWN0b3ItY3VydmF0dXJlPSIwIiBzdHlsZT0iZmlsdGVyOnVybCgjZmlsdGVyXzIpOyI+JiN4YTsJCQkJCTxwYXRoIHN0eWxlPSJvcGFjaXR5OjAuMjI7ZmlsbDojNUI5QkQ1OyIgZD0iTTAuOTgsNTcuOEMwLjU4LDU3Ljc5LDAuMyw1Ny44NCwwLDU3LjljMCwwLjAyLDAsMC4wNCwwLDAuMDYgICAgICAgYzAuMDIsMCwwLjA0LDAsMC4wNSwwYzAuMTksMC4zOSwwLjUzLDAuNjQsMC43NiwwLjk3YzAuMTgsMC4zOCwwLjM2LDAuNzYsMC41NSwxLjE0YzAuMDEtMC4wMiwwLjAzLTAuMDMsMC4wNS0wLjA1ICAgICAgIGMwLjMzLTAuMjQsMC40OS0wLjYyLDAuNDktMS4xOWMtMC4xNC0wLjE1LTAuMTYtMC4zMi0wLjI3LTAuNDlDMS40Nyw1OC4xMSwxLjE3LDU3Ljk4LDAuOTgsNTcuOHoiLz4mI3hhOwkJCQk8L2c+JiN4YTsJCQk8L2c+JiN4YTsJCQk8cGF0aCBpZD0icGF0aDEwMjEwMSIgaW5rc2NhcGU6Y29ubmVjdG9yLWN1cnZhdHVyZT0iMCIgc3R5bGU9ImZpbGw6I0ZGRkZGRjsiIGQ9Ik0wLjk4LDU3LjhDMC41OCw1Ny43OSwwLjMsNTcuODQsMCw1Ny45ICAgICBjMCwwLjAyLDAsMC4wNCwwLDAuMDZjMC4wMiwwLDAuMDQsMCwwLjA1LDBjMC4xOSwwLjM5LDAuNTMsMC42NCwwLjc2LDAuOTdjMC4xOCwwLjM4LDAuMzYsMC43NiwwLjU1LDEuMTQgICAgIGMwLjAxLTAuMDIsMC4wMy0wLjAzLDAuMDUtMC4wNWMwLjMzLTAuMjQsMC40OS0wLjYyLDAuNDktMS4xOWMtMC4xNC0wLjE1LTAuMTYtMC4zMi0wLjI3LTAuNDlDMS40Nyw1OC4xMSwxLjE3LDU3Ljk4LDAuOTgsNTcuOHogICAgICIvPiYjeGE7CQk8L2c+JiN4YTsJPC9nPiYjeGE7PC9nPiYjeGE7PC9zdmc+;" vertex="1" parent="1">
          <mxGeometry x="660" y="570" width="132.5" height="150" as="geometry" />
        </mxCell>
        <mxCell id="xkKd55qxpHbyt4-YmWr0-49" value="" style="shape=image;verticalLabelPosition=bottom;labelBackgroundColor=#ffffff;verticalAlign=top;aspect=fixed;imageAspect=0;image=data:image/svg+xml,PHN2ZyB4bWxuczpkYz0iaHR0cDovL3B1cmwub3JnL2RjL2VsZW1lbnRzLzEuMS8iIHhtbG5zOmNjPSJodHRwOi8vY3JlYXRpdmVjb21tb25zLm9yZy9ucyMiIHhtbG5zOnJkZj0iaHR0cDovL3d3dy53My5vcmcvMTk5OS8wMi8yMi1yZGYtc3ludGF4LW5zIyIgeG1sbnM6c3ZnPSJodHRwOi8vd3d3LnczLm9yZy8yMDAwL3N2ZyIgeG1sbnM9Imh0dHA6Ly93d3cudzMub3JnLzIwMDAvc3ZnIiB4bWxuczpzb2RpcG9kaT0iaHR0cDovL3NvZGlwb2RpLnNvdXJjZWZvcmdlLm5ldC9EVEQvc29kaXBvZGktMC5kdGQiIHhtbG5zOmlua3NjYXBlPSJodHRwOi8vd3d3Lmlua3NjYXBlLm9yZy9uYW1lc3BhY2VzL2lua3NjYXBlIiB2ZXJzaW9uPSIxLjEiIGlkPSJzdmc2ODY3MiIgaW5rc2NhcGU6dmVyc2lvbj0iMC45Mi4zICgyNDA1NTQ2LCAyMDE4LTAzLTExKSIgc29kaXBvZGk6ZG9jbmFtZT0iY2xvdWRfc2VydmljZXMuc3ZnIiB4PSIwcHgiIHk9IjBweCIgdmlld0JveD0iMCAwIDU3LjY1IDQ4LjkyIiB4bWw6c3BhY2U9InByZXNlcnZlIiB3aWR0aD0iNTcuNjUwMDAyIiBoZWlnaHQ9IjQ4LjkxOTk5OCI+PG1ldGFkYXRhIGlkPSJtZXRhZGF0YTIxMzk4Ij48cmRmOlJERj48Y2M6V29yayByZGY6YWJvdXQ9IiI+PGRjOmZvcm1hdD5pbWFnZS9zdmcreG1sPC9kYzpmb3JtYXQ+PGRjOnR5cGUgcmRmOnJlc291cmNlPSJodHRwOi8vcHVybC5vcmcvZGMvZGNtaXR5cGUvU3RpbGxJbWFnZSIvPjxkYzp0aXRsZS8+PC9jYzpXb3JrPjwvcmRmOlJERj48L21ldGFkYXRhPjxkZWZzIGlkPSJkZWZzMjEzOTYiLz4mI3hhOzxmaWx0ZXIgaWQ9ImZpbHRlcl8yIj4mI3hhOwk8ZmVHYXVzc2lhbkJsdXIgaWQ9ImZlR2F1c3NpYW5CbHVyNjg2MjEiIHN0ZERldmlhdGlvbj0iMiIvPiYjeGE7PC9maWx0ZXI+JiN4YTs8c29kaXBvZGk6bmFtZWR2aWV3IGJvcmRlcmNvbG9yPSIjNjY2NjY2IiBib3JkZXJvcGFjaXR5PSIxIiBmaXQtbWFyZ2luLWJvdHRvbT0iMCIgZml0LW1hcmdpbi1sZWZ0PSIwIiBmaXQtbWFyZ2luLXJpZ2h0PSIwIiBmaXQtbWFyZ2luLXRvcD0iMCIgZ3JpZHRvbGVyYW5jZT0iMTAiIGd1aWRldG9sZXJhbmNlPSIxMCIgaWQ9Im5hbWVkdmlldzY4Njc0IiBpbmtzY2FwZTpjdXJyZW50LWxheWVyPSJzdmc2ODY3MiIgaW5rc2NhcGU6Y3g9Ii0wLjc4NDM0NjQ0IiBpbmtzY2FwZTpjeT0iMjMuOTU4MzUyIiBpbmtzY2FwZTpwYWdlb3BhY2l0eT0iMCIgaW5rc2NhcGU6cGFnZXNoYWRvdz0iMiIgaW5rc2NhcGU6d2luZG93LWhlaWdodD0iMTAxNyIgaW5rc2NhcGU6d2luZG93LW1heGltaXplZD0iMSIgaW5rc2NhcGU6d2luZG93LXdpZHRoPSIxOTIwIiBpbmtzY2FwZTp3aW5kb3cteD0iLTgiIGlua3NjYXBlOndpbmRvdy15PSItOCIgaW5rc2NhcGU6em9vbT0iOC44NTg2ODMiIG9iamVjdHRvbGVyYW5jZT0iMTAiIHBhZ2Vjb2xvcj0iI2ZmZmZmZiIgc2hvd2dyaWQ9ImZhbHNlIj4mI3hhOwk8L3NvZGlwb2RpOm5hbWVkdmlldz4mI3hhOyYjeGE7PHBhdGggaWQ9InBhdGg2ODYzNCIgaW5rc2NhcGU6Y29ubmVjdG9yLWN1cnZhdHVyZT0iMCIgc3R5bGU9ImZpbGw6IzNlM2UzZSIgZD0iTSA0OS45NywxNi45IEMgNTAuMTksMTUuODUgNTAuMywxNC44NSA1MC4zLDEzLjg1IDUwLjMsNi4yMSA0NC4wOCwwIDM2LjQzLDAgMzEuMDksMCAyNi4yOCwzLjAyIDIzLjk2LDcuNzcgMjIuMSw1LjkxIDE5LjU3LDQuODYgMTYuOTEsNC44NiBjIC01LjQ5LDAgLTkuOTUsNC40NiAtOS45NSw5Ljk1IDAsMC43NSAwLjA4LDEuNSAwLjI1LDIuMjcgQyAyLjY4LDE4LjkzIDAsMjIuNzUgMCwyNy40IDAsMzMuNjYgNS4xMiwzOC41OCAxMS42NiwzOC41OCBoIDAuNzQgYyAwLjEzLDUuNzIgNC44MiwxMC4zNCAxMC41NywxMC4zNCAzLjg3LDAgNy4zNywtMi4wOCA5LjIyLC01LjM5IDEuMzksMS4yIDMuMTcsMS44NyA1LjAyLDEuODcgMy45NSwwIDcuMjEsLTIuOTggNy42NywtNi44MiBoIDEuMTEgYyA2LjU0LDAgMTEuNjYsLTQuOTIgMTEuNjYsLTExLjE4IDAsLTQuODQgLTIuOTQsLTguODMgLTcuNjgsLTEwLjUgeiIvPiYjeGE7JiN4YTs8cGF0aCBpZD0icGF0aDY4NjQyIiBpbmtzY2FwZTpjb25uZWN0b3ItY3VydmF0dXJlPSIwIiBzdHlsZT0iZmlsbDojZmZmZmZmIiBkPSJtIDQ1LjQ3LDIyLjEzIDAuODUsLTIuMDEgLTAuMjUsLTAuMjEgLTEuODUsLTEuNjEgMC4wMSwtMS42MyAyLjA5LC0xLjg3IC0wLjgyLC0yLjAyIC0wLjMyLDAuMDIgLTIuNDUsMC4xOCAtMS4xNSwtMS4xNiAwLjE2LC0yLjggLTIuMDEsLTAuODUgLTAuMjEsMC4yNSAtMS42MSwxLjg1IC0xLjYzLC0wLjAxIC0xLjg3LC0yLjA5IC0yLjAyLDAuODIgMC4wMiwwLjMzIDAuMTgsMi40NSAtMS4xNiwxLjE0IC0yLjgsLTAuMTYgLTAuODUsMi4wMSAwLjI1LDAuMjIgMS44NSwxLjYxIC0wLjAxLDEuNjIgLTIuMDksMS44NyAwLjgyLDIuMDIgMC4zMywtMC4wMiAyLjQ0LC0wLjE3IDEuMTUsMS4xNiAtMC4xNiwyLjc5IDIuMDEsMC44NSAwLjIxLC0wLjI0IDEuNjEsLTEuODYgMS42MywwLjAxIDEuODcsMi4wOSAyLjAyLC0wLjgyIC0wLjAyLC0wLjMyIC0wLjE4LC0yLjQ1IDEuMTYsLTEuMTUgeiBNIDM1LjMxLDIxLjU1IGMgLTIuMjcsLTAuOTUgLTMuMzMsLTMuNTcgLTIuMzcsLTUuODQgMC45NiwtMi4yOCAzLjU3LC0zLjM0IDUuODQsLTIuMzggMi4yOCwwLjk2IDMuMzQsMy41OCAyLjM4LDUuODUgLTAuOTYsMi4yNyAtMy41NywzLjMzIC01Ljg1LDIuMzcgeiIvPiYjeGE7JiN4YTs8cGF0aCBpZD0icGF0aDY4NjUwIiBpbmtzY2FwZTpjb25uZWN0b3ItY3VydmF0dXJlPSIwIiBzdHlsZT0iZmlsbDojZmZmZmZmIiBkPSJtIDMyLjY5LDMyLjIyIHYgLTIuMTggbCAtMC4zLC0wLjEgLTIuMzQsLTAuNzYgLTAuNjIsLTEuNTEgMS4yLC0yLjUzIC0xLjU0LC0xLjU0IC0wLjI5LDAuMTQgLTIuMTksMS4xMSAtMS41LC0wLjYyIC0wLjk1LC0yLjY0IGggLTIuMTggbCAtMC4xLDAuMzEgLTAuNzYsMi4zMyAtMS41MSwwLjYyIC0yLjUzLC0xLjIgLTEuNTQsMS41NSAwLjE0LDAuMjkgMS4xMSwyLjE5IC0wLjYyLDEuNSAtMi42NCwwLjk0IHYgMi4xOCBsIDAuMzEsMC4xIDIuMzMsMC43NyAwLjYyLDEuNSAtMS4yLDIuNTMgMS41NSwxLjU1IDAuMjgsLTAuMTUgMi4yLC0xLjExIDEuNSwwLjYyIDAuOTQsMi42NCBoIDIuMTggbCAwLjEsLTAuMyAwLjc3LC0yLjM0IDEuNSwtMC42MiAyLjUzLDEuMiAxLjU1LC0xLjU0IC0wLjE1LC0wLjI5IC0xLjExLC0yLjE5IDAuNjIsLTEuNSB6IG0gLTkuNTgsMy40MiBjIC0yLjQ3LC0wLjAxIC00LjQ2LC0yLjAxIC00LjQ2LC00LjQ3IDAsLTIuNDcgMiwtNC40NiA0LjQ3LC00LjQ2IDIuNDYsMCA0LjQ2LDIgNC40Niw0LjQ3IC0wLjAxLDIuNDYgLTIuMDEsNC40NiAtNC40Nyw0LjQ2IHoiLz4mI3hhOyYjeGE7PHBhdGggaWQ9InBhdGg2ODY1OCIgaW5rc2NhcGU6Y29ubmVjdG9yLWN1cnZhdHVyZT0iMCIgc3R5bGU9ImZpbGw6I2I4ZDQzMiIgZD0ibSAzOS43MSwxOC41NyBjIC0wLjYyLDEuNDcgLTIuMzIsMi4xNiAtMy43OSwxLjU0IC0xLjQ4LC0wLjYyIC0yLjE3LC0yLjMyIC0xLjU1LC0zLjggMC42MywtMS40NyAyLjMyLC0yLjE2IDMuOCwtMS41NCAxLjQ3LDAuNjIgMi4xNiwyLjMyIDEuNTQsMy44IHoiLz4mI3hhOyYjeGE7PHBhdGggaWQ9InBhdGg2ODY2NiIgaW5rc2NhcGU6Y29ubmVjdG9yLWN1cnZhdHVyZT0iMCIgc3R5bGU9ImZpbGw6I2I4ZDQzMiIgZD0ibSAyNi4wMSwzMS4xNyBjIC0wLjAxLDEuNjEgLTEuMywyLjkgLTIuOSwyLjkgLTEuNiwwIC0yLjksLTEuMyAtMi45LC0yLjkgMCwtMS42IDEuMywtMi45IDIuOSwtMi45IDEuNjEsMC4wMSAyLjksMS4zIDIuOSwyLjkgeiIvPiYjeGE7PC9zdmc+;" vertex="1" parent="1">
          <mxGeometry x="389.99999999999994" y="600" width="106.53" height="90" as="geometry" />
        </mxCell>
        <mxCell id="xkKd55qxpHbyt4-YmWr0-50" value="" style="verticalLabelPosition=bottom;html=1;verticalAlign=top;align=center;strokeColor=none;fillColor=#00BEF2;shape=mxgraph.azure.automation;pointerEvents=1;" vertex="1" parent="1">
          <mxGeometry x="532.75" y="720" width="100" height="90" as="geometry" />
        </mxCell>
        <mxCell id="xkKd55qxpHbyt4-YmWr0-51" value="" style="shape=image;verticalLabelPosition=bottom;labelBackgroundColor=#ffffff;verticalAlign=top;aspect=fixed;imageAspect=0;image=data:image/svg+xml,PHN2ZyB4bWxuczpjYz0iaHR0cDovL2NyZWF0aXZlY29tbW9ucy5vcmcvbnMjIiB4bWxuczpkYz0iaHR0cDovL3B1cmwub3JnL2RjL2VsZW1lbnRzLzEuMS8iIHhtbG5zOmlua3NjYXBlPSJodHRwOi8vd3d3Lmlua3NjYXBlLm9yZy9uYW1lc3BhY2VzL2lua3NjYXBlIiB4bWxuczpyZGY9Imh0dHA6Ly93d3cudzMub3JnLzE5OTkvMDIvMjItcmRmLXN5bnRheC1ucyMiIHhtbG5zOnNvZGlwb2RpPSJodHRwOi8vc29kaXBvZGkuc291cmNlZm9yZ2UubmV0L0RURC9zb2RpcG9kaS0wLmR0ZCIgeG1sbnM6c3ZnPSJodHRwOi8vd3d3LnczLm9yZy8yMDAwL3N2ZyIgeG1sbnM9Imh0dHA6Ly93d3cudzMub3JnLzIwMDAvc3ZnIiB4bWxuczp4bGluaz0iaHR0cDovL3d3dy53My5vcmcvMTk5OS94bGluayIgdmVyc2lvbj0iMS4xIiBpZD0ic3ZnMTAzNDc0IiBpbmtzY2FwZTp2ZXJzaW9uPSIwLjkyLjMgKDI0MDU1NDYsIDIwMTgtMDMtMTEpIiBzb2RpcG9kaTpkb2NuYW1lPSJyZWRpcy5zdmciIHg9IjBweCIgeT0iMHB4IiB2aWV3Qm94PSIwIDAgMzcuNTEgMzEuNiIgc3R5bGU9ImVuYWJsZS1iYWNrZ3JvdW5kOm5ldyAwIDAgMzcuNTEgMzEuNjsiIHhtbDpzcGFjZT0icHJlc2VydmUiPiYjeGE7PHNvZGlwb2RpOm5hbWVkdmlldyBib3JkZXJjb2xvcj0iIzY2NjY2NiIgYm9yZGVyb3BhY2l0eT0iMSIgZml0LW1hcmdpbi1ib3R0b209IjAiIGZpdC1tYXJnaW4tbGVmdD0iMCIgZml0LW1hcmdpbi1yaWdodD0iMCIgZml0LW1hcmdpbi10b3A9IjAiIGdyaWR0b2xlcmFuY2U9IjEwIiBndWlkZXRvbGVyYW5jZT0iMTAiIGlkPSJuYW1lZHZpZXcxMDM0NzYiIGlua3NjYXBlOmN1cnJlbnQtbGF5ZXI9InN2ZzEwMzQ3NCIgaW5rc2NhcGU6Y3g9IjI1LjAwNTA2MyIgaW5rc2NhcGU6Y3k9IjIxLjA2NDU5MiIgaW5rc2NhcGU6cGFnZW9wYWNpdHk9IjAiIGlua3NjYXBlOnBhZ2VzaGFkb3c9IjIiIGlua3NjYXBlOndpbmRvdy1oZWlnaHQ9IjEwMTciIGlua3NjYXBlOndpbmRvdy1tYXhpbWl6ZWQ9IjEiIGlua3NjYXBlOndpbmRvdy13aWR0aD0iMTkyMCIgaW5rc2NhcGU6d2luZG93LXg9Ii04IiBpbmtzY2FwZTp3aW5kb3cteT0iLTgiIGlua3NjYXBlOnpvb209IjE5LjY0MjUwNCIgb2JqZWN0dG9sZXJhbmNlPSIxMCIgcGFnZWNvbG9yPSIjZmZmZmZmIiBzaG93Z3JpZD0iZmFsc2UiPiYjeGE7CTwvc29kaXBvZGk6bmFtZWR2aWV3PiYjeGE7PGcgaWQ9ImcxMDM0NzIiIHRyYW5zZm9ybT0idHJhbnNsYXRlKC0wLjc0NjgyNzEsLTAuNzUxNjI1KSI+JiN4YTsJPHRpdGxlIGlkPSJ0aXRsZTEwMzM4OCI+UGFnZS0xPC90aXRsZT4mI3hhOwk8ZyBpZD0iZ3JvdXAzNzc2LTEiIHRyYW5zZm9ybT0idHJhbnNsYXRlKDAuNDA3MjksLTAuNjA5Mzc1KSI+JiN4YTsJCTx0aXRsZSBpZD0idGl0bGUxMDMzOTAiPlJlZGlzLjYzNjwvdGl0bGU+JiN4YTsJCTxnIGlkPSJncm91cDM3NzctMiI+JiN4YTsJCQk8dGl0bGUgaWQ9InRpdGxlMTAzMzkyIj5TaGVldC4zNzc3PC90aXRsZT4mI3hhOwkJCTxnIGlkPSJzaGFwZTM3NzgtMyIgdHJhbnNmb3JtPSJ0cmFuc2xhdGUoMC4yMzcpIj4mI3hhOwkJCQk8dGl0bGUgaWQ9InRpdGxlMTAzMzk0Ij5TaGVldC4zNzc4PC90aXRsZT4mI3hhOwkJCQk8cGF0aCBpZD0icGF0aDEwMzM5NiIgaW5rc2NhcGU6Y29ubmVjdG9yLWN1cnZhdHVyZT0iMCIgc3R5bGU9ImZpbGw6I0JBMTQxQTsiIGQ9Ik0wLjExLDI1LjE5Yy0wLjA2LDAuNCwwLjI4LDAuOCwxLjAyLDEuMTEgICAgICBsMTUuMjQsNi4yNGMxLjM3LDAuNTYsMy42LDAuNTYsNC45NywwbDE1LjI0LTYuMjRjMC43NC0wLjMxLDEuMDgtMC43MSwxLjAyLTEuMTF2LTMuNThjMC4wNSwwLjM5LTAuMjksMC43OS0xLjAyLDEuMDkgICAgICBsLTE1LjI0LDYuMjRjLTEuMzcsMC41Ni0zLjYsMC41Ni00Ljk3LDBMMS4xMywyMi43Yy0wLjgtMC4zMy0xLjEzLTAuNzgtMS0xLjJMMC4xMSwyNS4xOXoiLz4mI3hhOwkJCTwvZz4mI3hhOwkJCTxnIGlkPSJzaGFwZTM3NzktNSIgdHJhbnNmb3JtPSJ0cmFuc2xhdGUoMCwtMy42KSI+JiN4YTsJCQkJPHRpdGxlIGlkPSJ0aXRsZTEwMzM5OSI+U2hlZXQuMzc3OTwvdGl0bGU+JiN4YTsJCQkJPHBhdGggaWQ9InBhdGgxMDM0MDEiIGlua3NjYXBlOmNvbm5lY3Rvci1jdXJ2YXR1cmU9IjAiIHN0eWxlPSJmaWxsOiNCQTE0MUE7IiBkPSJNMzYuODEsMjQuMjZjMS4zOCwwLjU3LDEuMzgsMS40OCwwLDIuMDQgICAgICBsLTE1LjIzLDYuMjRjLTEuMzcsMC41Ni0zLjYsMC41Ni00Ljk3LDBMMS4zNywyNi4zQzAsMjUuNzQsMCwyNC44MywxLjM3LDI0LjI2bDE1LjI0LTYuMjRjMS4zNy0wLjU2LDMuNi0wLjU2LDQuOTcsMCAgICAgIEwzNi44MSwyNC4yNnoiLz4mI3hhOwkJCTwvZz4mI3hhOwkJPC9nPiYjeGE7CQk8ZyBpZD0iZ3JvdXAzNzgwLTciIHRyYW5zZm9ybT0idHJhbnNsYXRlKDAsLTYuMzE5NSkiPiYjeGE7CQkJPHRpdGxlIGlkPSJ0aXRsZTEwMzQwNSI+U2hlZXQuMzc4MDwvdGl0bGU+JiN4YTsJCQk8ZyBpZD0ic2hhcGUzNzgxLTgiIHRyYW5zZm9ybT0idHJhbnNsYXRlKDAuMjM3KSI+JiN4YTsJCQkJPHRpdGxlIGlkPSJ0aXRsZTEwMzQwNyI+U2hlZXQuMzc4MTwvdGl0bGU+JiN4YTsJCQkJPHBhdGggaWQ9InBhdGgxMDM0MDkiIGlua3NjYXBlOmNvbm5lY3Rvci1jdXJ2YXR1cmU9IjAiIHN0eWxlPSJmaWxsOiNCQTE0MUE7IiBkPSJNMC4xMSwyNS4xOWMtMC4wNiwwLjQsMC4yOCwwLjgsMS4wMiwxLjExICAgICAgbDE1LjI0LDYuMjRjMS4zNywwLjU2LDMuNiwwLjU2LDQuOTcsMGwxNS4yNC02LjI0YzAuNzQtMC4zMSwxLjA4LTAuNzEsMS4wMi0xLjExdi0zLjU4YzAuMDUsMC4zOS0wLjI5LDAuNzktMS4wMiwxLjA5ICAgICAgbC0xNS4yNCw2LjI0Yy0xLjM3LDAuNTYtMy42LDAuNTYtNC45NywwTDEuMTMsMjIuN2MtMC44LTAuMzMtMS4xMy0wLjc4LTEtMS4yTDAuMTEsMjUuMTl6Ii8+JiN4YTsJCQk8L2c+JiN4YTsJCQk8ZyBpZD0ic2hhcGUzNzgyLTEwIiB0cmFuc2Zvcm09InRyYW5zbGF0ZSgwLC0zLjYpIj4mI3hhOwkJCQk8dGl0bGUgaWQ9InRpdGxlMTAzNDEyIj5TaGVldC4zNzgyPC90aXRsZT4mI3hhOwkJCQk8cGF0aCBpZD0icGF0aDEwMzQxNCIgaW5rc2NhcGU6Y29ubmVjdG9yLWN1cnZhdHVyZT0iMCIgc3R5bGU9ImZpbGw6I0JBMTQxQTsiIGQ9Ik0zNi44MSwyNC4yNmMxLjM4LDAuNTcsMS4zOCwxLjQ4LDAsMi4wNCAgICAgIGwtMTUuMjMsNi4yNGMtMS4zNywwLjU2LTMuNiwwLjU2LTQuOTcsMEwxLjM3LDI2LjNDMCwyNS43NCwwLDI0LjgzLDEuMzcsMjQuMjZsMTUuMjQtNi4yNGMxLjM3LTAuNTYsMy42LTAuNTYsNC45NywwICAgICAgTDM2LjgxLDI0LjI2eiIvPiYjeGE7CQkJPC9nPiYjeGE7CQk8L2c+JiN4YTsJCTxnIGlkPSJncm91cDM3ODMtMTIiPiYjeGE7CQkJPHRpdGxlIGlkPSJ0aXRsZTEwMzQxOCI+U2hlZXQuMzc4MzwvdGl0bGU+JiN4YTsJCQk8ZyBpZD0ic2hhcGUzNzg0LTEzIiB0cmFuc2Zvcm09InRyYW5zbGF0ZSgwLjIzNywtMTIuNjM5KSI+JiN4YTsJCQkJPHRpdGxlIGlkPSJ0aXRsZTEwMzQyMCI+U2hlZXQuMzc4NDwvdGl0bGU+JiN4YTsJCQkJPHBhdGggaWQ9InBhdGgxMDM0MjIiIGlua3NjYXBlOmNvbm5lY3Rvci1jdXJ2YXR1cmU9IjAiIHN0eWxlPSJmaWxsOiNCQTE0MUE7IiBkPSJNMC4xMSwyNS4xOWMtMC4wNiwwLjQsMC4yOCwwLjgsMS4wMiwxLjExICAgICAgbDE1LjI0LDYuMjRjMS4zNywwLjU2LDMuNiwwLjU2LDQuOTcsMGwxNS4yNC02LjI0YzAuNzQtMC4zMSwxLjA4LTAuNzEsMS4wMi0xLjExdi0zLjU4YzAuMDUsMC4zOS0wLjI5LDAuNzktMS4wMiwxLjA5ICAgICAgbC0xNS4yNCw2LjI0Yy0xLjM3LDAuNTYtMy42LDAuNTYtNC45NywwTDEuMTMsMjIuN2MtMC44LTAuMzMtMS4xMy0wLjc4LTEtMS4yTDAuMTEsMjUuMTl6Ii8+JiN4YTsJCQk8L2c+JiN4YTsJCQk8ZyBpZD0ic2hhcGUzNzg1LTE1IiB0cmFuc2Zvcm09InRyYW5zbGF0ZSgwLjIzNykiPiYjeGE7CQkJCTx0aXRsZSBpZD0idGl0bGUxMDM0MjUiPlNoZWV0LjM3ODU8L3RpdGxlPiYjeGE7CQkJCTxwYXRoIGlkPSJwYXRoMTAzNDI3IiBpbmtzY2FwZTpjb25uZWN0b3ItY3VydmF0dXJlPSIwIiBzdHlsZT0iZmlsbDojMUUxRTFFO2ZpbGwtb3BhY2l0eTowLjI1OyIgZD0iTTAuMTEsMjUuMTkgICAgICBjLTAuMDYsMC40LDAuMjgsMC44LDEuMDIsMS4xMWwxNS4yNCw2LjI0YzEuMzcsMC41NiwzLjYsMC41Niw0Ljk3LDBsMTUuMjQtNi4yNGMwLjc0LTAuMzEsMS4wOC0wLjcxLDEuMDItMS4xMXYtMy41OCAgICAgIGMwLjA1LDAuMzktMC4yOSwwLjc5LTEuMDIsMS4wOWwtMTUuMjQsNi4yNGMtMS4zNywwLjU2LTMuNiwwLjU2LTQuOTcsMEwxLjEzLDIyLjdjLTAuOC0wLjMzLTEuMTMtMC43OC0xLTEuMkwwLjExLDI1LjE5eiIvPiYjeGE7CQkJPC9nPiYjeGE7CQkJPGcgaWQ9InNoYXBlMzc4Ni0xNyIgdHJhbnNmb3JtPSJ0cmFuc2xhdGUoMC4yMzcsLTYuMzE5NSkiPiYjeGE7CQkJCTx0aXRsZSBpZD0idGl0bGUxMDM0MzAiPlNoZWV0LjM3ODY8L3RpdGxlPiYjeGE7CQkJCTxwYXRoIGlkPSJwYXRoMTAzNDMyIiBpbmtzY2FwZTpjb25uZWN0b3ItY3VydmF0dXJlPSIwIiBzdHlsZT0iZmlsbDojMUUxRTFFO2ZpbGwtb3BhY2l0eTowLjI1OyIgZD0iTTAuMTEsMjUuMTkgICAgICBjLTAuMDYsMC40LDAuMjgsMC44LDEuMDIsMS4xMWwxNS4yNCw2LjI0YzEuMzcsMC41NiwzLjYsMC41Niw0Ljk3LDBsMTUuMjQtNi4yNGMwLjc0LTAuMzEsMS4wOC0wLjcxLDEuMDItMS4xMXYtMy41OCAgICAgIGMwLjA1LDAuMzktMC4yOSwwLjc5LTEuMDIsMS4wOWwtMTUuMjQsNi4yNGMtMS4zNywwLjU2LTMuNiwwLjU2LTQuOTcsMEwxLjEzLDIyLjdjLTAuOC0wLjMzLTEuMTMtMC43OC0xLTEuMkwwLjExLDI1LjE5eiIvPiYjeGE7CQkJPC9nPiYjeGE7CQkJPGcgaWQ9InNoYXBlMzc4Ny0xOSIgdHJhbnNmb3JtPSJ0cmFuc2xhdGUoMC4yMzcsLTEyLjYzOSkiPiYjeGE7CQkJCTx0aXRsZSBpZD0idGl0bGUxMDM0MzUiPlNoZWV0LjM3ODc8L3RpdGxlPiYjeGE7CQkJCTxwYXRoIGlkPSJwYXRoMTAzNDM3IiBpbmtzY2FwZTpjb25uZWN0b3ItY3VydmF0dXJlPSIwIiBzdHlsZT0iZmlsbDojMUUxRTFFO2ZpbGwtb3BhY2l0eTowLjI1OyIgZD0iTTAuMTEsMjUuMTkgICAgICBjLTAuMDYsMC40LDAuMjgsMC44LDEuMDIsMS4xMWwxNS4yNCw2LjI0YzEuMzcsMC41NiwzLjYsMC41Niw0Ljk3LDBsMTUuMjQtNi4yNGMwLjc0LTAuMzEsMS4wOC0wLjcxLDEuMDItMS4xMXYtMy41OCAgICAgIGMwLjA1LDAuMzktMC4yOSwwLjc5LTEuMDIsMS4wOWwtMTUuMjQsNi4yNGMtMS4zNywwLjU2LTMuNiwwLjU2LTQuOTcsMEwxLjEzLDIyLjdjLTAuOC0wLjMzLTEuMTMtMC43OC0xLTEuMkwwLjExLDI1LjE5eiIvPiYjeGE7CQkJPC9nPiYjeGE7CQkJPGcgaWQ9InNoYXBlMzc4OC0yMSIgdHJhbnNmb3JtPSJ0cmFuc2xhdGUoMCwtMTYuMjM5KSI+JiN4YTsJCQkJPHRpdGxlIGlkPSJ0aXRsZTEwMzQ0MCI+U2hlZXQuMzc4ODwvdGl0bGU+JiN4YTsJCQkJPHBhdGggaWQ9InBhdGgxMDM0NDIiIGlua3NjYXBlOmNvbm5lY3Rvci1jdXJ2YXR1cmU9IjAiIHN0eWxlPSJmaWxsOiNCQTE0MUE7IiBkPSJNMzYuODEsMjQuMjZjMS4zOCwwLjU3LDEuMzgsMS40OCwwLDIuMDQgICAgICBsLTE1LjIzLDYuMjRjLTEuMzcsMC41Ni0zLjYsMC41Ni00Ljk3LDBMMS4zNywyNi4zQzAsMjUuNzQsMCwyNC44MywxLjM3LDI0LjI2bDE1LjI0LTYuMjRjMS4zNy0wLjU2LDMuNi0wLjU2LDQuOTcsMCAgICAgIEwzNi44MSwyNC4yNnoiLz4mI3hhOwkJCTwvZz4mI3hhOwkJPC9nPiYjeGE7CQk8ZyBpZD0ic2hhcGUzNzg5LTIzIiB0cmFuc2Zvcm09InRyYW5zbGF0ZSg2LjM2MTUsLTIyLjExMjMpIj4mI3hhOwkJCTx0aXRsZSBpZD0idGl0bGUxMDM0NDYiPlNoZWV0LjM3ODk8L3RpdGxlPiYjeGE7CQkJPHBhdGggaWQ9InBhdGgxMDM0NDgiIGlua3NjYXBlOmNvbm5lY3Rvci1jdXJ2YXR1cmU9IjAiIHN0eWxlPSJmaWxsOiNGRkZGRkY7IiBkPSJNOC4wNCwzMi4zM2MtMS43NCwwLjc3LTQuNTYsMC43Ny02LjMsMCAgICAgQzAsMzEuNTYsMCwzMC4zLDEuNzQsMjkuNTNjMS43NC0wLjc3LDQuNTYtMC43Nyw2LjMsMEM5Ljc3LDMwLjMsOS43OCwzMS41Niw4LjA0LDMyLjMzeiIvPiYjeGE7CQk8L2c+JiN4YTsJCTxnIGlkPSJzaGFwZTM3OTAtMjUiIHRyYW5zZm9ybT0idHJhbnNsYXRlKDEzLjIxOCwtMTcuOTg4KSI+JiN4YTsJCQk8dGl0bGUgaWQ9InRpdGxlMTAzNDUxIj5TaGVldC4zNzkwPC90aXRsZT4mI3hhOwkJCTxwYXRoIGlkPSJwYXRoMTAzNDUzIiBpbmtzY2FwZTpjb25uZWN0b3ItY3VydmF0dXJlPSIwIiBzdHlsZT0iZmlsbDojRkZGRkZGOyIgZD0iTTAsMzAuMmw4LjkyLTEuMDZMNi41MywzMy4xTDAsMzAuMnoiLz4mI3hhOwkJPC9nPiYjeGE7CQk8ZyBpZD0ic2hhcGUzNzkxLTI3IiB0cmFuc2Zvcm09InRyYW5zbGF0ZSgyMS44NjQsLTIxLjg5MSkiPiYjeGE7CQkJPHRpdGxlIGlkPSJ0aXRsZTEwMzQ1NiI+U2hlZXQuMzc5MTwvdGl0bGU+JiN4YTsJCQk8cGF0aCBpZD0icGF0aDEwMzQ1OCIgaW5rc2NhcGU6Y29ubmVjdG9yLWN1cnZhdHVyZT0iMCIgc3R5bGU9ImZpbGw6IzFFMUUxRTtmaWxsLW9wYWNpdHk6MC4yNTsiIGQ9Ik01LjM0LDMzLjFMMCwzMC43MyAgICAgbDUuMzQtMi4zN2w1LjMzLDIuMzdMNS4zNCwzMy4xeiIvPiYjeGE7CQk8L2c+JiN4YTsJCTxnIGlkPSJzaGFwZTM3OTItMjkiIHRyYW5zZm9ybT0idHJhbnNsYXRlKDIxLjg2NCwtMjEuODkxKSI+JiN4YTsJCQk8dGl0bGUgaWQ9InRpdGxlMTAzNDYxIj5TaGVldC4zNzkyPC90aXRsZT4mI3hhOwkJCTxwYXRoIGlkPSJwYXRoMTAzNDYzIiBpbmtzY2FwZTpjb25uZWN0b3ItY3VydmF0dXJlPSIwIiBzdHlsZT0iZmlsbDojMUUxRTFFO2ZpbGwtb3BhY2l0eTowLjI1OyIgZD0iTTUuMzQsMzMuMUwwLDMwLjczICAgICBsNS4zNC0yLjM3VjMzLjF6Ii8+JiN4YTsJCTwvZz4mI3hhOwkJPGcgaWQ9InNoYXBlMzc5My0zMSIgdHJhbnNmb3JtPSJ0cmFuc2xhdGUoMTMuODk2NywtMjUuNjE1NSkiPiYjeGE7CQkJPHRpdGxlIGlkPSJ0aXRsZTEwMzQ2NiI+U2hlZXQuMzc5MzwvdGl0bGU+JiN4YTsJCQk8cGF0aCBpZD0icGF0aDEwMzQ2OCIgaW5rc2NhcGU6Y29ubmVjdG9yLWN1cnZhdHVyZT0iMCIgc3R5bGU9ImZpbGw6I0ZGRkZGRjsiIGQ9Ik0zLjQ4LDMxLjU1TDAsMzEuMjRsMy4wOS0wLjc4bC0wLjQtMS41NyAgICAgbDIuNjIsMS4wN2wzLjI0LTAuNjZsLTEuNDgsMS40NGwyLjQxLDEuMTdsLTMuNTQtMC4xOEw0LjE5LDMzLjFMMy40OCwzMS41NXoiLz4mI3hhOwkJPC9nPiYjeGE7CTwvZz4mI3hhOzwvZz4mI3hhOzwvc3ZnPg==;" vertex="1" parent="1">
          <mxGeometry x="540" y="470" width="85.5" height="72" as="geometry" />
        </mxCell>
        <mxCell id="xkKd55qxpHbyt4-YmWr0-59" value="" style="shape=flexArrow;endArrow=classic;html=1;rounded=0;" edge="1" parent="1" source="xkKd55qxpHbyt4-YmWr0-11">
          <mxGeometry width="50" height="50" relative="1" as="geometry">
            <mxPoint x="150" y="695" as="sourcePoint" />
            <mxPoint x="220.71067811865476" y="645" as="targetPoint" />
          </mxGeometry>
        </mxCell>
        <mxCell id="xkKd55qxpHbyt4-YmWr0-60" value="" style="shape=image;verticalLabelPosition=bottom;labelBackgroundColor=#ffffff;verticalAlign=top;aspect=fixed;imageAspect=0;image=data:image/svg+xml,PHN2ZyB4bWxuczpkYz0iaHR0cDovL3B1cmwub3JnL2RjL2VsZW1lbnRzLzEuMS8iIHhtbG5zOmNjPSJodHRwOi8vY3JlYXRpdmVjb21tb25zLm9yZy9ucyMiIHhtbG5zOnJkZj0iaHR0cDovL3d3dy53My5vcmcvMTk5OS8wMi8yMi1yZGYtc3ludGF4LW5zIyIgeG1sbnM6c3ZnPSJodHRwOi8vd3d3LnczLm9yZy8yMDAwL3N2ZyIgeG1sbnM9Imh0dHA6Ly93d3cudzMub3JnLzIwMDAvc3ZnIiB4bWxuczp4bGluaz0iaHR0cDovL3d3dy53My5vcmcvMTk5OS94bGluayIgeG1sbnM6c29kaXBvZGk9Imh0dHA6Ly9zb2RpcG9kaS5zb3VyY2Vmb3JnZS5uZXQvRFREL3NvZGlwb2RpLTAuZHRkIiB4bWxuczppbmtzY2FwZT0iaHR0cDovL3d3dy5pbmtzY2FwZS5vcmcvbmFtZXNwYWNlcy9pbmtzY2FwZSIgdmVyc2lvbj0iMS4xIiBpZD0iTGF5ZXJfMSIgeD0iMHB4IiB5PSIwcHgiIHZpZXdCb3g9IjAgMCA4OC43Njk5OTcgNjQuMjk5OTk1IiB4bWw6c3BhY2U9InByZXNlcnZlIiBzb2RpcG9kaTpkb2NuYW1lPSJjb2RlLnN2ZyIgd2lkdGg9Ijg4Ljc2OTk5NyIgaGVpZ2h0PSI2NC4yOTk5OTUiIGlua3NjYXBlOnZlcnNpb249IjAuOTIuMyAoMjQwNTU0NiwgMjAxOC0wMy0xMSkiPjxtZXRhZGF0YSBpZD0ibWV0YWRhdGEzODczOSI+PHJkZjpSREY+PGNjOldvcmsgcmRmOmFib3V0PSIiPjxkYzpmb3JtYXQ+aW1hZ2Uvc3ZnK3htbDwvZGM6Zm9ybWF0PjxkYzp0eXBlIHJkZjpyZXNvdXJjZT0iaHR0cDovL3B1cmwub3JnL2RjL2RjbWl0eXBlL1N0aWxsSW1hZ2UiLz48ZGM6dGl0bGUvPjwvY2M6V29yaz48L3JkZjpSREY+PC9tZXRhZGF0YT48ZGVmcyBpZD0iZGVmczM4NzM3Ii8+PHNvZGlwb2RpOm5hbWVkdmlldyBwYWdlY29sb3I9IiNmZmZmZmYiIGJvcmRlcmNvbG9yPSIjNjY2NjY2IiBib3JkZXJvcGFjaXR5PSIxIiBvYmplY3R0b2xlcmFuY2U9IjEwIiBncmlkdG9sZXJhbmNlPSIxMCIgZ3VpZGV0b2xlcmFuY2U9IjEwIiBpbmtzY2FwZTpwYWdlb3BhY2l0eT0iMCIgaW5rc2NhcGU6cGFnZXNoYWRvdz0iMiIgaW5rc2NhcGU6d2luZG93LXdpZHRoPSIxOTIwIiBpbmtzY2FwZTp3aW5kb3ctaGVpZ2h0PSIxMDE3IiBpZD0ibmFtZWR2aWV3Mzg3MzUiIHNob3dncmlkPSJmYWxzZSIgZml0LW1hcmdpbi10b3A9IjAiIGZpdC1tYXJnaW4tbGVmdD0iMCIgZml0LW1hcmdpbi1yaWdodD0iMCIgZml0LW1hcmdpbi1ib3R0b209IjAiIGlua3NjYXBlOnpvb209IjEuMDMwMzAzIiBpbmtzY2FwZTpjeD0iNi43NDQ5OTUxIiBpbmtzY2FwZTpjeT0iLTI2Mi42MzAwMSIgaW5rc2NhcGU6d2luZG93LXg9Ii04IiBpbmtzY2FwZTp3aW5kb3cteT0iLTgiIGlua3NjYXBlOndpbmRvdy1tYXhpbWl6ZWQ9IjEiIGlua3NjYXBlOmN1cnJlbnQtbGF5ZXI9IkxheWVyXzEiLz4mI3hhOyYjeGE7PGcgaWQ9ImczODczMiIgdHJhbnNmb3JtPSJ0cmFuc2xhdGUoLTI5MC42MywtOTMuODIpIj4mI3hhOwk8ZGVmcyBpZD0iZGVmczM4NzA1Ij4mI3hhOwkJPHJlY3QgaWQ9IlNWR0lEXzNfIiB4PSIyOTAuNjMiIHk9IjkzLjgyIiB3aWR0aD0iOTAuMDU5OTk4IiBoZWlnaHQ9IjY0LjkxOTk5OCIvPiYjeGE7CTwvZGVmcz4mI3hhOwk8Y2xpcFBhdGggaWQ9IlNWR0lEXzRfIj4mI3hhOwkJPHVzZSB4bGluazpocmVmPSIjU1ZHSURfM18iIHN0eWxlPSJvdmVyZmxvdzp2aXNpYmxlIiBpZD0idXNlMzg3MDciIHg9IjAiIHk9IjAiIHdpZHRoPSIxMDAlIiBoZWlnaHQ9IjEwMCUiLz4mI3hhOwk8L2NsaXBQYXRoPiYjeGE7CTxnIGNsaXAtcGF0aD0idXJsKCNTVkdJRF80XykiIGlkPSJnMzg3MzAiPiYjeGE7CQk8ZGVmcyBpZD0iZGVmczM4NzExIj4mI3hhOwkJCTxyZWN0IGlkPSJTVkdJRF81XyIgeD0iMjkwLjYzIiB5PSI5My44MiIgd2lkdGg9IjkwLjA1OTk5OCIgaGVpZ2h0PSI2NC45MTk5OTgiLz4mI3hhOwkJPC9kZWZzPiYjeGE7CQk8Y2xpcFBhdGggaWQ9IlNWR0lEXzZfIj4mI3hhOwkJCTx1c2UgeGxpbms6aHJlZj0iI1NWR0lEXzVfIiBzdHlsZT0ib3ZlcmZsb3c6dmlzaWJsZSIgaWQ9InVzZTM4NzEzIiB4PSIwIiB5PSIwIiB3aWR0aD0iMTAwJSIgaGVpZ2h0PSIxMDAlIi8+JiN4YTsJCTwvY2xpcFBhdGg+JiN4YTsJCTxwYXRoIHN0eWxlPSJmaWxsOiNlN2VjZWQiIGQ9Ik0gMzc0Ljg4LDE1My41MSBWIDk4LjUyIGMgMCwtMi42MSAtMi4xNywtNC43IC00LjcsLTQuNyBoIC03MC4yNCBjIC0yLjYxLDAgLTQuNywyLjE3IC00LjcsNC43IHYgNTUuMDMgeiIgY2xpcC1wYXRoPSJ1cmwoI1NWR0lEXzZfKSIgaWQ9InBhdGgzODcxNiIgaW5rc2NhcGU6Y29ubmVjdG9yLWN1cnZhdHVyZT0iMCIvPiYjeGE7CQk8cmVjdCB4PSIyOTAuNjMiIHk9IjE1My41MDk5OSIgc3R5bGU9ImZpbGw6I2FmYjZiYiIgd2lkdGg9Ijg4Ljc2OTk5NyIgaGVpZ2h0PSI0LjYxMDAwMDEiIGNsaXAtcGF0aD0idXJsKCNTVkdJRF82XykiIGlkPSJyZWN0Mzg3MTgiLz4mI3hhOwkJPHJlY3QgeD0iMjk5Ljc2MDAxIiB5PSI5OC4zMzk5OTYiIHN0eWxlPSJmaWxsOiM1NDZhNzkiIHdpZHRoPSI3MC40MTk5OTgiIGhlaWdodD0iNDQuNDAwMDAyIiBjbGlwLXBhdGg9InVybCgjU1ZHSURfNl8pIiBpZD0icmVjdDM4NzIwIi8+JiN4YTsJCTxwYXRoIHN0eWxlPSJmaWxsOiM2Yzc5N2EiIGQ9Im0gMzM4LjA1LDE0OC44NSBoIC02LjEyIGMgLTAuOTMsMCAtMS41NSwtMC41OCAtMS41NSwtMS41NSAwLC0wLjkzIDAuNjIsLTEuNTUgMS41NSwtMS41NSBoIDYuMTIgYyAwLjkzLDAgMS41NSwwLjYyIDEuNTUsMS41NSAwLDAuOTggLTAuOCwxLjU1IC0xLjU1LDEuNTUgeiIgY2xpcC1wYXRoPSJ1cmwoI1NWR0lEXzZfKSIgaWQ9InBhdGgzODcyMiIgaW5rc2NhcGU6Y29ubmVjdG9yLWN1cnZhdHVyZT0iMCIvPiYjeGE7CQk8cG9seWdvbiBzdHlsZT0iZmlsbDojZmZmZmZmIiBwb2ludHM9IjMxNC4xMiwxMjIuMTggMzI2LjcsMTE2Ljg2IDMyNi43LDEyMC4yMyAzMTkuMTcsMTIzLjUxIDMyNi43LDEyNi42MSAzMjYuNywxMjkuOTggMzE0LjEyLDEyNC42NiAiIGNsaXAtcGF0aD0idXJsKCNTVkdJRF82XykiIGlkPSJwb2x5Z29uMzg3MjQiLz4mI3hhOwkJPHBvbHlnb24gc3R5bGU9ImZpbGw6I2ZmZmZmZiIgcG9pbnRzPSIzMzAuOTEsMTMxLjI2IDMzOC41NCwxMTIuMDggMzQxLjM3LDExMy4wNSAzMzMuNzEsMTMyLjE5ICIgY2xpcC1wYXRoPSJ1cmwoI1NWR0lEXzZfKSIgaWQ9InBvbHlnb24zODcyNiIvPiYjeGE7CQk8cG9seWdvbiBzdHlsZT0iZmlsbDojZmZmZmZmIiBwb2ludHM9IjM0My4yMywxMjYuNTcgMzUwLjc3LDEyMy40NiAzNDMuMjMsMTIwLjE5IDM0My4yMywxMTYuODIgMzU1LjgyLDEyMi4xMyAzNTUuODIsMTI0LjY2IDM0My4yMywxMjkuOTggIiBjbGlwLXBhdGg9InVybCgjU1ZHSURfNl8pIiBpZD0icG9seWdvbjM4NzI4Ii8+JiN4YTsJPC9nPiYjeGE7PC9nPiYjeGE7PC9zdmc+;" vertex="1" parent="1">
          <mxGeometry x="288.63" y="732.14" width="91.37" height="65.71" as="geometry" />
        </mxCell>
        <mxCell id="xkKd55qxpHbyt4-YmWr0-61" value="" style="shape=image;verticalLabelPosition=bottom;labelBackgroundColor=#ffffff;verticalAlign=top;aspect=fixed;imageAspect=0;image=data:image/svg+xml,PHN2ZyB4bWxuczpkYz0iaHR0cDovL3B1cmwub3JnL2RjL2VsZW1lbnRzLzEuMS8iIHhtbG5zOmNjPSJodHRwOi8vY3JlYXRpdmVjb21tb25zLm9yZy9ucyMiIHhtbG5zOnJkZj0iaHR0cDovL3d3dy53My5vcmcvMTk5OS8wMi8yMi1yZGYtc3ludGF4LW5zIyIgeG1sbnM6c3ZnPSJodHRwOi8vd3d3LnczLm9yZy8yMDAwL3N2ZyIgeG1sbnM9Imh0dHA6Ly93d3cudzMub3JnLzIwMDAvc3ZnIiB4bWxuczp4bGluaz0iaHR0cDovL3d3dy53My5vcmcvMTk5OS94bGluayIgeG1sbnM6c29kaXBvZGk9Imh0dHA6Ly9zb2RpcG9kaS5zb3VyY2Vmb3JnZS5uZXQvRFREL3NvZGlwb2RpLTAuZHRkIiB4bWxuczppbmtzY2FwZT0iaHR0cDovL3d3dy5pbmtzY2FwZS5vcmcvbmFtZXNwYWNlcy9pbmtzY2FwZSIgdmVyc2lvbj0iMS4xIiBpZD0iTGF5ZXJfMSIgeD0iMHB4IiB5PSIwcHgiIHZpZXdCb3g9IjAgMCAzNS45MjkxNDIgMzMuNzUiIHhtbDpzcGFjZT0icHJlc2VydmUiIHNvZGlwb2RpOmRvY25hbWU9InNhcF9zZV9jbG91ZF9pbnRlZ3JhdGlvbi5zdmciIHdpZHRoPSIzNS45MjkxNDIiIGhlaWdodD0iMzMuNzUiIGlua3NjYXBlOnZlcnNpb249IjAuOTIuMyAoMjQwNTU0NiwgMjAxOC0wMy0xMSkiPjxtZXRhZGF0YSBpZD0ibWV0YWRhdGE1NjY0NSI+PHJkZjpSREY+PGNjOldvcmsgcmRmOmFib3V0PSIiPjxkYzpmb3JtYXQ+aW1hZ2Uvc3ZnK3htbDwvZGM6Zm9ybWF0PjxkYzp0eXBlIHJkZjpyZXNvdXJjZT0iaHR0cDovL3B1cmwub3JnL2RjL2RjbWl0eXBlL1N0aWxsSW1hZ2UiLz48ZGM6dGl0bGUvPjwvY2M6V29yaz48L3JkZjpSREY+PC9tZXRhZGF0YT48ZGVmcyBpZD0iZGVmczU2NjQzIi8+PHNvZGlwb2RpOm5hbWVkdmlldyBwYWdlY29sb3I9IiNmZmZmZmYiIGJvcmRlcmNvbG9yPSIjNjY2NjY2IiBib3JkZXJvcGFjaXR5PSIxIiBvYmplY3R0b2xlcmFuY2U9IjEwIiBncmlkdG9sZXJhbmNlPSIxMCIgZ3VpZGV0b2xlcmFuY2U9IjEwIiBpbmtzY2FwZTpwYWdlb3BhY2l0eT0iMCIgaW5rc2NhcGU6cGFnZXNoYWRvdz0iMiIgaW5rc2NhcGU6d2luZG93LXdpZHRoPSIxOTIwIiBpbmtzY2FwZTp3aW5kb3ctaGVpZ2h0PSIxMDE3IiBpZD0ibmFtZWR2aWV3NTY2NDEiIHNob3dncmlkPSJmYWxzZSIgZml0LW1hcmdpbi10b3A9IjAiIGZpdC1tYXJnaW4tbGVmdD0iMCIgZml0LW1hcmdpbi1yaWdodD0iMCIgZml0LW1hcmdpbi1ib3R0b209IjAiIGlua3NjYXBlOnpvb209IjEuMDMwMzAzIiBpbmtzY2FwZTpjeD0iLTM2LjU3NTg1NiIgaW5rc2NhcGU6Y3k9Ii0xOTEuMzgiIGlua3NjYXBlOndpbmRvdy14PSItOCIgaW5rc2NhcGU6d2luZG93LXk9Ii04IiBpbmtzY2FwZTp3aW5kb3ctbWF4aW1pemVkPSIxIiBpbmtzY2FwZTpjdXJyZW50LWxheWVyPSJMYXllcl8xIi8+JiN4YTsmI3hhOzxnIGlkPSJnNTY2MzgiIHRyYW5zZm9ybT0idHJhbnNsYXRlKC0zMzMuOTUwODYsLTE5NS42MikiPiYjeGE7CTxkZWZzIGlkPSJkZWZzNTY2MjEiPiYjeGE7CQk8cmVjdCBpZD0iU1ZHSURfM18iIHg9IjMzMy45NCIgeT0iMTk1LjYyIiB3aWR0aD0iMzYuODIiIGhlaWdodD0iMzMuOTkwMDAyIi8+JiN4YTsJPC9kZWZzPiYjeGE7CTxjbGlwUGF0aCBpZD0iU1ZHSURfNF8iPiYjeGE7CQk8dXNlIHhsaW5rOmhyZWY9IiNTVkdJRF8zXyIgc3R5bGU9Im92ZXJmbG93OnZpc2libGUiIGlkPSJ1c2U1NjYyMyIgeD0iMCIgeT0iMCIgd2lkdGg9IjEwMCUiIGhlaWdodD0iMTAwJSIvPiYjeGE7CTwvY2xpcFBhdGg+JiN4YTsJPGcgY2xpcC1wYXRoPSJ1cmwoI1NWR0lEXzRfKSIgaWQ9Imc1NjYzNiI+JiN4YTsJCTxkZWZzIGlkPSJkZWZzNTY2MjciPiYjeGE7CQkJPHJlY3QgaWQ9IlNWR0lEXzVfIiB4PSIzMzMuOTQiIHk9IjE5NS42MiIgd2lkdGg9IjM2LjgyIiBoZWlnaHQ9IjMzLjk5MDAwMiIvPiYjeGE7CQk8L2RlZnM+JiN4YTsJCTxjbGlwUGF0aCBpZD0iU1ZHSURfNl8iPiYjeGE7CQkJPHVzZSB4bGluazpocmVmPSIjU1ZHSURfNV8iIHN0eWxlPSJvdmVyZmxvdzp2aXNpYmxlIiBpZD0idXNlNTY2MjkiIHg9IjAiIHk9IjAiIHdpZHRoPSIxMDAlIiBoZWlnaHQ9IjEwMCUiLz4mI3hhOwkJPC9jbGlwUGF0aD4mI3hhOwkJPHBhdGggc3R5bGU9ImZpbGw6IzAwOTJkMSIgZD0ibSAzNjcuNiwyMjAuMzYgaCAtMi4yMiB2IC0yLjI4IGggMi4yMiB6IG0gLTYuNyw0LjQ5IHYgMCAyLjIyIGggLTIuMjggdiAtMi4yMiB6IG0gLTQuNSwtNi43NyB2IC0yLjIyIGggMi4yMiB2IDIuMjIgeiBtIC02Ljc3LDQuNSBoIC0yLjIyIHYgLTIuMjIgaCAyLjIyIHogbSAyLjI4LC0xMS4yIGggLTIuMjggdiAtMi4yOCBoIDIuMjggeiBtIDExLjIsLTQuNSBoIDIuMjggdiAyLjIyIGggLTIuMjggeiBtIDQuNDksOC45OSBoIC0yLjIyIGMgLTEuMjYsLTAuMDYgLTIuMjIsMC45NiAtMi4yOCwyLjIyIGwgLTIuMjIsLTAuOSB2IC0xLjMyIGMgMCwtMC40OCAtMC4xOCwtMC45IC0wLjQyLC0xLjI2IGwgMi41MiwtMy4yOSBjIDAuMDYsMCAwLjEyLDAgMC4xOCwwIGggMi4yMiBjIDEuMjYsMCAyLjI4LC0wLjk2IDIuMjgsLTIuMjIgdiAtMi4yMiBjIDAsLTEuMjYgLTEuMDIsLTIuMjggLTIuMjgsLTIuMjggaCAtMi4yOCBjIC0xLjIsMCAtMi4yMiwxLjAyIC0yLjIyLDIuMjggdiAyLjIyIGMgMCwwLjcyIDAuMzYsMS4zOCAwLjk2LDEuOCBsIC0yLjIyLDIuOTMgYyAtMC4zLC0wLjEyIC0wLjY2LC0wLjI0IC0xLjAyLC0wLjI0IGggLTIuMjIgYyAtMC40MiwwIC0wLjc4LDAuMTIgLTEuMTQsMC4zNiBsIC0xLjQ0LC0xLjUgYyAwLjE4LC0wLjMgMC4zLC0wLjcyIDAuMywtMS4wOCB2IC0yLjI4IGMgMCwtMS4yNiAtMC45NiwtMi4yMiAtMi4yMiwtMi4yMiBoIC0yLjI4IGMgLTEuMiwwIC0yLjIyLDAuOTYgLTIuMjIsMi4yMiB2IDIuMjggYyAwLDEuMiAxLjAyLDIuMjIgMi4yMiwyLjIyIGggMi4yOCBjIDAuNDIsMCAwLjc4LC0wLjEyIDEuMTQsLTAuMzYgbCAxLjQ0LDEuNSBjIC0wLjE4LDAuMyAtMC4zLDAuNzIgLTAuMzYsMS4xNCB2IDIuMSBsIC0yLjU4LDEuMjYgYyAtMC4zNiwtMC43MiAtMS4wOCwtMS4xNCAtMS45MiwtMS4xNCBoIC0yLjIyIGMgLTEuMjYsMCAtMi4yOCwxLjAyIC0yLjI4LDIuMjggdiAyLjIyIGMgMCwxLjI2IDEuMDIsMi4yOCAyLjI4LDIuMjggaCAyLjIyIGMgMS4yNiwwIDIuMjgsLTEuMDIgMi4yOCwtMi4yOCB2IC0yLjIyIC0wLjA2IGwgMi41MiwtMS4yIGMgMC4zNiwwLjcyIDEuMTQsMS4yIDEuOTgsMS4yNiBoIDEuMzIgbCAwLjksMi4yMiBjIC0xLjIsMCAtMi4yMiwxLjAyIC0yLjIyLDIuMjggdiAyLjIyIGMgMCwxLjI2IDEuMDIsMi4yOCAyLjIyLDIuMjggaCAyLjI4IGMgMS4yNiwwIDIuMjIsLTEuMDIgMi4yMiwtMi4yOCB2IC0yLjIyIGMgMCwtMS4yNiAtMC45NiwtMi4yOCAtMi4yMiwtMi4yOCBoIC0xLjA4IGwgLTAuOSwtMi4yOCBjIDEuMDIsLTAuMTggMS44LC0wLjk2IDEuOTIsLTEuOTIgbCAyLjI4LDAuOSB2IDEuMDggYyAwLDEuMiAxLjAyLDIuMjIgMi4yOCwyLjIyIGggMi4yMiBjIDEuMjYsMCAyLjI4LC0xLjAyIDIuMjgsLTIuMjIgdiAtMi4yOCBjIDAsLTEuMjYgLTEuMDIsLTIuMjIgLTIuMjgsLTIuMjIgeiIgY2xpcC1wYXRoPSJ1cmwoI1NWR0lEXzZfKSIgaWQ9InBhdGg1NjYzMiIgaW5rc2NhcGU6Y29ubmVjdG9yLWN1cnZhdHVyZT0iMCIvPiYjeGE7CQk8cGF0aCBzdHlsZT0iZmlsbDojNWE3YTk0IiBkPSJtIDM0NS4xNCwyMTMuNTkgaCAtNC45MSBjIC00LjYxLDAgLTUuNjMsLTYuNDcgLTEuMjYsLTcuOTEgbCAxLjc0LC0wLjU0IC0wLjE4LC0xLjggYyAtMC4xMiwtMS40NCAwLjMsLTIuODIgMS4xNCwtMy45NSAwLjksLTEuMDIgMi4yMiwtMS41NiAzLjU5LC0xLjUgMS45OCwtMC4wNiAzLjcxLDEuMTQgNC4zNywyLjk5IGwgMC45NiwyLjQ2IDIuMjgsLTEuMzggYyAwLjQ4LC0wLjMgMS4wMiwtMC40MiAxLjU2LC0wLjQyIDEuNDQsMCAyLjY0LDEuMDIgMi45NCwyLjQgbCAwLjEyLDAuNjYgaCAyLjIyIGMgMCwtMC4zIC0wLjA2LC0wLjY2IC0wLjEyLC0xLjAyIC0wLjY2LC0zLjU5IC00LjczLC01LjQ1IC03Ljg1LC0zLjUzIC0xLjA4LC0yLjY0IC0zLjY1LC00LjQzIC02LjUzLC00LjQzIC03LjYxLDAuMTggLTYuOTUsNy45NyAtNi45NSw3Ljk3IC02Ljc3LDIuMjIgLTUuMTUsMTIuMjggMS45OCwxMi4yMiBoIDQuOTEgdiAtMi4yMiB6IiBjbGlwLXBhdGg9InVybCgjU1ZHSURfNl8pIiBpZD0icGF0aDU2NjM0IiBpbmtzY2FwZTpjb25uZWN0b3ItY3VydmF0dXJlPSIwIi8+JiN4YTsJPC9nPiYjeGE7PC9nPiYjeGE7PC9zdmc+;" vertex="1" parent="1">
          <mxGeometry x="220" y="616.53" width="60.29" height="56.94" as="geometry" />
        </mxCell>
        <mxCell id="xkKd55qxpHbyt4-YmWr0-72" value="" style="endArrow=classic;startArrow=classic;html=1;rounded=0;entryX=0;entryY=1;entryDx=0;entryDy=0;" edge="1" parent="1" source="xkKd55qxpHbyt4-YmWr0-49" target="xkKd55qxpHbyt4-YmWr0-51">
          <mxGeometry width="50" height="50" relative="1" as="geometry">
            <mxPoint x="480" y="610" as="sourcePoint" />
            <mxPoint x="530" y="560" as="targetPoint" />
          </mxGeometry>
        </mxCell>
        <mxCell id="xkKd55qxpHbyt4-YmWr0-73" value="" style="endArrow=classic;startArrow=classic;html=1;rounded=0;entryX=0.452;entryY=1.042;entryDx=0;entryDy=0;entryPerimeter=0;exitX=0;exitY=0;exitDx=0;exitDy=0;" edge="1" parent="1" source="xkKd55qxpHbyt4-YmWr0-49" target="xkKd55qxpHbyt4-YmWr0-46">
          <mxGeometry width="50" height="50" relative="1" as="geometry">
            <mxPoint x="480" y="610" as="sourcePoint" />
            <mxPoint x="530" y="560" as="targetPoint" />
          </mxGeometry>
        </mxCell>
        <mxCell id="xkKd55qxpHbyt4-YmWr0-74" value="" style="endArrow=classic;startArrow=classic;html=1;rounded=0;entryX=0;entryY=0.5;entryDx=0;entryDy=0;exitX=1;exitY=0.5;exitDx=0;exitDy=0;" edge="1" parent="1" source="xkKd55qxpHbyt4-YmWr0-49" target="xkKd55qxpHbyt4-YmWr0-48">
          <mxGeometry width="50" height="50" relative="1" as="geometry">
            <mxPoint x="490" y="620" as="sourcePoint" />
            <mxPoint x="540" y="570" as="targetPoint" />
          </mxGeometry>
        </mxCell>
        <mxCell id="xkKd55qxpHbyt4-YmWr0-75" value="" style="endArrow=classic;startArrow=classic;html=1;rounded=0;exitX=1;exitY=1;exitDx=0;exitDy=0;" edge="1" parent="1" source="xkKd55qxpHbyt4-YmWr0-49" target="xkKd55qxpHbyt4-YmWr0-50">
          <mxGeometry width="50" height="50" relative="1" as="geometry">
            <mxPoint x="480" y="610" as="sourcePoint" />
            <mxPoint x="530" y="560" as="targetPoint" />
          </mxGeometry>
        </mxCell>
        <mxCell id="xkKd55qxpHbyt4-YmWr0-76" value="" style="endArrow=classic;startArrow=classic;html=1;rounded=0;entryX=1;entryY=1;entryDx=0;entryDy=0;exitX=0.25;exitY=0;exitDx=0;exitDy=0;" edge="1" parent="1" source="xkKd55qxpHbyt4-YmWr0-48" target="xkKd55qxpHbyt4-YmWr0-51">
          <mxGeometry width="50" height="50" relative="1" as="geometry">
            <mxPoint x="480" y="610" as="sourcePoint" />
            <mxPoint x="530" y="560" as="targetPoint" />
          </mxGeometry>
        </mxCell>
        <mxCell id="xkKd55qxpHbyt4-YmWr0-77" value="" style="endArrow=classic;startArrow=classic;html=1;rounded=0;entryX=0.25;entryY=1;entryDx=0;entryDy=0;exitX=1;exitY=0.41;exitDx=0;exitDy=0;exitPerimeter=0;" edge="1" parent="1" source="xkKd55qxpHbyt4-YmWr0-50" target="xkKd55qxpHbyt4-YmWr0-48">
          <mxGeometry width="50" height="50" relative="1" as="geometry">
            <mxPoint x="480" y="610" as="sourcePoint" />
            <mxPoint x="530" y="560" as="targetPoint" />
          </mxGeometry>
        </mxCell>
        <mxCell id="xkKd55qxpHbyt4-YmWr0-78" value="" style="endArrow=classic;startArrow=classic;html=1;rounded=0;entryX=0.5;entryY=0;entryDx=0;entryDy=0;exitX=0.465;exitY=1.042;exitDx=0;exitDy=0;exitPerimeter=0;" edge="1" parent="1" source="xkKd55qxpHbyt4-YmWr0-46" target="xkKd55qxpHbyt4-YmWr0-61">
          <mxGeometry width="50" height="50" relative="1" as="geometry">
            <mxPoint x="250" y="730" as="sourcePoint" />
            <mxPoint x="300" y="680" as="targetPoint" />
          </mxGeometry>
        </mxCell>
        <mxCell id="xkKd55qxpHbyt4-YmWr0-79" value="" style="endArrow=classic;startArrow=classic;html=1;rounded=0;entryX=0.5;entryY=1;entryDx=0;entryDy=0;exitX=0.5;exitY=0;exitDx=0;exitDy=0;" edge="1" parent="1" source="xkKd55qxpHbyt4-YmWr0-60" target="xkKd55qxpHbyt4-YmWr0-61">
          <mxGeometry width="50" height="50" relative="1" as="geometry">
            <mxPoint x="230" y="750" as="sourcePoint" />
            <mxPoint x="280" y="700" as="targetPoint" />
          </mxGeometry>
        </mxCell>
        <mxCell id="xkKd55qxpHbyt4-YmWr0-80" value="" style="endArrow=classic;startArrow=classic;html=1;rounded=0;exitX=0.5;exitY=0;exitDx=0;exitDy=0;" edge="1" parent="1" source="xkKd55qxpHbyt4-YmWr0-60" target="xkKd55qxpHbyt4-YmWr0-49">
          <mxGeometry width="50" height="50" relative="1" as="geometry">
            <mxPoint x="480" y="610" as="sourcePoint" />
            <mxPoint x="530" y="560" as="targetPoint" />
          </mxGeometry>
        </mxCell>
        <mxCell id="xkKd55qxpHbyt4-YmWr0-81" value="" style="shape=image;verticalLabelPosition=bottom;labelBackgroundColor=#ffffff;verticalAlign=top;aspect=fixed;imageAspect=0;image=data:image/svg+xml,PHN2ZyB4bWxuczpjYz0iaHR0cDovL2NyZWF0aXZlY29tbW9ucy5vcmcvbnMjIiB4bWxuczpkYz0iaHR0cDovL3B1cmwub3JnL2RjL2VsZW1lbnRzLzEuMS8iIHhtbG5zOmlua3NjYXBlPSJodHRwOi8vd3d3Lmlua3NjYXBlLm9yZy9uYW1lc3BhY2VzL2lua3NjYXBlIiB4bWxuczpyZGY9Imh0dHA6Ly93d3cudzMub3JnLzE5OTkvMDIvMjItcmRmLXN5bnRheC1ucyMiIHhtbG5zOnNvZGlwb2RpPSJodHRwOi8vc29kaXBvZGkuc291cmNlZm9yZ2UubmV0L0RURC9zb2RpcG9kaS0wLmR0ZCIgeG1sbnM6c3ZnPSJodHRwOi8vd3d3LnczLm9yZy8yMDAwL3N2ZyIgeG1sbnM9Imh0dHA6Ly93d3cudzMub3JnLzIwMDAvc3ZnIiB4bWxuczp4bGluaz0iaHR0cDovL3d3dy53My5vcmcvMTk5OS94bGluayIgdmVyc2lvbj0iMS4xIiBpZD0ic3ZnMTM2NyIgaW5rc2NhcGU6dmVyc2lvbj0iMC45Mi4zICgyNDA1NTQ2LCAyMDE4LTAzLTExKSIgc29kaXBvZGk6ZG9jbmFtZT0iYW5kcm9pZF90YWJsZXQuc3ZnIiB4PSIwcHgiIHk9IjBweCIgdmlld0JveD0iMCAwIDQzLjQ2IDI4LjgiIHN0eWxlPSJlbmFibGUtYmFja2dyb3VuZDpuZXcgMCAwIDQzLjQ2IDI4Ljg7IiB4bWw6c3BhY2U9InByZXNlcnZlIj4mI3hhOzxzb2RpcG9kaTpuYW1lZHZpZXcgYm9yZGVyY29sb3I9IiM2NjY2NjYiIGJvcmRlcm9wYWNpdHk9IjEiIGZpdC1tYXJnaW4tYm90dG9tPSIwIiBmaXQtbWFyZ2luLWxlZnQ9IjAiIGZpdC1tYXJnaW4tcmlnaHQ9IjAiIGZpdC1tYXJnaW4tdG9wPSIwIiBncmlkdG9sZXJhbmNlPSIxMCIgZ3VpZGV0b2xlcmFuY2U9IjEwIiBpZD0ibmFtZWR2aWV3MTM2OSIgaW5rc2NhcGU6Y3VycmVudC1sYXllcj0ic3ZnMTM2NyIgaW5rc2NhcGU6Y3g9IjI4Ljk3NTkyIiBpbmtzY2FwZTpjeT0iMTkuMjAyMTI2IiBpbmtzY2FwZTpwYWdlb3BhY2l0eT0iMCIgaW5rc2NhcGU6cGFnZXNoYWRvdz0iMiIgaW5rc2NhcGU6d2luZG93LWhlaWdodD0iMTAxNyIgaW5rc2NhcGU6d2luZG93LW1heGltaXplZD0iMSIgaW5rc2NhcGU6d2luZG93LXdpZHRoPSIxOTIwIiBpbmtzY2FwZTp3aW5kb3cteD0iLTgiIGlua3NjYXBlOndpbmRvdy15PSItOCIgaW5rc2NhcGU6em9vbT0iMjIuNTgwNjY1IiBvYmplY3R0b2xlcmFuY2U9IjEwIiBwYWdlY29sb3I9IiNmZmZmZmYiIHNob3dncmlkPSJmYWxzZSI+JiN4YTsJPC9zb2RpcG9kaTpuYW1lZHZpZXc+JiN4YTs8ZyBpZD0iZzEzNjUiPiYjeGE7CTx0aXRsZSBpZD0idGl0bGUxMjk1Ij5QYWdlLTE8L3RpdGxlPiYjeGE7CTxnIGlkPSJncm91cDMzMDMtMSI+JiN4YTsJCTx0aXRsZSBpZD0idGl0bGUxMjk3Ij5BbmRyb2lkIFRhYmxldC4xOTQ8L3RpdGxlPiYjeGE7CQk8ZyBpZD0ic2hhcGUzMzA0LTIiPiYjeGE7CQkJPHRpdGxlIGlkPSJ0aXRsZTEyOTkiPlNoZWV0LjMzMDQ8L3RpdGxlPiYjeGE7CQkJPHBhdGggaWQ9InBhdGgxMzAxIiBpbmtzY2FwZTpjb25uZWN0b3ItY3VydmF0dXJlPSIwIiBzdHlsZT0iZmlsbDojM0Y1NzY1OyIgZD0iTTEuNzYsMjguOEMwLjY5LDI4LjgsMCwyOC4xNSwwLDI3LjA3ICAgICBDMCwxLjc2LDAsMS43NiwwLDEuNzZDMCwwLjg4LDAuNjksMCwxLjc2LDBjMzkuOTgsMCwzOS45OCwwLDM5Ljk4LDBjMC44OCwwLDEuNzIsMC44OCwxLjcyLDEuNzZjMCwyNS4zMSwwLDI1LjMxLDAsMjUuMzEgICAgIGMwLDEuMDgtMC44NCwxLjczLTEuNzIsMS43M0gxLjc2eiIvPiYjeGE7CQk8L2c+JiN4YTsJCTxnIGlkPSJzaGFwZTMzMDUtNCIgdHJhbnNmb3JtPSJ0cmFuc2xhdGUoMy4wNjA4NCwtMy4wNjM0OCkiPiYjeGE7CQkJPHRpdGxlIGlkPSJ0aXRsZTEzMDQiPlNoZWV0LjMzMDU8L3RpdGxlPiYjeGE7CQkJPHBhdGggaWQ9InBhdGgxMzA2IiBpbmtzY2FwZTpjb25uZWN0b3ItY3VydmF0dXJlPSIwIiBzdHlsZT0iZmlsbDojRkZGRkZGOyIgZD0iTTAsNi4xM1YyOC44aDM2LjczVjYuMTNIMHoiLz4mI3hhOwkJPC9nPiYjeGE7CQk8ZyBpZD0ic2hhcGUzMzA2LTYiIHRyYW5zZm9ybT0idHJhbnNsYXRlKDI2LjMyMzIsLTExLjY0MTIpIj4mI3hhOwkJCTx0aXRsZSBpZD0idGl0bGUxMzA5Ij5TaGVldC4zMzA2PC90aXRsZT4mI3hhOwkJCTxwYXRoIGlkPSJwYXRoMTMxMSIgaW5rc2NhcGU6Y29ubmVjdG9yLWN1cnZhdHVyZT0iMCIgc3R5bGU9ImZpbGw6Izk3QzAzRTsiIGQ9Ik0xLjg0LDI0LjJjMCwzLjY4LDAsMy42OCwwLDMuNjggICAgIGMwLDAuMjMsMCwwLjQ2LTAuMjMsMC42OWMwLDAuMjMtMC4yMywwLjIzLTAuNjksMC4yM0MwLjQ2LDI4LjgsMCwyOC4zNCwwLDI3Ljg4YzAtMy42OCwwLTMuNjgsMC0zLjY4ICAgICBjMC0wLjIzLDAuMjMtMC40NiwwLjQ2LTAuNjljMC0wLjIzLDAuMjMtMC4yMywwLjQ2LTAuMjNDMS42MSwyMy4yOCwxLjg0LDIzLjUxLDEuODQsMjQuMnoiLz4mI3hhOwkJPC9nPiYjeGE7CQk8ZyBpZD0ic2hhcGUzMzA3LTgiIHRyYW5zZm9ybT0idHJhbnNsYXRlKDE3Ljc1MjksLTYuNzM5NjcpIj4mI3hhOwkJCTx0aXRsZSBpZD0idGl0bGUxMzE0Ij5TaGVldC4zMzA3PC90aXRsZT4mI3hhOwkJCTxwYXRoIGlkPSJwYXRoMTMxNiIgaW5rc2NhcGU6Y29ubmVjdG9yLWN1cnZhdHVyZT0iMCIgc3R5bGU9ImZpbGw6Izk3QzAzRTsiIGQ9Ik03Ljk2LDE4LjM4YzAsNi4zNiwwLDYuMzYsMCw2LjM2ICAgICBjMCwwLjY5LDAsMS4xNS0xLjA3LDEuMTVjLTAuNDYsMC0wLjQ2LDAtMC40NiwwYzAsMi4wMywwLDIuMDMsMCwyLjAzYzAsMC40Ni0wLjQ2LDAuODgtMC44OCwwLjg4Yy0wLjQ2LDAtMC44OC0wLjQyLTAuODgtMC44OCAgICAgYzAtMi4wMywwLTIuMDMsMC0yLjAzYy0xLjU3LDAtMS41NywwLTEuNTcsMGMwLDIuMDMsMCwyLjAzLDAsMi4wM2MwLDAuNDYtMC4xOSwwLjg4LTAuODgsMC44OGMtMC40MiwwLTAuODgtMC40Mi0wLjg4LTAuODggICAgIGMwLTIuMDMsMC0yLjAzLDAtMi4wM2MtMC40MiwwLTAuNDIsMC0wLjQyLDBDMCwyNS44OSwwLDI1LjQzLDAsMjQuNzRjMC02LjM2LDAtNi4zNiwwLTYuMzZINy45NnoiLz4mI3hhOwkJPC9nPiYjeGE7CQk8ZyBpZD0ic2hhcGUzMzA4LTEwIiB0cmFuc2Zvcm09InRyYW5zbGF0ZSgxNy43NTI5LC0xNy43NjgyKSI+JiN4YTsJCQk8dGl0bGUgaWQ9InRpdGxlMTMxOSI+U2hlZXQuMzMwODwvdGl0bGU+JiN4YTsJCQk8cGF0aCBpZD0icGF0aDEzMjEiIGlua3NjYXBlOmNvbm5lY3Rvci1jdXJ2YXR1cmU9IjAiIHN0eWxlPSJmaWxsOiNGRkZGRkY7IiBkPSJNNy45NiwyOC44QzAsMjguOCwwLDI4LjgsMCwyOC44ICAgICBjMC0xLDAuNjktMi4wMywxLjk5LTIuNjVjLTAuNjUtMC44LTAuNjUtMC44LTAuNjUtMC44YzAtMC4yMywwLTAuMjMsMC0wLjIzczAsMCwwLjIzLDBjMC42NSwxLjAzLDAuNjUsMS4wMywwLjY1LDEuMDMgICAgIGMwLjQ2LTAuMTksMS4xMS0wLjE5LDEuNzYtMC4xOWMwLjQ2LDAsMS4xMSwwLDEuNTcsMC4xOWMwLjg4LTEuMDMsMC44OC0xLjAzLDAuODgtMS4wM3MwLDAsMC4yMywwYzAsMCwwLDAsMCwwLjIzICAgICBjLTAuODgsMC44LTAuODgsMC44LTAuODgsMC44QzcuMDgsMjYuNzcsNy45NiwyNy44LDcuOTYsMjguOHogTTYuMiwyNy4zOGMwLTAuMTktMC4yMy0wLjQyLTAuNDItMC40MiAgICAgYy0wLjQ2LDAtMC40NiwwLjIzLTAuNDYsMC40MnMwLDAuNDIsMC40NiwwLjQyQzUuOTcsMjcuOCw2LjIsMjcuNTcsNi4yLDI3LjM4eiBNMi42OCwyNy4zOGMwLTAuMTktMC4yMy0wLjQyLTAuNDYtMC40MiAgICAgUzEuOCwyNy4xOSwxLjgsMjcuMzhzMC4xOSwwLjQyLDAuNDIsMC40MlMyLjY4LDI3LjU3LDIuNjgsMjcuMzh6Ii8+JiN4YTsJCTwvZz4mI3hhOwkJPGcgaWQ9InNoYXBlMzMwOS0xMiIgdHJhbnNmb3JtPSJ0cmFuc2xhdGUoMTUuMzA0MiwtMTEuNjQxMikiPiYjeGE7CQkJPHRpdGxlIGlkPSJ0aXRsZTEzMjQiPlNoZWV0LjMzMDk8L3RpdGxlPiYjeGE7CQkJPHBhdGggaWQ9InBhdGgxMzI2IiBpbmtzY2FwZTpjb25uZWN0b3ItY3VydmF0dXJlPSIwIiBzdHlsZT0iZmlsbDojOTdDMDNFOyIgZD0iTTEuODQsMjQuMmMwLDMuNjgsMCwzLjY4LDAsMy42OCAgICAgYzAsMC4yMywwLDAuNDYtMC4yMywwLjY5QzEuMzgsMjguOCwxLjE1LDI4LjgsMC45MiwyOC44QzAuNDYsMjguOCwwLDI4LjM0LDAsMjcuODhjMC0zLjY4LDAtMy42OCwwLTMuNjggICAgIGMwLTAuMjMsMC4yMy0wLjQ2LDAuMjMtMC42OWMwLjIzLTAuMjMsMC40Ni0wLjIzLDAuNjktMC4yM0MxLjM4LDIzLjI4LDEuODQsMjMuNTEsMS44NCwyNC4yeiIvPiYjeGE7CQk8L2c+JiN4YTsJCTxnIGlkPSJzaGFwZTMzMTAtMTQiIHRyYW5zZm9ybT0idHJhbnNsYXRlKDE1LjMwNDIsLTYuMTI2OTcpIj4mI3hhOwkJCTx0aXRsZSBpZD0idGl0bGUxMzI5Ij5TaGVldC4zMzEwPC90aXRsZT4mI3hhOwkJCTxwYXRoIGlkPSJwYXRoMTMzMSIgaW5rc2NhcGU6Y29ubmVjdG9yLWN1cnZhdHVyZT0iMCIgc3R5bGU9ImZpbGw6I0ZGRkZGRjsiIGQ9Ik0xMS45OCwxNy41NGMtMC4yMywwLTAuNjUsMC4yMy0wLjg4LDAuMjMgICAgIGMwLTAuMjMsMC0wLjIzLDAtMC4yM2wwLDBjMC0xLjExLTAuNjUtMi4yMi0xLjczLTMuMWMwLjQyLTAuNDYsMC40Mi0wLjQ2LDAuNDItMC40NmMwLTAuMTksMC4yMy0wLjE5LDAtMC40MiAgICAgYzAtMC4yMywwLTAuNDYtMC4yMi0wLjQ2YzAtMC4yMy0wLjItMC4yMy0wLjQzLTAuMjNjLTAuMjMsMC0wLjQyLDAuMjMtMC40MiwwLjQ2Yy0wLjY1LDAuNjUtMC42NSwwLjY1LTAuNjUsMC42NSAgICAgYy0wLjQ2LTAuMTktMC44OC0wLjE5LTEuMzQtMC4xOWMtMC42NSwwLTEuMDcsMC0xLjQ5LDAuMTljLTAuNDYtMC42NS0wLjQ2LTAuNjUtMC40Ni0wLjY1Yy0wLjE5LTAuMjMtMC40Mi0wLjQ2LTAuNjUtMC40NiAgICAgYzAsMC0wLjE5LDAtMC40MiwwLjIzYzAsMC0wLjIzLDAuMjMtMC4yMywwLjQ2YzAsMC4yMywwLDAuMjMsMC4yMywwLjQyYzAuMjMsMC40NiwwLjIzLDAuNDYsMC4yMywwLjQ2ICAgICBjLTEuMTEsMC44OC0xLjc2LDEuOTktMS43NiwzLjFsMCwwYzAsMC4yMywwLDAuMjMsMCwwLjIzYy0wLjE5LDAtMC40Mi0wLjIzLTAuODQtMC4yM0MwLjQ2LDE3LjU0LDAsMTguMTksMCwxOS4wNyAgICAgYzAsMy41NiwwLDMuNTYsMCwzLjU2YzAsMC44OCwwLjQ2LDEuNTMsMS4zNCwxLjUzYzAuNDIsMCwwLjY1LTAuMjMsMC44NC0wLjQyYzAsMC42NSwwLDAuNjUsMCwwLjY1YzAsMC40MiwwLDEuNTMsMS41MywxLjUzICAgICBjMCwxLjU3LDAsMS41NywwLDEuNTdjMCwwLjY2LDAuNjUsMS4zMSwxLjMsMS4zMWMwLjg4LDAsMS41My0wLjY1LDEuNTMtMS4zMWMwLTEuNTcsMC0xLjU3LDAtMS41N2MwLjQyLDAsMC40MiwwLDAuNDIsMCAgICAgYzAsMS41NywwLDEuNTcsMCwxLjU3YzAsMC42NiwwLjY1LDEuMzEsMS4zLDEuMzFjMC44OCwwLDEuNTMtMC42NSwxLjUzLTEuMzFjMC0xLjU3LDAtMS41NywwLTEuNTdjMS4zMSwwLDEuMzEtMS4xMSwxLjMxLTEuNTMgICAgIGMwLTAuNjUsMC0wLjY1LDAtMC42NWMwLjIzLDAuMTksMC42NSwwLjQyLDAuODgsMC40MmMwLjg0LDAsMS40OS0wLjY1LDEuNDktMS41M2MwLTMuNTYsMC0zLjU2LDAtMy41NiAgICAgQzEzLjQ3LDE4LjE5LDEyLjgyLDE3LjU0LDExLjk4LDE3LjU0eiIvPiYjeGE7CQk8L2c+JiN4YTsJCTxnIGlkPSJzaGFwZTMzMTEtMTYiIHRyYW5zZm9ybT0idHJhbnNsYXRlKDE1LjMwNDIsLTExLjY0MTIpIj4mI3hhOwkJCTx0aXRsZSBpZD0idGl0bGUxMzM0Ij5TaGVldC4zMzExPC90aXRsZT4mI3hhOwkJCTxwYXRoIGlkPSJwYXRoMTMzNiIgaW5rc2NhcGU6Y29ubmVjdG9yLWN1cnZhdHVyZT0iMCIgc3R5bGU9ImZpbGw6IzNGNTc2NTsiIGQ9Ik0xLjg0LDI0LjJjMC0wLjY5LTAuNDYtMC45Mi0wLjkyLTAuOTIgICAgIGMtMC4yMywwLTAuNDYsMC0wLjY5LDAuMjNDMC4yMywyMy43NCwwLDIzLjk3LDAsMjQuMmMwLDMuNjgsMCwzLjY4LDAsMy42OGMwLDAuNDYsMC40NiwwLjkyLDAuOTIsMC45MmMwLjIzLDAsMC40NiwwLDAuNjktMC4yMyAgICAgczAuMjMtMC40NiwwLjIzLTAuNjlWMjQuMnoiLz4mI3hhOwkJPC9nPiYjeGE7CQk8ZyBpZD0ic2hhcGUzMzEyLTE4IiB0cmFuc2Zvcm09InRyYW5zbGF0ZSgxNy43NTI5LC02LjczOTY3KSI+JiN4YTsJCQk8dGl0bGUgaWQ9InRpdGxlMTMzOSI+U2hlZXQuMzMxMjwvdGl0bGU+JiN4YTsJCQk8cGF0aCBpZD0icGF0aDEzNDEiIGlua3NjYXBlOmNvbm5lY3Rvci1jdXJ2YXR1cmU9IjAiIHN0eWxlPSJmaWxsOiMzRjU3NjU7IiBkPSJNMCwxOC4zOGMwLDYuMzYsMCw2LjM2LDAsNi4zNiAgICAgYzAsMC42OSwwLDEuMTUsMC45MiwxLjE1YzAuNDIsMCwwLjQyLDAsMC40MiwwYzAsMi4wMywwLDIuMDMsMCwyLjAzYzAsMC40NiwwLjQ2LDAuODgsMC44OCwwLjg4YzAuNjksMCwwLjg4LTAuNDIsMC44OC0wLjg4ICAgICBjMC0yLjAzLDAtMi4wMywwLTIuMDNjMS41NywwLDEuNTcsMCwxLjU3LDBjMCwyLjAzLDAsMi4wMywwLDIuMDNjMCwwLjQ2LDAuNDIsMC44OCwwLjg4LDAuODhjMC40MiwwLDAuODgtMC40MiwwLjg4LTAuODggICAgIGMwLTIuMDMsMC0yLjAzLDAtMi4wM2MwLjQ2LDAsMC40NiwwLDAuNDYsMGMxLjA3LDAsMS4wNy0wLjQ2LDEuMDctMS4xNWMwLTYuMzYsMC02LjM2LDAtNi4zNkgweiIvPiYjeGE7CQk8L2c+JiN4YTsJCTxnIGlkPSJzaGFwZTMzMTMtMjAiIHRyYW5zZm9ybT0idHJhbnNsYXRlKDE3Ljc1MjksLTE3Ljc2ODIpIj4mI3hhOwkJCTx0aXRsZSBpZD0idGl0bGUxMzQ0Ij5TaGVldC4zMzEzPC90aXRsZT4mI3hhOwkJCTxwYXRoIGlkPSJwYXRoMTM0NiIgaW5rc2NhcGU6Y29ubmVjdG9yLWN1cnZhdHVyZT0iMCIgc3R5bGU9ImZpbGw6IzNGNTc2NTsiIGQ9Ik01Ljc4LDI2LjE1YzAuODgtMC44LDAuODgtMC44LDAuODgtMC44ICAgICBjMC0wLjIzLDAtMC4yMywwLTAuMjNjLTAuMjMsMC0wLjIzLDAtMC4yMywwYy0wLjg4LDEuMDMtMC44OCwxLjAzLTAuODgsMS4wM2MtMC40Ni0wLjE5LTEuMTEtMC4xOS0xLjU3LTAuMTkgICAgIGMtMC42NSwwLTEuMywwLTEuNzYsMC4xOWMtMC42NS0xLjAzLTAuNjUtMS4wMy0wLjY1LTEuMDNjLTAuMjMsMC0wLjIzLDAtMC4yMywwczAsMCwwLDAuMjNjMC42NSwwLjgsMC42NSwwLjgsMC42NSwwLjggICAgIEMwLjY5LDI2Ljc3LDAsMjcuOCwwLDI4LjhjNy45NiwwLDcuOTYsMCw3Ljk2LDBDNy45NiwyNy44LDcuMDgsMjYuNzcsNS43OCwyNi4xNXoiLz4mI3hhOwkJPC9nPiYjeGE7CQk8ZyBpZD0ic2hhcGUzMzE0LTIyIiB0cmFuc2Zvcm09InRyYW5zbGF0ZSgyNi4zMjMyLC0xMS42NDEyKSI+JiN4YTsJCQk8dGl0bGUgaWQ9InRpdGxlMTM0OSI+U2hlZXQuMzMxNDwvdGl0bGU+JiN4YTsJCQk8cGF0aCBpZD0icGF0aDEzNTEiIGlua3NjYXBlOmNvbm5lY3Rvci1jdXJ2YXR1cmU9IjAiIHN0eWxlPSJmaWxsOiMzRjU3NjU7IiBkPSJNMS44NCwyNC4yYzAtMC42OS0wLjIzLTAuOTItMC45Mi0wLjkyICAgICBjLTAuMjMsMC0wLjQ2LDAtMC40NiwwLjIzQzAuMjMsMjMuNzQsMCwyMy45NywwLDI0LjJjMCwzLjY4LDAsMy42OCwwLDMuNjhjMCwwLjQ2LDAuNDYsMC45MiwwLjkyLDAuOTJzMC42OSwwLDAuNjktMC4yMyAgICAgYzAuMjMtMC4yMywwLjIzLTAuNDYsMC4yMy0wLjY5VjI0LjJ6Ii8+JiN4YTsJCTwvZz4mI3hhOwkJPGcgaWQ9InNoYXBlMzMxNS0yNCIgdHJhbnNmb3JtPSJ0cmFuc2xhdGUoMTkuNTg5NCwtMTguOTkzNikiPiYjeGE7CQkJPHRpdGxlIGlkPSJ0aXRsZTEzNTQiPlNoZWV0LjMzMTU8L3RpdGxlPiYjeGE7CQkJPHBhdGggaWQ9InBhdGgxMzU2IiBpbmtzY2FwZTpjb25uZWN0b3ItY3VydmF0dXJlPSIwIiBzdHlsZT0iZmlsbDojRkZGRkZGOyIgZD0iTTAsMjguNDljMC0wLjE1LDAuMzEtMC4zMSwwLjYxLTAuMzEgICAgIGMwLjM1LDAsMC42MSwwLjE2LDAuNjEsMC4zMWMwLDAuMTktMC4yNiwwLjMxLTAuNjEsMC4zMUMwLjMxLDI4LjgsMCwyOC42OCwwLDI4LjQ5eiIvPiYjeGE7CQk8L2c+JiN4YTsJCTxnIGlkPSJzaGFwZTMzMTYtMjYiIHRyYW5zZm9ybT0idHJhbnNsYXRlKDIzLjI2MjQsLTE4Ljk5MzYpIj4mI3hhOwkJCTx0aXRsZSBpZD0idGl0bGUxMzU5Ij5TaGVldC4zMzE2PC90aXRsZT4mI3hhOwkJCTxwYXRoIGlkPSJwYXRoMTM2MSIgaW5rc2NhcGU6Y29ubmVjdG9yLWN1cnZhdHVyZT0iMCIgc3R5bGU9ImZpbGw6I0ZGRkZGRjsiIGQ9Ik0wLDI4LjQ5YzAtMC4xNSwwLjE1LTAuMzEsMC4zMS0wLjMxICAgICBjMC4xOSwwLDAuMywwLjE2LDAuMywwLjMxYzAsMC4xOS0wLjExLDAuMzEtMC4zLDAuMzFDMC4xNSwyOC44LDAsMjguNjgsMCwyOC40OXoiLz4mI3hhOwkJPC9nPiYjeGE7CTwvZz4mI3hhOzwvZz4mI3hhOzwvc3ZnPg==;" vertex="1" parent="1">
          <mxGeometry x="220" y="860" width="28.17" height="19" as="geometry" />
        </mxCell>
        <mxCell id="xkKd55qxpHbyt4-YmWr0-82" value="" style="shape=image;verticalLabelPosition=bottom;labelBackgroundColor=#ffffff;verticalAlign=top;aspect=fixed;imageAspect=0;image=data:image/svg+xml,PHN2ZyB4bWxuczpjYz0iaHR0cDovL2NyZWF0aXZlY29tbW9ucy5vcmcvbnMjIiB4bWxuczpkYz0iaHR0cDovL3B1cmwub3JnL2RjL2VsZW1lbnRzLzEuMS8iIHhtbG5zOmlua3NjYXBlPSJodHRwOi8vd3d3Lmlua3NjYXBlLm9yZy9uYW1lc3BhY2VzL2lua3NjYXBlIiB4bWxuczpyZGY9Imh0dHA6Ly93d3cudzMub3JnLzE5OTkvMDIvMjItcmRmLXN5bnRheC1ucyMiIHhtbG5zOnNvZGlwb2RpPSJodHRwOi8vc29kaXBvZGkuc291cmNlZm9yZ2UubmV0L0RURC9zb2RpcG9kaS0wLmR0ZCIgeG1sbnM6c3ZnPSJodHRwOi8vd3d3LnczLm9yZy8yMDAwL3N2ZyIgeG1sbnM9Imh0dHA6Ly93d3cudzMub3JnLzIwMDAvc3ZnIiB4bWxuczp4bGluaz0iaHR0cDovL3d3dy53My5vcmcvMTk5OS94bGluayIgdmVyc2lvbj0iMS4xIiBpZD0ic3ZnMjQxMzMiIGlua3NjYXBlOnZlcnNpb249IjAuOTIuMyAoMjQwNTU0NiwgMjAxOC0wMy0xMSkiIHNvZGlwb2RpOmRvY25hbWU9Im1vYmlsZV8yLnN2ZyIgeD0iMHB4IiB5PSIwcHgiIHZpZXdCb3g9IjAgMCAyNi4yNSA0Ny4yNSIgc3R5bGU9ImVuYWJsZS1iYWNrZ3JvdW5kOm5ldyAwIDAgMjYuMjUgNDcuMjU7IiB4bWw6c3BhY2U9InByZXNlcnZlIj4mI3hhOzxzb2RpcG9kaTpuYW1lZHZpZXcgYm9yZGVyY29sb3I9IiM2NjY2NjYiIGJvcmRlcm9wYWNpdHk9IjEiIGZpdC1tYXJnaW4tYm90dG9tPSIwIiBmaXQtbWFyZ2luLWxlZnQ9IjAiIGZpdC1tYXJnaW4tcmlnaHQ9IjAiIGZpdC1tYXJnaW4tdG9wPSIwIiBncmlkdG9sZXJhbmNlPSIxMCIgZ3VpZGV0b2xlcmFuY2U9IjEwIiBpZD0ibmFtZWR2aWV3MjQxMzUiIGlua3NjYXBlOmN1cnJlbnQtbGF5ZXI9InN2ZzI0MTMzIiBpbmtzY2FwZTpjeD0iMTcuNDk5OTkxIiBpbmtzY2FwZTpjeT0iMzEuNDk5OTg1IiBpbmtzY2FwZTpwYWdlb3BhY2l0eT0iMCIgaW5rc2NhcGU6cGFnZXNoYWRvdz0iMiIgaW5rc2NhcGU6d2luZG93LWhlaWdodD0iMTAxNyIgaW5rc2NhcGU6d2luZG93LW1heGltaXplZD0iMSIgaW5rc2NhcGU6d2luZG93LXdpZHRoPSIxOTIwIiBpbmtzY2FwZTp3aW5kb3cteD0iLTgiIGlua3NjYXBlOndpbmRvdy15PSItOCIgaW5rc2NhcGU6em9vbT0iMTMuMzM4NDY4IiBvYmplY3R0b2xlcmFuY2U9IjEwIiBwYWdlY29sb3I9IiNmZmZmZmYiIHNob3dncmlkPSJmYWxzZSI+JiN4YTsJPC9zb2RpcG9kaTpuYW1lZHZpZXc+JiN4YTs8ZyBpZD0iZzI0MTMxIiB0cmFuc2Zvcm09InRyYW5zbGF0ZSgtMC43NTAwMTkzOSwtMC43NSkiPiYjeGE7CTx0aXRsZSBpZD0idGl0bGUyNDEwNiI+UGFnZS0xPC90aXRsZT4mI3hhOwk8ZyBpZD0iZ3JvdXAzMzM4LTEiIHRyYW5zZm9ybT0idHJhbnNsYXRlKDEuNSwtMS41KSI+JiN4YTsJCTx0aXRsZSBpZD0idGl0bGUyNDEwOCI+TW9iaWxlICMyPC90aXRsZT4mI3hhOwkJPGcgaWQ9InNoYXBlMzMzOS0yIj4mI3hhOwkJCTx0aXRsZSBpZD0idGl0bGUyNDExMCI+cmVjdDE2MzQ8L3RpdGxlPiYjeGE7CQkJJiN4YTsJCQkJPHBhdGggaWQ9InBhdGgyNDExMiIgaW5rc2NhcGU6Y29ubmVjdG9yLWN1cnZhdHVyZT0iMCIgc3R5bGU9ImZpbGw6I0ZDRkNGQztzdHJva2U6IzU1NkE4QTtzdHJva2Utd2lkdGg6MS41O3N0cm9rZS1taXRlcmxpbWl0OjM7IiBkPSIgICAgIE0wLDQ1Ljc1YzAsMS42NiwxLjM0LDMsMywzaDE4Ljc1YzEuNjYsMCwzLTEuMzQsMy0zVjZjMC0xLjY2LTEuMzQtMy0zLTNIM0MxLjM0LDMsMCw0LjM0LDAsNlY0NS43NXoiLz4mI3hhOwkJPC9nPiYjeGE7CQk8ZyBpZD0ic2hhcGUzMzQwLTQiIHRyYW5zZm9ybT0idHJhbnNsYXRlKDMsLTYuNzUpIj4mI3hhOwkJCTx0aXRsZSBpZD0idGl0bGUyNDExNSI+cmVjdDE2MzY8L3RpdGxlPiYjeGE7CQkJPHJlY3QgaWQ9InJlY3QyNDExNyIgeD0iMCIgeT0iMTUuNzUiIHN0eWxlPSJmaWxsOiNBQUU5RkI7IiB3aWR0aD0iMTguNzUiIGhlaWdodD0iMzMiLz4mI3hhOwkJPC9nPiYjeGE7CQk8ZyBpZD0ic2hhcGUzMzQxLTYiIHRyYW5zZm9ybT0idHJhbnNsYXRlKDguODU3NSwtNDEuMjUpIj4mI3hhOwkJCTx0aXRsZSBpZD0idGl0bGUyNDEyMCI+cGF0aDE2Mzg8L3RpdGxlPiYjeGE7CQkJPHBhdGggaWQ9InBhdGgyNDEyMiIgaW5rc2NhcGU6Y29ubmVjdG9yLWN1cnZhdHVyZT0iMCIgc3R5bGU9ImZpbGw6Izk5OTk5OTsiIGQ9Ik03LjAzLDQ4Ljc1SDAuNzVDMC4zNCw0OC43NSwwLDQ4LjQxLDAsNDggICAgIHMwLjM0LTAuNzUsMC43NS0wLjc1aDYuMjhjMC40MSwwLDAuNzUsMC4zNCwwLjc1LDAuNzVTNy40NCw0OC43NSw3LjAzLDQ4Ljc1eiIvPiYjeGE7CQk8L2c+JiN4YTsJCTxnIGlkPSJzaGFwZTMzNDItOCIgdHJhbnNmb3JtPSJ0cmFuc2xhdGUoMTEuMjU3NSwtMykiPiYjeGE7CQkJPHRpdGxlIGlkPSJ0aXRsZTI0MTI1Ij5wYXRoMTY0MDwvdGl0bGU+JiN4YTsJCQk8cGF0aCBpZD0icGF0aDI0MTI3IiBpbmtzY2FwZTpjb25uZWN0b3ItY3VydmF0dXJlPSIwIiBzdHlsZT0iZmlsbDojOTk5OTk5OyIgZD0iTTIuNzUsNDguNzVIMC4yNEMwLjEsNDguNzUsMCw0OC40MSwwLDQ4ICAgICBzMC4xMS0wLjc1LDAuMjQtMC43NWgyLjUxYzAuMTQsMCwwLjI0LDAuMzQsMC4yNCwwLjc1UzIuODgsNDguNzUsMi43NSw0OC43NXoiLz4mI3hhOwkJPC9nPiYjeGE7CTwvZz4mI3hhOzwvZz4mI3hhOzwvc3ZnPg==;" vertex="1" parent="1">
          <mxGeometry x="226.60999999999999" y="890" width="14.94" height="27" as="geometry" />
        </mxCell>
        <mxCell id="xkKd55qxpHbyt4-YmWr0-83" value="" style="shape=image;verticalLabelPosition=bottom;labelBackgroundColor=#ffffff;verticalAlign=top;aspect=fixed;imageAspect=0;image=data:image/svg+xml,PHN2ZyB4bWxuczpjYz0iaHR0cDovL2NyZWF0aXZlY29tbW9ucy5vcmcvbnMjIiB4bWxuczpkYz0iaHR0cDovL3B1cmwub3JnL2RjL2VsZW1lbnRzLzEuMS8iIHhtbG5zOmlua3NjYXBlPSJodHRwOi8vd3d3Lmlua3NjYXBlLm9yZy9uYW1lc3BhY2VzL2lua3NjYXBlIiB4bWxuczpyZGY9Imh0dHA6Ly93d3cudzMub3JnLzE5OTkvMDIvMjItcmRmLXN5bnRheC1ucyMiIHhtbG5zOnNvZGlwb2RpPSJodHRwOi8vc29kaXBvZGkuc291cmNlZm9yZ2UubmV0L0RURC9zb2RpcG9kaS0wLmR0ZCIgeG1sbnM6c3ZnPSJodHRwOi8vd3d3LnczLm9yZy8yMDAwL3N2ZyIgeG1sbnM9Imh0dHA6Ly93d3cudzMub3JnLzIwMDAvc3ZnIiB4bWxuczp4bGluaz0iaHR0cDovL3d3dy53My5vcmcvMTk5OS94bGluayIgdmVyc2lvbj0iMS4xIiBpZD0ic3ZnMTQ5ODMiIGlua3NjYXBlOnZlcnNpb249IjAuOTIuMyAoMjQwNTU0NiwgMjAxOC0wMy0xMSkiIHNvZGlwb2RpOmRvY25hbWU9ImxhcHRvcF9vdXRsb29rLnN2ZyIgeD0iMHB4IiB5PSIwcHgiIHZpZXdCb3g9IjAgMCA2Ni4xMSAzOC41NCIgc3R5bGU9ImVuYWJsZS1iYWNrZ3JvdW5kOm5ldyAwIDAgNjYuMTEgMzguNTQ7IiB4bWw6c3BhY2U9InByZXNlcnZlIj4mI3hhOzxzb2RpcG9kaTpuYW1lZHZpZXcgYm9yZGVyY29sb3I9IiM2NjY2NjYiIGJvcmRlcm9wYWNpdHk9IjEiIGZpdC1tYXJnaW4tYm90dG9tPSIwIiBmaXQtbWFyZ2luLWxlZnQ9IjAiIGZpdC1tYXJnaW4tcmlnaHQ9IjAiIGZpdC1tYXJnaW4tdG9wPSIwIiBncmlkdG9sZXJhbmNlPSIxMCIgZ3VpZGV0b2xlcmFuY2U9IjEwIiBpZD0ibmFtZWR2aWV3MTQ5ODUiIGlua3NjYXBlOmN1cnJlbnQtbGF5ZXI9InN2ZzE0OTgzIiBpbmtzY2FwZTpjeD0iNDQuMDc2MDQ3IiBpbmtzY2FwZTpjeT0iMjUuNjkyMDU0IiBpbmtzY2FwZTpwYWdlb3BhY2l0eT0iMCIgaW5rc2NhcGU6cGFnZXNoYWRvdz0iMiIgaW5rc2NhcGU6d2luZG93LWhlaWdodD0iMTAxNyIgaW5rc2NhcGU6d2luZG93LW1heGltaXplZD0iMSIgaW5rc2NhcGU6d2luZG93LXdpZHRoPSIxOTIwIiBpbmtzY2FwZTp3aW5kb3cteD0iLTgiIGlua3NjYXBlOndpbmRvdy15PSItOCIgaW5rc2NhcGU6em9vbT0iMTYuODcxMjU0IiBvYmplY3R0b2xlcmFuY2U9IjEwIiBwYWdlY29sb3I9IiNmZmZmZmYiIHNob3dncmlkPSJmYWxzZSI+JiN4YTsJPC9zb2RpcG9kaTpuYW1lZHZpZXc+JiN4YTs8ZyBpZD0iZzE0OTgxIiB0cmFuc2Zvcm09InRyYW5zbGF0ZSgwLDUuMmUtNCkiPiYjeGE7CTx0aXRsZSBpZD0idGl0bGUxNDg5NiI+UGFnZS0xPC90aXRsZT4mI3hhOwk8ZyBpZD0iZ3JvdXAzNzkyLTEiPiYjeGE7CQk8dGl0bGUgaWQ9InRpdGxlMTQ4OTgiPkxhcHRvcCAoT3V0bG9vayk8L3RpdGxlPiYjeGE7CQk8ZyBpZD0ic2hhcGUzNzkzLTIiIHRyYW5zZm9ybT0idHJhbnNsYXRlKDcuODg3MjksLTMuMjUwNTIpIj4mI3hhOwkJCTx0aXRsZSBpZD0idGl0bGUxNDkwMCI+U2hlZXQuMzc5MzwvdGl0bGU+JiN4YTsJCQk8cGF0aCBpZD0icGF0aDE0OTAyIiBpbmtzY2FwZTpjb25uZWN0b3ItY3VydmF0dXJlPSIwIiBzdHlsZT0iZmlsbDojM0Y1NzY1OyIgZD0iTTAsMy4yNXYzNS4yOWg1MS4wNFYzLjI1SDB6Ii8+JiN4YTsJCTwvZz4mI3hhOwkJPGcgaWQ9InNoYXBlMzc5NC00IiB0cmFuc2Zvcm09InRyYW5zbGF0ZSgzMi45NDEsLTM2LjQ1MjIpIj4mI3hhOwkJCTx0aXRsZSBpZD0idGl0bGUxNDkwNSI+U2hlZXQuMzc5NDwvdGl0bGU+JiN4YTsJCQk8cGF0aCBpZD0icGF0aDE0OTA3IiBpbmtzY2FwZTpjb25uZWN0b3ItY3VydmF0dXJlPSIwIiBzdHlsZT0iZmlsbDojMzMzMzMzOyIgZD0iTTAsMzcuODVjMC0wLjM4LDAuMjItMC43LDAuNDYtMC43ICAgICBjMC4yNiwwLDAuNDcsMC4zMiwwLjQ3LDAuN2MwLDAuMzktMC4yMSwwLjY5LTAuNDcsMC42OUMwLjIyLDM4LjU0LDAsMzguMjQsMCwzNy44NXoiLz4mI3hhOwkJPC9nPiYjeGE7CQk8ZyBpZD0ic2hhcGUzNzk1LTYiIHRyYW5zZm9ybT0idHJhbnNsYXRlKDkuNzQzMTMsLTQuNjQzNikiPiYjeGE7CQkJPHRpdGxlIGlkPSJ0aXRsZTE0OTEwIj5TaGVldC4zNzk1PC90aXRsZT4mI3hhOwkJCTxwYXRoIGlkPSJwYXRoMTQ5MTIiIGlua3NjYXBlOmNvbm5lY3Rvci1jdXJ2YXR1cmU9IjAiIHN0eWxlPSJmaWxsOiM0MDQwNDA7IiBkPSJNMCw3LjQzdjMxLjExaDQ3Ljc5VjcuNDNIMHoiLz4mI3hhOwkJPC9nPiYjeGE7CQk8ZyBpZD0ic2hhcGUzNzk2LTgiPiYjeGE7CQkJPHRpdGxlIGlkPSJ0aXRsZTE0OTE1Ij5TaGVldC4zNzk2PC90aXRsZT4mI3hhOwkJCTxwYXRoIGlkPSJwYXRoMTQ5MTciIGlua3NjYXBlOmNvbm5lY3Rvci1jdXJ2YXR1cmU9IjAiIHN0eWxlPSJmaWxsOiMzRjU3NjU7IiBkPSJNMCwzNS43NmMwLDAuNCwwLDAuNCwwLDAuNCAgICAgYzAsMS4xOSwxLjE1LDIuMzgsMi42NSwyLjM4YzYwLjgzLDAsNjAuODMsMCw2MC44MywwYzEuNSwwLDIuNjMtMS4xOSwyLjYzLTIuMzhjMC0wLjQsMC0wLjQsMC0wLjRIMHoiLz4mI3hhOwkJPC9nPiYjeGE7CQk8ZyBpZD0ic2hhcGUzNzk3LTEwIiB0cmFuc2Zvcm09InRyYW5zbGF0ZSgxMi4wNjI5LC03LjQyOTc2KSI+JiN4YTsJCQk8dGl0bGUgaWQ9InRpdGxlMTQ5MjAiPlNoZWV0LjM3OTc8L3RpdGxlPiYjeGE7CQkJPHBhdGggaWQ9InBhdGgxNDkyMiIgaW5rc2NhcGU6Y29ubmVjdG9yLWN1cnZhdHVyZT0iMCIgc3R5bGU9ImZpbGw6I0ZGRkZGRjsiIGQ9Ik0wLDEyLjc3djI1Ljc3aDQzLjE1VjEyLjc3SDB6Ii8+JiN4YTsJCTwvZz4mI3hhOwkJPGcgaWQ9InNoYXBlMzc5OC0xMiIgdHJhbnNmb3JtPSJ0cmFuc2xhdGUoMTIuMDYyOSwtNy40Mjk3NikiPiYjeGE7CQkJPHRpdGxlIGlkPSJ0aXRsZTE0OTI1Ij5TaGVldC4zNzk4PC90aXRsZT4mI3hhOwkJCSYjeGE7CQkJCTxwYXRoIGlkPSJwYXRoMTQ5MjciIGlua3NjYXBlOmNvbm5lY3Rvci1jdXJ2YXR1cmU9IjAiIHN0eWxlPSJmaWxsOm5vbmU7c3Ryb2tlOiMxQjM3NUY7c3Ryb2tlLXdpZHRoOjEuMjI0OTtzdHJva2UtbGluZWNhcDpyb3VuZDtzdHJva2UtbGluZWpvaW46cm91bmQ7c3Ryb2tlLW1pdGVybGltaXQ6MzsiIGQ9IiAgICAgTTAsMTIuNzdoNDMuMTV2MjUuNzdIMFYxMi43NyIvPiYjeGE7CQk8L2c+JiN4YTsJCTxnIGlkPSJzaGFwZTM3OTktMTUiIHRyYW5zZm9ybT0idHJhbnNsYXRlKDI1Ljk4MTcsLTcuNDI5NzYpIj4mI3hhOwkJCTx0aXRsZSBpZD0idGl0bGUxNDkzMCI+U2hlZXQuMzc5OTwvdGl0bGU+JiN4YTsJCQk8cGF0aCBpZD0icGF0aDE0OTMyIiBpbmtzY2FwZTpjb25uZWN0b3ItY3VydmF0dXJlPSIwIiBzdHlsZT0iZmlsbDojRkZGRkZGOyIgZD0iTTAsMTIuNzd2MjUuNzdoMjkuMjNWMTIuNzdIMHoiLz4mI3hhOwkJPC9nPiYjeGE7CQk8ZyBpZD0ic2hhcGUzODAwLTE3IiB0cmFuc2Zvcm09InRyYW5zbGF0ZSgyNS45ODE3LC03LjQyOTc2KSI+JiN4YTsJCQk8dGl0bGUgaWQ9InRpdGxlMTQ5MzUiPlNoZWV0LjM4MDA8L3RpdGxlPiYjeGE7CQkJJiN4YTsJCQkJPHBhdGggaWQ9InBhdGgxNDkzNyIgaW5rc2NhcGU6Y29ubmVjdG9yLWN1cnZhdHVyZT0iMCIgc3R5bGU9ImZpbGw6bm9uZTtzdHJva2U6IzFCMzc1RjtzdHJva2Utd2lkdGg6MS4yMjQ5O3N0cm9rZS1saW5lY2FwOnJvdW5kO3N0cm9rZS1saW5lam9pbjpyb3VuZDtzdHJva2UtbWl0ZXJsaW1pdDozOyIgZD0iICAgICBNMCwxMi43N2gyOS4yM3YyNS43N0gwVjEyLjc3Ii8+JiN4YTsJCTwvZz4mI3hhOwkJPGcgaWQ9InNoYXBlMzgwMS0yMCIgdHJhbnNmb3JtPSJ0cmFuc2xhdGUoMzAuNjIxMiwtMjAuNjY0KSI+JiN4YTsJCQk8dGl0bGUgaWQ9InRpdGxlMTQ5NDAiPlNoZWV0LjM4MDE8L3RpdGxlPiYjeGE7CQkJJiN4YTsJCQkJPHBhdGggaWQ9InBhdGgxNDk0MiIgaW5rc2NhcGU6Y29ubmVjdG9yLWN1cnZhdHVyZT0iMCIgc3R5bGU9ImZpbGw6bm9uZTtzdHJva2U6IzFCMzc1RjtzdHJva2Utd2lkdGg6MS4yMjQ5O3N0cm9rZS1saW5lY2FwOnJvdW5kO3N0cm9rZS1saW5lam9pbjpyb3VuZDtzdHJva2UtbWl0ZXJsaW1pdDozOyIgZD0iICAgICBNMCwzOC41NGgyMC43NiIvPiYjeGE7CQk8L2c+JiN4YTsJCTxnIGlkPSJzaGFwZTM4MDItMjMiIHRyYW5zZm9ybT0idHJhbnNsYXRlKDMwLjYyMTIsLTE2LjI1MjYpIj4mI3hhOwkJCTx0aXRsZSBpZD0idGl0bGUxNDk0NSI+U2hlZXQuMzgwMjwvdGl0bGU+JiN4YTsJCQkmI3hhOwkJCQk8cGF0aCBpZD0icGF0aDE0OTQ3IiBpbmtzY2FwZTpjb25uZWN0b3ItY3VydmF0dXJlPSIwIiBzdHlsZT0iZmlsbDpub25lO3N0cm9rZTojMUIzNzVGO3N0cm9rZS13aWR0aDoxLjIyNDk7c3Ryb2tlLWxpbmVjYXA6cm91bmQ7c3Ryb2tlLWxpbmVqb2luOnJvdW5kO3N0cm9rZS1taXRlcmxpbWl0OjM7IiBkPSIgICAgIE0wLDM4LjU0aDIwLjc2Ii8+JiN4YTsJCTwvZz4mI3hhOwkJPGcgaWQ9InNoYXBlMzgwMy0yNiIgdHJhbnNmb3JtPSJ0cmFuc2xhdGUoMzAuNjIxMiwtMTEuODQxMikiPiYjeGE7CQkJPHRpdGxlIGlkPSJ0aXRsZTE0OTUwIj5TaGVldC4zODAzPC90aXRsZT4mI3hhOwkJCSYjeGE7CQkJCTxwYXRoIGlkPSJwYXRoMTQ5NTIiIGlua3NjYXBlOmNvbm5lY3Rvci1jdXJ2YXR1cmU9IjAiIHN0eWxlPSJmaWxsOm5vbmU7c3Ryb2tlOiMxQjM3NUY7c3Ryb2tlLXdpZHRoOjEuMjI0OTtzdHJva2UtbGluZWNhcDpyb3VuZDtzdHJva2UtbGluZWpvaW46cm91bmQ7c3Ryb2tlLW1pdGVybGltaXQ6MzsiIGQ9IiAgICAgTTAsMzguNTRoMjAuNzYiLz4mI3hhOwkJPC9nPiYjeGE7CQk8ZyBpZD0ic2hhcGUzODA0LTI5IiB0cmFuc2Zvcm09InRyYW5zbGF0ZSgxNS41NDI2LC0yMC42NjQpIj4mI3hhOwkJCTx0aXRsZSBpZD0idGl0bGUxNDk1NSI+U2hlZXQuMzgwNDwvdGl0bGU+JiN4YTsJCQkmI3hhOwkJCQk8cGF0aCBpZD0icGF0aDE0OTU3IiBpbmtzY2FwZTpjb25uZWN0b3ItY3VydmF0dXJlPSIwIiBzdHlsZT0iZmlsbDpub25lO3N0cm9rZTojMUIzNzVGO3N0cm9rZS13aWR0aDoxLjIyNDk7c3Ryb2tlLWxpbmVjYXA6cm91bmQ7c3Ryb2tlLWxpbmVqb2luOnJvdW5kO3N0cm9rZS1taXRlcmxpbWl0OjM7IiBkPSIgICAgIE0wLDM4LjU0aDcuNjEiLz4mI3hhOwkJPC9nPiYjeGE7CQk8ZyBpZD0ic2hhcGUzODA1LTMyIiB0cmFuc2Zvcm09InRyYW5zbGF0ZSgxNS41NDI2LC0xNi4yNTI2KSI+JiN4YTsJCQk8dGl0bGUgaWQ9InRpdGxlMTQ5NjAiPlNoZWV0LjM4MDU8L3RpdGxlPiYjeGE7CQkJJiN4YTsJCQkJPHBhdGggaWQ9InBhdGgxNDk2MiIgaW5rc2NhcGU6Y29ubmVjdG9yLWN1cnZhdHVyZT0iMCIgc3R5bGU9ImZpbGw6bm9uZTtzdHJva2U6IzFCMzc1RjtzdHJva2Utd2lkdGg6MS4yMjQ5O3N0cm9rZS1saW5lY2FwOnJvdW5kO3N0cm9rZS1saW5lam9pbjpyb3VuZDtzdHJva2UtbWl0ZXJsaW1pdDozOyIgZD0iICAgICBNMCwzOC41NGg3LjYxIi8+JiN4YTsJCTwvZz4mI3hhOwkJPGcgaWQ9InNoYXBlMzgwNi0zNSIgdHJhbnNmb3JtPSJ0cmFuc2xhdGUoMTUuNTQyNiwtMTEuODQxMikiPiYjeGE7CQkJPHRpdGxlIGlkPSJ0aXRsZTE0OTY1Ij5TaGVldC4zODA2PC90aXRsZT4mI3hhOwkJCSYjeGE7CQkJCTxwYXRoIGlkPSJwYXRoMTQ5NjciIGlua3NjYXBlOmNvbm5lY3Rvci1jdXJ2YXR1cmU9IjAiIHN0eWxlPSJmaWxsOm5vbmU7c3Ryb2tlOiMxQjM3NUY7c3Ryb2tlLXdpZHRoOjEuMjI0OTtzdHJva2UtbGluZWNhcDpyb3VuZDtzdHJva2UtbGluZWpvaW46cm91bmQ7c3Ryb2tlLW1pdGVybGltaXQ6MzsiIGQ9IiAgICAgTTAsMzguNTRoNy42MSIvPiYjeGE7CQk8L2c+JiN4YTsJCTxnIGlkPSJzaGFwZTM4MDctMzgiIHRyYW5zZm9ybT0idHJhbnNsYXRlKDE0Ljg0NjcsLTIyLjI4OTMpIj4mI3hhOwkJCTx0aXRsZSBpZD0idGl0bGUxNDk3MCI+U2hlZXQuMzgwNzwvdGl0bGU+JiN4YTsJCQk8cGF0aCBpZD0icGF0aDE0OTcyIiBpbmtzY2FwZTpjb25uZWN0b3ItY3VydmF0dXJlPSIwIiBzdHlsZT0iZmlsbDojMUIzNzVGOyIgZD0iTTguOTcsMzEuNDdjLTMuNDYsMC0zLjQ2LDAtMy40NiwwICAgICBjMC0yLjIyLDAtMi4yMiwwLTIuMjJDMCwzMC4yLDAsMzAuMiwwLDMwLjJjMCw3LjQxLDAsNy40MSwwLDcuNDFjNS41MSwwLjkzLDUuNTEsMC45Myw1LjUxLDAuOTNjMC0yLjA5LDAtMi4wOSwwLTIuMDkgICAgIGMzLjQ4LDAsMy40OCwwLDMuNDgsMGMwLjE2LDAsMC4yOS0wLjE2LDAuMjktMC4zMmMwLTQuMzQsMC00LjM0LDAtNC4zNEM5LjI4LDMxLjYxLDkuMTUsMzEuNDcsOC45NywzMS40N3ogTTQuMDIsMzQuMjMgICAgIGMtMC4wNiwwLjEzLTAuMDgsMC4yMi0wLjExLDAuMzRjLTAuMDEsMC4xMy0wLjA1LDAuMjQtMC4xMywwLjMyYy0wLjA0LDAuMS0wLjExLDAuMTctMC4xNywwLjI2Yy0wLjA5LDAuMDctMC4xMywwLjE2LTAuMjMsMC4yICAgICBjLTAuMDYsMC4wNy0wLjE1LDAuMTItMC4yNSwwLjEzYy0wLjA5LDAuMDctMC4xNCwwLjA5LTAuMjYsMC4wOUMyLjc4LDM1LjYsMi43LDM1LjYsMi41OCwzNS42Yy0wLjEyLDAtMC4xOS0wLjAzLTAuMjktMC4wNSAgICAgYy0wLjA5LTAuMDQtMC4xNi0wLjA3LTAuMjUtMC4xMWMtMC4wNy0wLjAyLTAuMTYtMC4wOS0wLjItMC4xNmMtMC4wOS0wLjA2LTAuMTMtMC4xLTAuMjItMC4xOGMtMC4wNS0wLjA4LTAuMS0wLjItMC4xNC0wLjI3ICAgICBjLTAuMDQtMC4wOS0wLjA5LTAuMTgtMC4xLTAuMjljLTAuMDYtMC4wOS0wLjA4LTAuMTgtMC4wOC0wLjI5QzEuMjgsMzQuMTIsMS4yOCwzNCwxLjI4LDMzLjljMC0wLjEyLDAtMC4yNSwwLjAyLTAuMzYgICAgIGMwLTAuMTIsMC4wMi0wLjI1LDAuMDgtMC4zMmMwLjAxLTAuMTEsMC4wNi0wLjIyLDAuMDgtMC4yOWMwLjA2LTAuMTEsMC4xMS0wLjE4LDAuMTYtMC4yN2MwLjA2LTAuMDgsMC4xMy0wLjE1LDAuMjItMC4yNCAgICAgYzAuMDQtMC4wNSwwLjEzLTAuMDksMC4yLTAuMTZjMC4wOS0wLjA1LDAuMTgtMC4wNywwLjI3LTAuMDljMC4xMS0wLjA0LDAuMi0wLjA3LDAuMzEtMC4wN2MwLjA5LDAsMC4xOCwwLDAuMjksMCAgICAgYzAuMDksMC4wMywwLjE2LDAuMDcsMC4yNywwLjA5YzAuMSwwLjA1LDAuMTUsMC4wNywwLjI0LDAuMTRjMC4wNiwwLjA2LDAuMTUsMC4xMywwLjIsMC4yYzAuMDUsMC4wOSwwLjEyLDAuMTUsMC4xNiwwLjI3ICAgICBjMC4wOCwwLjA3LDAuMTIsMC4xNywwLjEzLDAuMjljMC4wMywwLjExLDAuMDUsMC4yNCwwLjExLDAuMzNjMC4wMSwwLjE0LDAuMDEsMC4yOCwwLjAxLDAuNDFTNC4wMywzNC4xLDQuMDIsMzQuMjN6IE04Ljk3LDM2LjEzICAgICBjLTMuNDYsMC0zLjQ2LDAtMy40NiwwYzAtMi43MywwLTIuNzMsMC0yLjczYzEuMDMsMC45NiwxLjAzLDAuOTYsMS4wMywwLjk2YzAuMSwwLjA5LDAuMjUsMC4wOSwwLjMsMCAgICAgYzIuMTMtMS45NywyLjEzLTEuOTcsMi4xMy0xLjk3VjM2LjEzeiBNOC45NywzMS45N0M2LjcxLDM0LjEsNi43MSwzNC4xLDYuNzEsMzQuMWMwLDAuMDItMC4wMSwwLjAyLTAuMDQsMCAgICAgQzUuNTEsMzMsNS41MSwzMyw1LjUxLDMzYzAtMS4yMSwwLTEuMjEsMC0xLjIxYzMuNDYsMCwzLjQ2LDAsMy40NiwwTDguOTcsMzEuOTd6IE0zLjI4LDMzLjM4Yy0wLjA1LTAuMDUtMC4wNS0wLjEzLTAuMDgtMC4xOCAgICAgYy0wLjAyLTAuMDctMC4wNC0wLjExLTAuMTEtMC4xNkMzLjA3LDMyLjk3LDMuMDQsMzIuOTYsMywzMi45MWMtMC4wMS0wLjA0LTAuMDctMC4wNy0wLjExLTAuMDlDMi44NCwzMi44LDIuOCwzMi44LDIuNzUsMzIuNzggICAgIGMtMC4wNCwwLTAuMTEsMC0wLjE1LDBjLTAuMDUsMC0wLjExLDAtMC4xNSwwLjAyYy0wLjA2LDAtMC4xMiwwLjAyLTAuMTQsMC4wNGMtMC4wNSwwLjAzLTAuMTEsMC4wNy0wLjE0LDAuMTIgICAgIGMtMC4wMSwwLjAxLTAuMDcsMC4wOC0wLjExLDAuMTNDMi4wNCwzMy4xMywyLjAyLDMzLjIsMiwzMy4yNWMtMC4wMywwLjA0LTAuMDMsMC4xMy0wLjA3LDAuMTdjMCwwLjA3LTAuMDIsMC4xNC0wLjAyLDAuMjMgICAgIGMwLDAuMDUtMC4wMywwLjEzLTAuMDMsMC4yYzAsMC4wOSwwLjAzLDAuMTUsMC4wMywwLjI1YzAsMC4wNiwwLjAyLDAuMTUsMC4wMiwwLjE5YzAuMDQsMC4xLDAuMDcsMC4xNSwwLjA5LDAuMTkgICAgIGMwLjAyLDAuMDYsMC4wNCwwLjExLDAuMDgsMC4xN2MwLjAzLDAuMDUsMC4wNiwwLjA4LDAuMSwwLjEyYzAuMDIsMC4wNCwwLjA5LDAuMDYsMC4xMSwwLjA5YzAuMDQsMC4wMywwLjA4LDAuMDQsMC4xNCwwLjA0ICAgICBjMC4wNCwwLjA0LDAuMSwwLjA0LDAuMTMsMC4wNGMwLjA0LDAsMC4xMiwwLDAuMTYsMGMwLjA0LTAuMDQsMC4xLTAuMDQsMC4xMy0wLjA1YzAuMDQtMC4wMywwLjA2LTAuMDYsMC4xMy0wLjA4ICAgICBjMC4wMy0wLjA0LDAuMDctMC4wOCwwLjA5LTAuMTFjMC4wNC0wLjA1LDAuMDctMC4xMSwwLjA5LTAuMTZjMC4wMi0wLjA5LDAuMDUtMC4xMywwLjEtMC4yMmMwLjAxLTAuMDQsMC4wMS0wLjEzLDAuMDEtMC4yICAgICBjMC4wMy0wLjA5LDAuMDMtMC4xNiwwLjAzLTAuMjVzMC0wLjE3LTAuMDMtMC4yNUMzLjI5LDMzLjU0LDMuMjksMzMuNDUsMy4yOCwzMy4zOHoiLz4mI3hhOwkJPC9nPiYjeGE7CQk8ZyBpZD0ic2hhcGUzODA4LTQwIiB0cmFuc2Zvcm09InRyYW5zbGF0ZSgzMC42MjEzLC0yNi4wMDQxKSI+JiN4YTsJCQk8dGl0bGUgaWQ9InRpdGxlMTQ5NzUiPlNoZWV0LjM4MDg8L3RpdGxlPiYjeGE7CQkJPHBhdGggaWQ9InBhdGgxNDk3NyIgaW5rc2NhcGU6Y29ubmVjdG9yLWN1cnZhdHVyZT0iMCIgc3R5bGU9ImZpbGw6I0ZGQjkwMDsiIGQ9Ik0wLDMzLjY3djQuODdoMjAuNjV2LTQuODdIMHoiLz4mI3hhOwkJPC9nPiYjeGE7CTwvZz4mI3hhOzwvZz4mI3hhOzwvc3ZnPg==;" vertex="1" parent="1">
          <mxGeometry x="218.01000000000002" y="940" width="32.16" height="19" as="geometry" />
        </mxCell>
        <mxCell id="xkKd55qxpHbyt4-YmWr0-84" value="" style="shape=image;verticalLabelPosition=bottom;labelBackgroundColor=#ffffff;verticalAlign=top;aspect=fixed;imageAspect=0;image=data:image/svg+xml,PHN2ZyB4bWxuczpkYz0iaHR0cDovL3B1cmwub3JnL2RjL2VsZW1lbnRzLzEuMS8iIHhtbG5zOmNjPSJodHRwOi8vY3JlYXRpdmVjb21tb25zLm9yZy9ucyMiIHhtbG5zOnJkZj0iaHR0cDovL3d3dy53My5vcmcvMTk5OS8wMi8yMi1yZGYtc3ludGF4LW5zIyIgeG1sbnM6c3ZnPSJodHRwOi8vd3d3LnczLm9yZy8yMDAwL3N2ZyIgeG1sbnM9Imh0dHA6Ly93d3cudzMub3JnLzIwMDAvc3ZnIiB4bWxuczp4bGluaz0iaHR0cDovL3d3dy53My5vcmcvMTk5OS94bGluayIgeG1sbnM6c29kaXBvZGk9Imh0dHA6Ly9zb2RpcG9kaS5zb3VyY2Vmb3JnZS5uZXQvRFREL3NvZGlwb2RpLTAuZHRkIiB4bWxuczppbmtzY2FwZT0iaHR0cDovL3d3dy5pbmtzY2FwZS5vcmcvbmFtZXNwYWNlcy9pbmtzY2FwZSIgdmVyc2lvbj0iMS4xIiBpZD0iTGF5ZXJfMSIgeD0iMHB4IiB5PSIwcHgiIHZpZXdCb3g9IjAgMCAzNS45MjkxNDIgMzMuNzUiIHhtbDpzcGFjZT0icHJlc2VydmUiIHNvZGlwb2RpOmRvY25hbWU9InNhcF9zZV9jbG91ZF9pbnRlZ3JhdGlvbi5zdmciIHdpZHRoPSIzNS45MjkxNDIiIGhlaWdodD0iMzMuNzUiIGlua3NjYXBlOnZlcnNpb249IjAuOTIuMyAoMjQwNTU0NiwgMjAxOC0wMy0xMSkiPjxtZXRhZGF0YSBpZD0ibWV0YWRhdGE1NjY0NSI+PHJkZjpSREY+PGNjOldvcmsgcmRmOmFib3V0PSIiPjxkYzpmb3JtYXQ+aW1hZ2Uvc3ZnK3htbDwvZGM6Zm9ybWF0PjxkYzp0eXBlIHJkZjpyZXNvdXJjZT0iaHR0cDovL3B1cmwub3JnL2RjL2RjbWl0eXBlL1N0aWxsSW1hZ2UiLz48ZGM6dGl0bGUvPjwvY2M6V29yaz48L3JkZjpSREY+PC9tZXRhZGF0YT48ZGVmcyBpZD0iZGVmczU2NjQzIi8+PHNvZGlwb2RpOm5hbWVkdmlldyBwYWdlY29sb3I9IiNmZmZmZmYiIGJvcmRlcmNvbG9yPSIjNjY2NjY2IiBib3JkZXJvcGFjaXR5PSIxIiBvYmplY3R0b2xlcmFuY2U9IjEwIiBncmlkdG9sZXJhbmNlPSIxMCIgZ3VpZGV0b2xlcmFuY2U9IjEwIiBpbmtzY2FwZTpwYWdlb3BhY2l0eT0iMCIgaW5rc2NhcGU6cGFnZXNoYWRvdz0iMiIgaW5rc2NhcGU6d2luZG93LXdpZHRoPSIxOTIwIiBpbmtzY2FwZTp3aW5kb3ctaGVpZ2h0PSIxMDE3IiBpZD0ibmFtZWR2aWV3NTY2NDEiIHNob3dncmlkPSJmYWxzZSIgZml0LW1hcmdpbi10b3A9IjAiIGZpdC1tYXJnaW4tbGVmdD0iMCIgZml0LW1hcmdpbi1yaWdodD0iMCIgZml0LW1hcmdpbi1ib3R0b209IjAiIGlua3NjYXBlOnpvb209IjEuMDMwMzAzIiBpbmtzY2FwZTpjeD0iLTM2LjU3NTg1NiIgaW5rc2NhcGU6Y3k9Ii0xOTEuMzgiIGlua3NjYXBlOndpbmRvdy14PSItOCIgaW5rc2NhcGU6d2luZG93LXk9Ii04IiBpbmtzY2FwZTp3aW5kb3ctbWF4aW1pemVkPSIxIiBpbmtzY2FwZTpjdXJyZW50LWxheWVyPSJMYXllcl8xIi8+JiN4YTsmI3hhOzxnIGlkPSJnNTY2MzgiIHRyYW5zZm9ybT0idHJhbnNsYXRlKC0zMzMuOTUwODYsLTE5NS42MikiPiYjeGE7CTxkZWZzIGlkPSJkZWZzNTY2MjEiPiYjeGE7CQk8cmVjdCBpZD0iU1ZHSURfM18iIHg9IjMzMy45NCIgeT0iMTk1LjYyIiB3aWR0aD0iMzYuODIiIGhlaWdodD0iMzMuOTkwMDAyIi8+JiN4YTsJPC9kZWZzPiYjeGE7CTxjbGlwUGF0aCBpZD0iU1ZHSURfNF8iPiYjeGE7CQk8dXNlIHhsaW5rOmhyZWY9IiNTVkdJRF8zXyIgc3R5bGU9Im92ZXJmbG93OnZpc2libGUiIGlkPSJ1c2U1NjYyMyIgeD0iMCIgeT0iMCIgd2lkdGg9IjEwMCUiIGhlaWdodD0iMTAwJSIvPiYjeGE7CTwvY2xpcFBhdGg+JiN4YTsJPGcgY2xpcC1wYXRoPSJ1cmwoI1NWR0lEXzRfKSIgaWQ9Imc1NjYzNiI+JiN4YTsJCTxkZWZzIGlkPSJkZWZzNTY2MjciPiYjeGE7CQkJPHJlY3QgaWQ9IlNWR0lEXzVfIiB4PSIzMzMuOTQiIHk9IjE5NS42MiIgd2lkdGg9IjM2LjgyIiBoZWlnaHQ9IjMzLjk5MDAwMiIvPiYjeGE7CQk8L2RlZnM+JiN4YTsJCTxjbGlwUGF0aCBpZD0iU1ZHSURfNl8iPiYjeGE7CQkJPHVzZSB4bGluazpocmVmPSIjU1ZHSURfNV8iIHN0eWxlPSJvdmVyZmxvdzp2aXNpYmxlIiBpZD0idXNlNTY2MjkiIHg9IjAiIHk9IjAiIHdpZHRoPSIxMDAlIiBoZWlnaHQ9IjEwMCUiLz4mI3hhOwkJPC9jbGlwUGF0aD4mI3hhOwkJPHBhdGggc3R5bGU9ImZpbGw6IzAwOTJkMSIgZD0ibSAzNjcuNiwyMjAuMzYgaCAtMi4yMiB2IC0yLjI4IGggMi4yMiB6IG0gLTYuNyw0LjQ5IHYgMCAyLjIyIGggLTIuMjggdiAtMi4yMiB6IG0gLTQuNSwtNi43NyB2IC0yLjIyIGggMi4yMiB2IDIuMjIgeiBtIC02Ljc3LDQuNSBoIC0yLjIyIHYgLTIuMjIgaCAyLjIyIHogbSAyLjI4LC0xMS4yIGggLTIuMjggdiAtMi4yOCBoIDIuMjggeiBtIDExLjIsLTQuNSBoIDIuMjggdiAyLjIyIGggLTIuMjggeiBtIDQuNDksOC45OSBoIC0yLjIyIGMgLTEuMjYsLTAuMDYgLTIuMjIsMC45NiAtMi4yOCwyLjIyIGwgLTIuMjIsLTAuOSB2IC0xLjMyIGMgMCwtMC40OCAtMC4xOCwtMC45IC0wLjQyLC0xLjI2IGwgMi41MiwtMy4yOSBjIDAuMDYsMCAwLjEyLDAgMC4xOCwwIGggMi4yMiBjIDEuMjYsMCAyLjI4LC0wLjk2IDIuMjgsLTIuMjIgdiAtMi4yMiBjIDAsLTEuMjYgLTEuMDIsLTIuMjggLTIuMjgsLTIuMjggaCAtMi4yOCBjIC0xLjIsMCAtMi4yMiwxLjAyIC0yLjIyLDIuMjggdiAyLjIyIGMgMCwwLjcyIDAuMzYsMS4zOCAwLjk2LDEuOCBsIC0yLjIyLDIuOTMgYyAtMC4zLC0wLjEyIC0wLjY2LC0wLjI0IC0xLjAyLC0wLjI0IGggLTIuMjIgYyAtMC40MiwwIC0wLjc4LDAuMTIgLTEuMTQsMC4zNiBsIC0xLjQ0LC0xLjUgYyAwLjE4LC0wLjMgMC4zLC0wLjcyIDAuMywtMS4wOCB2IC0yLjI4IGMgMCwtMS4yNiAtMC45NiwtMi4yMiAtMi4yMiwtMi4yMiBoIC0yLjI4IGMgLTEuMiwwIC0yLjIyLDAuOTYgLTIuMjIsMi4yMiB2IDIuMjggYyAwLDEuMiAxLjAyLDIuMjIgMi4yMiwyLjIyIGggMi4yOCBjIDAuNDIsMCAwLjc4LC0wLjEyIDEuMTQsLTAuMzYgbCAxLjQ0LDEuNSBjIC0wLjE4LDAuMyAtMC4zLDAuNzIgLTAuMzYsMS4xNCB2IDIuMSBsIC0yLjU4LDEuMjYgYyAtMC4zNiwtMC43MiAtMS4wOCwtMS4xNCAtMS45MiwtMS4xNCBoIC0yLjIyIGMgLTEuMjYsMCAtMi4yOCwxLjAyIC0yLjI4LDIuMjggdiAyLjIyIGMgMCwxLjI2IDEuMDIsMi4yOCAyLjI4LDIuMjggaCAyLjIyIGMgMS4yNiwwIDIuMjgsLTEuMDIgMi4yOCwtMi4yOCB2IC0yLjIyIC0wLjA2IGwgMi41MiwtMS4yIGMgMC4zNiwwLjcyIDEuMTQsMS4yIDEuOTgsMS4yNiBoIDEuMzIgbCAwLjksMi4yMiBjIC0xLjIsMCAtMi4yMiwxLjAyIC0yLjIyLDIuMjggdiAyLjIyIGMgMCwxLjI2IDEuMDIsMi4yOCAyLjIyLDIuMjggaCAyLjI4IGMgMS4yNiwwIDIuMjIsLTEuMDIgMi4yMiwtMi4yOCB2IC0yLjIyIGMgMCwtMS4yNiAtMC45NiwtMi4yOCAtMi4yMiwtMi4yOCBoIC0xLjA4IGwgLTAuOSwtMi4yOCBjIDEuMDIsLTAuMTggMS44LC0wLjk2IDEuOTIsLTEuOTIgbCAyLjI4LDAuOSB2IDEuMDggYyAwLDEuMiAxLjAyLDIuMjIgMi4yOCwyLjIyIGggMi4yMiBjIDEuMjYsMCAyLjI4LC0xLjAyIDIuMjgsLTIuMjIgdiAtMi4yOCBjIDAsLTEuMjYgLTEuMDIsLTIuMjIgLTIuMjgsLTIuMjIgeiIgY2xpcC1wYXRoPSJ1cmwoI1NWR0lEXzZfKSIgaWQ9InBhdGg1NjYzMiIgaW5rc2NhcGU6Y29ubmVjdG9yLWN1cnZhdHVyZT0iMCIvPiYjeGE7CQk8cGF0aCBzdHlsZT0iZmlsbDojNWE3YTk0IiBkPSJtIDM0NS4xNCwyMTMuNTkgaCAtNC45MSBjIC00LjYxLDAgLTUuNjMsLTYuNDcgLTEuMjYsLTcuOTEgbCAxLjc0LC0wLjU0IC0wLjE4LC0xLjggYyAtMC4xMiwtMS40NCAwLjMsLTIuODIgMS4xNCwtMy45NSAwLjksLTEuMDIgMi4yMiwtMS41NiAzLjU5LC0xLjUgMS45OCwtMC4wNiAzLjcxLDEuMTQgNC4zNywyLjk5IGwgMC45NiwyLjQ2IDIuMjgsLTEuMzggYyAwLjQ4LC0wLjMgMS4wMiwtMC40MiAxLjU2LC0wLjQyIDEuNDQsMCAyLjY0LDEuMDIgMi45NCwyLjQgbCAwLjEyLDAuNjYgaCAyLjIyIGMgMCwtMC4zIC0wLjA2LC0wLjY2IC0wLjEyLC0xLjAyIC0wLjY2LC0zLjU5IC00LjczLC01LjQ1IC03Ljg1LC0zLjUzIC0xLjA4LC0yLjY0IC0zLjY1LC00LjQzIC02LjUzLC00LjQzIC03LjYxLDAuMTggLTYuOTUsNy45NyAtNi45NSw3Ljk3IC02Ljc3LDIuMjIgLTUuMTUsMTIuMjggMS45OCwxMi4yMiBoIDQuOTEgdiAtMi4yMiB6IiBjbGlwLXBhdGg9InVybCgjU1ZHSURfNl8pIiBpZD0icGF0aDU2NjM0IiBpbmtzY2FwZTpjb25uZWN0b3ItY3VydmF0dXJlPSIwIi8+JiN4YTsJPC9nPiYjeGE7PC9nPiYjeGE7PC9zdmc+;" vertex="1" parent="1">
          <mxGeometry x="220" y="980" width="28.52" height="26.94" as="geometry" />
        </mxCell>
        <mxCell id="xkKd55qxpHbyt4-YmWr0-85" value="" style="shape=image;verticalLabelPosition=bottom;labelBackgroundColor=#ffffff;verticalAlign=top;aspect=fixed;imageAspect=0;image=data:image/svg+xml,PHN2ZyB4bWxuczpkYz0iaHR0cDovL3B1cmwub3JnL2RjL2VsZW1lbnRzLzEuMS8iIHhtbG5zOmNjPSJodHRwOi8vY3JlYXRpdmVjb21tb25zLm9yZy9ucyMiIHhtbG5zOnJkZj0iaHR0cDovL3d3dy53My5vcmcvMTk5OS8wMi8yMi1yZGYtc3ludGF4LW5zIyIgeG1sbnM6c3ZnPSJodHRwOi8vd3d3LnczLm9yZy8yMDAwL3N2ZyIgeG1sbnM9Imh0dHA6Ly93d3cudzMub3JnLzIwMDAvc3ZnIiB4bWxuczp4bGluaz0iaHR0cDovL3d3dy53My5vcmcvMTk5OS94bGluayIgeG1sbnM6c29kaXBvZGk9Imh0dHA6Ly9zb2RpcG9kaS5zb3VyY2Vmb3JnZS5uZXQvRFREL3NvZGlwb2RpLTAuZHRkIiB4bWxuczppbmtzY2FwZT0iaHR0cDovL3d3dy5pbmtzY2FwZS5vcmcvbmFtZXNwYWNlcy9pbmtzY2FwZSIgdmVyc2lvbj0iMS4xIiBpZD0iTGF5ZXJfMSIgeD0iMHB4IiB5PSIwcHgiIHZpZXdCb3g9IjAgMCA4OC43Njk5OTcgNjQuMjk5OTk1IiB4bWw6c3BhY2U9InByZXNlcnZlIiBzb2RpcG9kaTpkb2NuYW1lPSJjb2RlLnN2ZyIgd2lkdGg9Ijg4Ljc2OTk5NyIgaGVpZ2h0PSI2NC4yOTk5OTUiIGlua3NjYXBlOnZlcnNpb249IjAuOTIuMyAoMjQwNTU0NiwgMjAxOC0wMy0xMSkiPjxtZXRhZGF0YSBpZD0ibWV0YWRhdGEzODczOSI+PHJkZjpSREY+PGNjOldvcmsgcmRmOmFib3V0PSIiPjxkYzpmb3JtYXQ+aW1hZ2Uvc3ZnK3htbDwvZGM6Zm9ybWF0PjxkYzp0eXBlIHJkZjpyZXNvdXJjZT0iaHR0cDovL3B1cmwub3JnL2RjL2RjbWl0eXBlL1N0aWxsSW1hZ2UiLz48ZGM6dGl0bGUvPjwvY2M6V29yaz48L3JkZjpSREY+PC9tZXRhZGF0YT48ZGVmcyBpZD0iZGVmczM4NzM3Ii8+PHNvZGlwb2RpOm5hbWVkdmlldyBwYWdlY29sb3I9IiNmZmZmZmYiIGJvcmRlcmNvbG9yPSIjNjY2NjY2IiBib3JkZXJvcGFjaXR5PSIxIiBvYmplY3R0b2xlcmFuY2U9IjEwIiBncmlkdG9sZXJhbmNlPSIxMCIgZ3VpZGV0b2xlcmFuY2U9IjEwIiBpbmtzY2FwZTpwYWdlb3BhY2l0eT0iMCIgaW5rc2NhcGU6cGFnZXNoYWRvdz0iMiIgaW5rc2NhcGU6d2luZG93LXdpZHRoPSIxOTIwIiBpbmtzY2FwZTp3aW5kb3ctaGVpZ2h0PSIxMDE3IiBpZD0ibmFtZWR2aWV3Mzg3MzUiIHNob3dncmlkPSJmYWxzZSIgZml0LW1hcmdpbi10b3A9IjAiIGZpdC1tYXJnaW4tbGVmdD0iMCIgZml0LW1hcmdpbi1yaWdodD0iMCIgZml0LW1hcmdpbi1ib3R0b209IjAiIGlua3NjYXBlOnpvb209IjEuMDMwMzAzIiBpbmtzY2FwZTpjeD0iNi43NDQ5OTUxIiBpbmtzY2FwZTpjeT0iLTI2Mi42MzAwMSIgaW5rc2NhcGU6d2luZG93LXg9Ii04IiBpbmtzY2FwZTp3aW5kb3cteT0iLTgiIGlua3NjYXBlOndpbmRvdy1tYXhpbWl6ZWQ9IjEiIGlua3NjYXBlOmN1cnJlbnQtbGF5ZXI9IkxheWVyXzEiLz4mI3hhOyYjeGE7PGcgaWQ9ImczODczMiIgdHJhbnNmb3JtPSJ0cmFuc2xhdGUoLTI5MC42MywtOTMuODIpIj4mI3hhOwk8ZGVmcyBpZD0iZGVmczM4NzA1Ij4mI3hhOwkJPHJlY3QgaWQ9IlNWR0lEXzNfIiB4PSIyOTAuNjMiIHk9IjkzLjgyIiB3aWR0aD0iOTAuMDU5OTk4IiBoZWlnaHQ9IjY0LjkxOTk5OCIvPiYjeGE7CTwvZGVmcz4mI3hhOwk8Y2xpcFBhdGggaWQ9IlNWR0lEXzRfIj4mI3hhOwkJPHVzZSB4bGluazpocmVmPSIjU1ZHSURfM18iIHN0eWxlPSJvdmVyZmxvdzp2aXNpYmxlIiBpZD0idXNlMzg3MDciIHg9IjAiIHk9IjAiIHdpZHRoPSIxMDAlIiBoZWlnaHQ9IjEwMCUiLz4mI3hhOwk8L2NsaXBQYXRoPiYjeGE7CTxnIGNsaXAtcGF0aD0idXJsKCNTVkdJRF80XykiIGlkPSJnMzg3MzAiPiYjeGE7CQk8ZGVmcyBpZD0iZGVmczM4NzExIj4mI3hhOwkJCTxyZWN0IGlkPSJTVkdJRF81XyIgeD0iMjkwLjYzIiB5PSI5My44MiIgd2lkdGg9IjkwLjA1OTk5OCIgaGVpZ2h0PSI2NC45MTk5OTgiLz4mI3hhOwkJPC9kZWZzPiYjeGE7CQk8Y2xpcFBhdGggaWQ9IlNWR0lEXzZfIj4mI3hhOwkJCTx1c2UgeGxpbms6aHJlZj0iI1NWR0lEXzVfIiBzdHlsZT0ib3ZlcmZsb3c6dmlzaWJsZSIgaWQ9InVzZTM4NzEzIiB4PSIwIiB5PSIwIiB3aWR0aD0iMTAwJSIgaGVpZ2h0PSIxMDAlIi8+JiN4YTsJCTwvY2xpcFBhdGg+JiN4YTsJCTxwYXRoIHN0eWxlPSJmaWxsOiNlN2VjZWQiIGQ9Ik0gMzc0Ljg4LDE1My41MSBWIDk4LjUyIGMgMCwtMi42MSAtMi4xNywtNC43IC00LjcsLTQuNyBoIC03MC4yNCBjIC0yLjYxLDAgLTQuNywyLjE3IC00LjcsNC43IHYgNTUuMDMgeiIgY2xpcC1wYXRoPSJ1cmwoI1NWR0lEXzZfKSIgaWQ9InBhdGgzODcxNiIgaW5rc2NhcGU6Y29ubmVjdG9yLWN1cnZhdHVyZT0iMCIvPiYjeGE7CQk8cmVjdCB4PSIyOTAuNjMiIHk9IjE1My41MDk5OSIgc3R5bGU9ImZpbGw6I2FmYjZiYiIgd2lkdGg9Ijg4Ljc2OTk5NyIgaGVpZ2h0PSI0LjYxMDAwMDEiIGNsaXAtcGF0aD0idXJsKCNTVkdJRF82XykiIGlkPSJyZWN0Mzg3MTgiLz4mI3hhOwkJPHJlY3QgeD0iMjk5Ljc2MDAxIiB5PSI5OC4zMzk5OTYiIHN0eWxlPSJmaWxsOiM1NDZhNzkiIHdpZHRoPSI3MC40MTk5OTgiIGhlaWdodD0iNDQuNDAwMDAyIiBjbGlwLXBhdGg9InVybCgjU1ZHSURfNl8pIiBpZD0icmVjdDM4NzIwIi8+JiN4YTsJCTxwYXRoIHN0eWxlPSJmaWxsOiM2Yzc5N2EiIGQ9Im0gMzM4LjA1LDE0OC44NSBoIC02LjEyIGMgLTAuOTMsMCAtMS41NSwtMC41OCAtMS41NSwtMS41NSAwLC0wLjkzIDAuNjIsLTEuNTUgMS41NSwtMS41NSBoIDYuMTIgYyAwLjkzLDAgMS41NSwwLjYyIDEuNTUsMS41NSAwLDAuOTggLTAuOCwxLjU1IC0xLjU1LDEuNTUgeiIgY2xpcC1wYXRoPSJ1cmwoI1NWR0lEXzZfKSIgaWQ9InBhdGgzODcyMiIgaW5rc2NhcGU6Y29ubmVjdG9yLWN1cnZhdHVyZT0iMCIvPiYjeGE7CQk8cG9seWdvbiBzdHlsZT0iZmlsbDojZmZmZmZmIiBwb2ludHM9IjMxNC4xMiwxMjIuMTggMzI2LjcsMTE2Ljg2IDMyNi43LDEyMC4yMyAzMTkuMTcsMTIzLjUxIDMyNi43LDEyNi42MSAzMjYuNywxMjkuOTggMzE0LjEyLDEyNC42NiAiIGNsaXAtcGF0aD0idXJsKCNTVkdJRF82XykiIGlkPSJwb2x5Z29uMzg3MjQiLz4mI3hhOwkJPHBvbHlnb24gc3R5bGU9ImZpbGw6I2ZmZmZmZiIgcG9pbnRzPSIzMzAuOTEsMTMxLjI2IDMzOC41NCwxMTIuMDggMzQxLjM3LDExMy4wNSAzMzMuNzEsMTMyLjE5ICIgY2xpcC1wYXRoPSJ1cmwoI1NWR0lEXzZfKSIgaWQ9InBvbHlnb24zODcyNiIvPiYjeGE7CQk8cG9seWdvbiBzdHlsZT0iZmlsbDojZmZmZmZmIiBwb2ludHM9IjM0My4yMywxMjYuNTcgMzUwLjc3LDEyMy40NiAzNDMuMjMsMTIwLjE5IDM0My4yMywxMTYuODIgMzU1LjgyLDEyMi4xMyAzNTUuODIsMTI0LjY2IDM0My4yMywxMjkuOTggIiBjbGlwLXBhdGg9InVybCgjU1ZHSURfNl8pIiBpZD0icG9seWdvbjM4NzI4Ii8+JiN4YTsJPC9nPiYjeGE7PC9nPiYjeGE7PC9zdmc+;" vertex="1" parent="1">
          <mxGeometry x="216.2" y="1020" width="35.75" height="25.71" as="geometry" />
        </mxCell>
        <mxCell id="xkKd55qxpHbyt4-YmWr0-86" value="" style="image;sketch=0;aspect=fixed;html=1;points=[];align=center;fontSize=12;image=img/lib/mscae/CustomDomain.svg;" vertex="1" parent="1">
          <mxGeometry x="218.01" y="1060" width="29.53" height="24.8" as="geometry" />
        </mxCell>
        <mxCell id="xkKd55qxpHbyt4-YmWr0-87" value="" style="verticalLabelPosition=bottom;html=1;verticalAlign=top;align=center;strokeColor=none;fillColor=#00BEF2;shape=mxgraph.azure.automation;pointerEvents=1;" vertex="1" parent="1">
          <mxGeometry x="218.01" y="1100" width="31.99" height="24.8" as="geometry" />
        </mxCell>
        <mxCell id="xkKd55qxpHbyt4-YmWr0-88" value="" style="shape=image;verticalLabelPosition=bottom;labelBackgroundColor=#ffffff;verticalAlign=top;aspect=fixed;imageAspect=0;image=data:image/svg+xml,PHN2ZyB4bWxuczpjYz0iaHR0cDovL2NyZWF0aXZlY29tbW9ucy5vcmcvbnMjIiB4bWxuczpkYz0iaHR0cDovL3B1cmwub3JnL2RjL2VsZW1lbnRzLzEuMS8iIHhtbG5zOmlua3NjYXBlPSJodHRwOi8vd3d3Lmlua3NjYXBlLm9yZy9uYW1lc3BhY2VzL2lua3NjYXBlIiB4bWxuczpyZGY9Imh0dHA6Ly93d3cudzMub3JnLzE5OTkvMDIvMjItcmRmLXN5bnRheC1ucyMiIHhtbG5zOnNvZGlwb2RpPSJodHRwOi8vc29kaXBvZGkuc291cmNlZm9yZ2UubmV0L0RURC9zb2RpcG9kaS0wLmR0ZCIgeG1sbnM6c3ZnPSJodHRwOi8vd3d3LnczLm9yZy8yMDAwL3N2ZyIgeG1sbnM9Imh0dHA6Ly93d3cudzMub3JnLzIwMDAvc3ZnIiB4bWxuczp4bGluaz0iaHR0cDovL3d3dy53My5vcmcvMTk5OS94bGluayIgdmVyc2lvbj0iMS4xIiBpZD0ic3ZnMTAzNDc0IiBpbmtzY2FwZTp2ZXJzaW9uPSIwLjkyLjMgKDI0MDU1NDYsIDIwMTgtMDMtMTEpIiBzb2RpcG9kaTpkb2NuYW1lPSJyZWRpcy5zdmciIHg9IjBweCIgeT0iMHB4IiB2aWV3Qm94PSIwIDAgMzcuNTEgMzEuNiIgc3R5bGU9ImVuYWJsZS1iYWNrZ3JvdW5kOm5ldyAwIDAgMzcuNTEgMzEuNjsiIHhtbDpzcGFjZT0icHJlc2VydmUiPiYjeGE7PHNvZGlwb2RpOm5hbWVkdmlldyBib3JkZXJjb2xvcj0iIzY2NjY2NiIgYm9yZGVyb3BhY2l0eT0iMSIgZml0LW1hcmdpbi1ib3R0b209IjAiIGZpdC1tYXJnaW4tbGVmdD0iMCIgZml0LW1hcmdpbi1yaWdodD0iMCIgZml0LW1hcmdpbi10b3A9IjAiIGdyaWR0b2xlcmFuY2U9IjEwIiBndWlkZXRvbGVyYW5jZT0iMTAiIGlkPSJuYW1lZHZpZXcxMDM0NzYiIGlua3NjYXBlOmN1cnJlbnQtbGF5ZXI9InN2ZzEwMzQ3NCIgaW5rc2NhcGU6Y3g9IjI1LjAwNTA2MyIgaW5rc2NhcGU6Y3k9IjIxLjA2NDU5MiIgaW5rc2NhcGU6cGFnZW9wYWNpdHk9IjAiIGlua3NjYXBlOnBhZ2VzaGFkb3c9IjIiIGlua3NjYXBlOndpbmRvdy1oZWlnaHQ9IjEwMTciIGlua3NjYXBlOndpbmRvdy1tYXhpbWl6ZWQ9IjEiIGlua3NjYXBlOndpbmRvdy13aWR0aD0iMTkyMCIgaW5rc2NhcGU6d2luZG93LXg9Ii04IiBpbmtzY2FwZTp3aW5kb3cteT0iLTgiIGlua3NjYXBlOnpvb209IjE5LjY0MjUwNCIgb2JqZWN0dG9sZXJhbmNlPSIxMCIgcGFnZWNvbG9yPSIjZmZmZmZmIiBzaG93Z3JpZD0iZmFsc2UiPiYjeGE7CTwvc29kaXBvZGk6bmFtZWR2aWV3PiYjeGE7PGcgaWQ9ImcxMDM0NzIiIHRyYW5zZm9ybT0idHJhbnNsYXRlKC0wLjc0NjgyNzEsLTAuNzUxNjI1KSI+JiN4YTsJPHRpdGxlIGlkPSJ0aXRsZTEwMzM4OCI+UGFnZS0xPC90aXRsZT4mI3hhOwk8ZyBpZD0iZ3JvdXAzNzc2LTEiIHRyYW5zZm9ybT0idHJhbnNsYXRlKDAuNDA3MjksLTAuNjA5Mzc1KSI+JiN4YTsJCTx0aXRsZSBpZD0idGl0bGUxMDMzOTAiPlJlZGlzLjYzNjwvdGl0bGU+JiN4YTsJCTxnIGlkPSJncm91cDM3NzctMiI+JiN4YTsJCQk8dGl0bGUgaWQ9InRpdGxlMTAzMzkyIj5TaGVldC4zNzc3PC90aXRsZT4mI3hhOwkJCTxnIGlkPSJzaGFwZTM3NzgtMyIgdHJhbnNmb3JtPSJ0cmFuc2xhdGUoMC4yMzcpIj4mI3hhOwkJCQk8dGl0bGUgaWQ9InRpdGxlMTAzMzk0Ij5TaGVldC4zNzc4PC90aXRsZT4mI3hhOwkJCQk8cGF0aCBpZD0icGF0aDEwMzM5NiIgaW5rc2NhcGU6Y29ubmVjdG9yLWN1cnZhdHVyZT0iMCIgc3R5bGU9ImZpbGw6I0JBMTQxQTsiIGQ9Ik0wLjExLDI1LjE5Yy0wLjA2LDAuNCwwLjI4LDAuOCwxLjAyLDEuMTEgICAgICBsMTUuMjQsNi4yNGMxLjM3LDAuNTYsMy42LDAuNTYsNC45NywwbDE1LjI0LTYuMjRjMC43NC0wLjMxLDEuMDgtMC43MSwxLjAyLTEuMTF2LTMuNThjMC4wNSwwLjM5LTAuMjksMC43OS0xLjAyLDEuMDkgICAgICBsLTE1LjI0LDYuMjRjLTEuMzcsMC41Ni0zLjYsMC41Ni00Ljk3LDBMMS4xMywyMi43Yy0wLjgtMC4zMy0xLjEzLTAuNzgtMS0xLjJMMC4xMSwyNS4xOXoiLz4mI3hhOwkJCTwvZz4mI3hhOwkJCTxnIGlkPSJzaGFwZTM3NzktNSIgdHJhbnNmb3JtPSJ0cmFuc2xhdGUoMCwtMy42KSI+JiN4YTsJCQkJPHRpdGxlIGlkPSJ0aXRsZTEwMzM5OSI+U2hlZXQuMzc3OTwvdGl0bGU+JiN4YTsJCQkJPHBhdGggaWQ9InBhdGgxMDM0MDEiIGlua3NjYXBlOmNvbm5lY3Rvci1jdXJ2YXR1cmU9IjAiIHN0eWxlPSJmaWxsOiNCQTE0MUE7IiBkPSJNMzYuODEsMjQuMjZjMS4zOCwwLjU3LDEuMzgsMS40OCwwLDIuMDQgICAgICBsLTE1LjIzLDYuMjRjLTEuMzcsMC41Ni0zLjYsMC41Ni00Ljk3LDBMMS4zNywyNi4zQzAsMjUuNzQsMCwyNC44MywxLjM3LDI0LjI2bDE1LjI0LTYuMjRjMS4zNy0wLjU2LDMuNi0wLjU2LDQuOTcsMCAgICAgIEwzNi44MSwyNC4yNnoiLz4mI3hhOwkJCTwvZz4mI3hhOwkJPC9nPiYjeGE7CQk8ZyBpZD0iZ3JvdXAzNzgwLTciIHRyYW5zZm9ybT0idHJhbnNsYXRlKDAsLTYuMzE5NSkiPiYjeGE7CQkJPHRpdGxlIGlkPSJ0aXRsZTEwMzQwNSI+U2hlZXQuMzc4MDwvdGl0bGU+JiN4YTsJCQk8ZyBpZD0ic2hhcGUzNzgxLTgiIHRyYW5zZm9ybT0idHJhbnNsYXRlKDAuMjM3KSI+JiN4YTsJCQkJPHRpdGxlIGlkPSJ0aXRsZTEwMzQwNyI+U2hlZXQuMzc4MTwvdGl0bGU+JiN4YTsJCQkJPHBhdGggaWQ9InBhdGgxMDM0MDkiIGlua3NjYXBlOmNvbm5lY3Rvci1jdXJ2YXR1cmU9IjAiIHN0eWxlPSJmaWxsOiNCQTE0MUE7IiBkPSJNMC4xMSwyNS4xOWMtMC4wNiwwLjQsMC4yOCwwLjgsMS4wMiwxLjExICAgICAgbDE1LjI0LDYuMjRjMS4zNywwLjU2LDMuNiwwLjU2LDQuOTcsMGwxNS4yNC02LjI0YzAuNzQtMC4zMSwxLjA4LTAuNzEsMS4wMi0xLjExdi0zLjU4YzAuMDUsMC4zOS0wLjI5LDAuNzktMS4wMiwxLjA5ICAgICAgbC0xNS4yNCw2LjI0Yy0xLjM3LDAuNTYtMy42LDAuNTYtNC45NywwTDEuMTMsMjIuN2MtMC44LTAuMzMtMS4xMy0wLjc4LTEtMS4yTDAuMTEsMjUuMTl6Ii8+JiN4YTsJCQk8L2c+JiN4YTsJCQk8ZyBpZD0ic2hhcGUzNzgyLTEwIiB0cmFuc2Zvcm09InRyYW5zbGF0ZSgwLC0zLjYpIj4mI3hhOwkJCQk8dGl0bGUgaWQ9InRpdGxlMTAzNDEyIj5TaGVldC4zNzgyPC90aXRsZT4mI3hhOwkJCQk8cGF0aCBpZD0icGF0aDEwMzQxNCIgaW5rc2NhcGU6Y29ubmVjdG9yLWN1cnZhdHVyZT0iMCIgc3R5bGU9ImZpbGw6I0JBMTQxQTsiIGQ9Ik0zNi44MSwyNC4yNmMxLjM4LDAuNTcsMS4zOCwxLjQ4LDAsMi4wNCAgICAgIGwtMTUuMjMsNi4yNGMtMS4zNywwLjU2LTMuNiwwLjU2LTQuOTcsMEwxLjM3LDI2LjNDMCwyNS43NCwwLDI0LjgzLDEuMzcsMjQuMjZsMTUuMjQtNi4yNGMxLjM3LTAuNTYsMy42LTAuNTYsNC45NywwICAgICAgTDM2LjgxLDI0LjI2eiIvPiYjeGE7CQkJPC9nPiYjeGE7CQk8L2c+JiN4YTsJCTxnIGlkPSJncm91cDM3ODMtMTIiPiYjeGE7CQkJPHRpdGxlIGlkPSJ0aXRsZTEwMzQxOCI+U2hlZXQuMzc4MzwvdGl0bGU+JiN4YTsJCQk8ZyBpZD0ic2hhcGUzNzg0LTEzIiB0cmFuc2Zvcm09InRyYW5zbGF0ZSgwLjIzNywtMTIuNjM5KSI+JiN4YTsJCQkJPHRpdGxlIGlkPSJ0aXRsZTEwMzQyMCI+U2hlZXQuMzc4NDwvdGl0bGU+JiN4YTsJCQkJPHBhdGggaWQ9InBhdGgxMDM0MjIiIGlua3NjYXBlOmNvbm5lY3Rvci1jdXJ2YXR1cmU9IjAiIHN0eWxlPSJmaWxsOiNCQTE0MUE7IiBkPSJNMC4xMSwyNS4xOWMtMC4wNiwwLjQsMC4yOCwwLjgsMS4wMiwxLjExICAgICAgbDE1LjI0LDYuMjRjMS4zNywwLjU2LDMuNiwwLjU2LDQuOTcsMGwxNS4yNC02LjI0YzAuNzQtMC4zMSwxLjA4LTAuNzEsMS4wMi0xLjExdi0zLjU4YzAuMDUsMC4zOS0wLjI5LDAuNzktMS4wMiwxLjA5ICAgICAgbC0xNS4yNCw2LjI0Yy0xLjM3LDAuNTYtMy42LDAuNTYtNC45NywwTDEuMTMsMjIuN2MtMC44LTAuMzMtMS4xMy0wLjc4LTEtMS4yTDAuMTEsMjUuMTl6Ii8+JiN4YTsJCQk8L2c+JiN4YTsJCQk8ZyBpZD0ic2hhcGUzNzg1LTE1IiB0cmFuc2Zvcm09InRyYW5zbGF0ZSgwLjIzNykiPiYjeGE7CQkJCTx0aXRsZSBpZD0idGl0bGUxMDM0MjUiPlNoZWV0LjM3ODU8L3RpdGxlPiYjeGE7CQkJCTxwYXRoIGlkPSJwYXRoMTAzNDI3IiBpbmtzY2FwZTpjb25uZWN0b3ItY3VydmF0dXJlPSIwIiBzdHlsZT0iZmlsbDojMUUxRTFFO2ZpbGwtb3BhY2l0eTowLjI1OyIgZD0iTTAuMTEsMjUuMTkgICAgICBjLTAuMDYsMC40LDAuMjgsMC44LDEuMDIsMS4xMWwxNS4yNCw2LjI0YzEuMzcsMC41NiwzLjYsMC41Niw0Ljk3LDBsMTUuMjQtNi4yNGMwLjc0LTAuMzEsMS4wOC0wLjcxLDEuMDItMS4xMXYtMy41OCAgICAgIGMwLjA1LDAuMzktMC4yOSwwLjc5LTEuMDIsMS4wOWwtMTUuMjQsNi4yNGMtMS4zNywwLjU2LTMuNiwwLjU2LTQuOTcsMEwxLjEzLDIyLjdjLTAuOC0wLjMzLTEuMTMtMC43OC0xLTEuMkwwLjExLDI1LjE5eiIvPiYjeGE7CQkJPC9nPiYjeGE7CQkJPGcgaWQ9InNoYXBlMzc4Ni0xNyIgdHJhbnNmb3JtPSJ0cmFuc2xhdGUoMC4yMzcsLTYuMzE5NSkiPiYjeGE7CQkJCTx0aXRsZSBpZD0idGl0bGUxMDM0MzAiPlNoZWV0LjM3ODY8L3RpdGxlPiYjeGE7CQkJCTxwYXRoIGlkPSJwYXRoMTAzNDMyIiBpbmtzY2FwZTpjb25uZWN0b3ItY3VydmF0dXJlPSIwIiBzdHlsZT0iZmlsbDojMUUxRTFFO2ZpbGwtb3BhY2l0eTowLjI1OyIgZD0iTTAuMTEsMjUuMTkgICAgICBjLTAuMDYsMC40LDAuMjgsMC44LDEuMDIsMS4xMWwxNS4yNCw2LjI0YzEuMzcsMC41NiwzLjYsMC41Niw0Ljk3LDBsMTUuMjQtNi4yNGMwLjc0LTAuMzEsMS4wOC0wLjcxLDEuMDItMS4xMXYtMy41OCAgICAgIGMwLjA1LDAuMzktMC4yOSwwLjc5LTEuMDIsMS4wOWwtMTUuMjQsNi4yNGMtMS4zNywwLjU2LTMuNiwwLjU2LTQuOTcsMEwxLjEzLDIyLjdjLTAuOC0wLjMzLTEuMTMtMC43OC0xLTEuMkwwLjExLDI1LjE5eiIvPiYjeGE7CQkJPC9nPiYjeGE7CQkJPGcgaWQ9InNoYXBlMzc4Ny0xOSIgdHJhbnNmb3JtPSJ0cmFuc2xhdGUoMC4yMzcsLTEyLjYzOSkiPiYjeGE7CQkJCTx0aXRsZSBpZD0idGl0bGUxMDM0MzUiPlNoZWV0LjM3ODc8L3RpdGxlPiYjeGE7CQkJCTxwYXRoIGlkPSJwYXRoMTAzNDM3IiBpbmtzY2FwZTpjb25uZWN0b3ItY3VydmF0dXJlPSIwIiBzdHlsZT0iZmlsbDojMUUxRTFFO2ZpbGwtb3BhY2l0eTowLjI1OyIgZD0iTTAuMTEsMjUuMTkgICAgICBjLTAuMDYsMC40LDAuMjgsMC44LDEuMDIsMS4xMWwxNS4yNCw2LjI0YzEuMzcsMC41NiwzLjYsMC41Niw0Ljk3LDBsMTUuMjQtNi4yNGMwLjc0LTAuMzEsMS4wOC0wLjcxLDEuMDItMS4xMXYtMy41OCAgICAgIGMwLjA1LDAuMzktMC4yOSwwLjc5LTEuMDIsMS4wOWwtMTUuMjQsNi4yNGMtMS4zNywwLjU2LTMuNiwwLjU2LTQuOTcsMEwxLjEzLDIyLjdjLTAuOC0wLjMzLTEuMTMtMC43OC0xLTEuMkwwLjExLDI1LjE5eiIvPiYjeGE7CQkJPC9nPiYjeGE7CQkJPGcgaWQ9InNoYXBlMzc4OC0yMSIgdHJhbnNmb3JtPSJ0cmFuc2xhdGUoMCwtMTYuMjM5KSI+JiN4YTsJCQkJPHRpdGxlIGlkPSJ0aXRsZTEwMzQ0MCI+U2hlZXQuMzc4ODwvdGl0bGU+JiN4YTsJCQkJPHBhdGggaWQ9InBhdGgxMDM0NDIiIGlua3NjYXBlOmNvbm5lY3Rvci1jdXJ2YXR1cmU9IjAiIHN0eWxlPSJmaWxsOiNCQTE0MUE7IiBkPSJNMzYuODEsMjQuMjZjMS4zOCwwLjU3LDEuMzgsMS40OCwwLDIuMDQgICAgICBsLTE1LjIzLDYuMjRjLTEuMzcsMC41Ni0zLjYsMC41Ni00Ljk3LDBMMS4zNywyNi4zQzAsMjUuNzQsMCwyNC44MywxLjM3LDI0LjI2bDE1LjI0LTYuMjRjMS4zNy0wLjU2LDMuNi0wLjU2LDQuOTcsMCAgICAgIEwzNi44MSwyNC4yNnoiLz4mI3hhOwkJCTwvZz4mI3hhOwkJPC9nPiYjeGE7CQk8ZyBpZD0ic2hhcGUzNzg5LTIzIiB0cmFuc2Zvcm09InRyYW5zbGF0ZSg2LjM2MTUsLTIyLjExMjMpIj4mI3hhOwkJCTx0aXRsZSBpZD0idGl0bGUxMDM0NDYiPlNoZWV0LjM3ODk8L3RpdGxlPiYjeGE7CQkJPHBhdGggaWQ9InBhdGgxMDM0NDgiIGlua3NjYXBlOmNvbm5lY3Rvci1jdXJ2YXR1cmU9IjAiIHN0eWxlPSJmaWxsOiNGRkZGRkY7IiBkPSJNOC4wNCwzMi4zM2MtMS43NCwwLjc3LTQuNTYsMC43Ny02LjMsMCAgICAgQzAsMzEuNTYsMCwzMC4zLDEuNzQsMjkuNTNjMS43NC0wLjc3LDQuNTYtMC43Nyw2LjMsMEM5Ljc3LDMwLjMsOS43OCwzMS41Niw4LjA0LDMyLjMzeiIvPiYjeGE7CQk8L2c+JiN4YTsJCTxnIGlkPSJzaGFwZTM3OTAtMjUiIHRyYW5zZm9ybT0idHJhbnNsYXRlKDEzLjIxOCwtMTcuOTg4KSI+JiN4YTsJCQk8dGl0bGUgaWQ9InRpdGxlMTAzNDUxIj5TaGVldC4zNzkwPC90aXRsZT4mI3hhOwkJCTxwYXRoIGlkPSJwYXRoMTAzNDUzIiBpbmtzY2FwZTpjb25uZWN0b3ItY3VydmF0dXJlPSIwIiBzdHlsZT0iZmlsbDojRkZGRkZGOyIgZD0iTTAsMzAuMmw4LjkyLTEuMDZMNi41MywzMy4xTDAsMzAuMnoiLz4mI3hhOwkJPC9nPiYjeGE7CQk8ZyBpZD0ic2hhcGUzNzkxLTI3IiB0cmFuc2Zvcm09InRyYW5zbGF0ZSgyMS44NjQsLTIxLjg5MSkiPiYjeGE7CQkJPHRpdGxlIGlkPSJ0aXRsZTEwMzQ1NiI+U2hlZXQuMzc5MTwvdGl0bGU+JiN4YTsJCQk8cGF0aCBpZD0icGF0aDEwMzQ1OCIgaW5rc2NhcGU6Y29ubmVjdG9yLWN1cnZhdHVyZT0iMCIgc3R5bGU9ImZpbGw6IzFFMUUxRTtmaWxsLW9wYWNpdHk6MC4yNTsiIGQ9Ik01LjM0LDMzLjFMMCwzMC43MyAgICAgbDUuMzQtMi4zN2w1LjMzLDIuMzdMNS4zNCwzMy4xeiIvPiYjeGE7CQk8L2c+JiN4YTsJCTxnIGlkPSJzaGFwZTM3OTItMjkiIHRyYW5zZm9ybT0idHJhbnNsYXRlKDIxLjg2NCwtMjEuODkxKSI+JiN4YTsJCQk8dGl0bGUgaWQ9InRpdGxlMTAzNDYxIj5TaGVldC4zNzkyPC90aXRsZT4mI3hhOwkJCTxwYXRoIGlkPSJwYXRoMTAzNDYzIiBpbmtzY2FwZTpjb25uZWN0b3ItY3VydmF0dXJlPSIwIiBzdHlsZT0iZmlsbDojMUUxRTFFO2ZpbGwtb3BhY2l0eTowLjI1OyIgZD0iTTUuMzQsMzMuMUwwLDMwLjczICAgICBsNS4zNC0yLjM3VjMzLjF6Ii8+JiN4YTsJCTwvZz4mI3hhOwkJPGcgaWQ9InNoYXBlMzc5My0zMSIgdHJhbnNmb3JtPSJ0cmFuc2xhdGUoMTMuODk2NywtMjUuNjE1NSkiPiYjeGE7CQkJPHRpdGxlIGlkPSJ0aXRsZTEwMzQ2NiI+U2hlZXQuMzc5MzwvdGl0bGU+JiN4YTsJCQk8cGF0aCBpZD0icGF0aDEwMzQ2OCIgaW5rc2NhcGU6Y29ubmVjdG9yLWN1cnZhdHVyZT0iMCIgc3R5bGU9ImZpbGw6I0ZGRkZGRjsiIGQ9Ik0zLjQ4LDMxLjU1TDAsMzEuMjRsMy4wOS0wLjc4bC0wLjQtMS41NyAgICAgbDIuNjIsMS4wN2wzLjI0LTAuNjZsLTEuNDgsMS40NGwyLjQxLDEuMTdsLTMuNTQtMC4xOEw0LjE5LDMzLjFMMy40OCwzMS41NXoiLz4mI3hhOwkJPC9nPiYjeGE7CTwvZz4mI3hhOzwvZz4mI3hhOzwvc3ZnPg==;" vertex="1" parent="1">
          <mxGeometry x="218.01" y="1130" width="34.37" height="28.94" as="geometry" />
        </mxCell>
        <mxCell id="xkKd55qxpHbyt4-YmWr0-89" value="" style="shape=image;verticalLabelPosition=bottom;labelBackgroundColor=#ffffff;verticalAlign=top;aspect=fixed;imageAspect=0;image=data:image/svg+xml,PHN2ZyB4bWxuczpkYz0iaHR0cDovL3B1cmwub3JnL2RjL2VsZW1lbnRzLzEuMS8iIHhtbG5zOmNjPSJodHRwOi8vY3JlYXRpdmVjb21tb25zLm9yZy9ucyMiIHhtbG5zOnJkZj0iaHR0cDovL3d3dy53My5vcmcvMTk5OS8wMi8yMi1yZGYtc3ludGF4LW5zIyIgeG1sbnM6c3ZnPSJodHRwOi8vd3d3LnczLm9yZy8yMDAwL3N2ZyIgeG1sbnM9Imh0dHA6Ly93d3cudzMub3JnLzIwMDAvc3ZnIiB4bWxuczpzb2RpcG9kaT0iaHR0cDovL3NvZGlwb2RpLnNvdXJjZWZvcmdlLm5ldC9EVEQvc29kaXBvZGktMC5kdGQiIHhtbG5zOmlua3NjYXBlPSJodHRwOi8vd3d3Lmlua3NjYXBlLm9yZy9uYW1lc3BhY2VzL2lua3NjYXBlIiB2ZXJzaW9uPSIxLjEiIGlkPSJzdmc2ODY3MiIgaW5rc2NhcGU6dmVyc2lvbj0iMC45Mi4zICgyNDA1NTQ2LCAyMDE4LTAzLTExKSIgc29kaXBvZGk6ZG9jbmFtZT0iY2xvdWRfc2VydmljZXMuc3ZnIiB4PSIwcHgiIHk9IjBweCIgdmlld0JveD0iMCAwIDU3LjY1IDQ4LjkyIiB4bWw6c3BhY2U9InByZXNlcnZlIiB3aWR0aD0iNTcuNjUwMDAyIiBoZWlnaHQ9IjQ4LjkxOTk5OCI+PG1ldGFkYXRhIGlkPSJtZXRhZGF0YTIxMzk4Ij48cmRmOlJERj48Y2M6V29yayByZGY6YWJvdXQ9IiI+PGRjOmZvcm1hdD5pbWFnZS9zdmcreG1sPC9kYzpmb3JtYXQ+PGRjOnR5cGUgcmRmOnJlc291cmNlPSJodHRwOi8vcHVybC5vcmcvZGMvZGNtaXR5cGUvU3RpbGxJbWFnZSIvPjxkYzp0aXRsZS8+PC9jYzpXb3JrPjwvcmRmOlJERj48L21ldGFkYXRhPjxkZWZzIGlkPSJkZWZzMjEzOTYiLz4mI3hhOzxmaWx0ZXIgaWQ9ImZpbHRlcl8yIj4mI3hhOwk8ZmVHYXVzc2lhbkJsdXIgaWQ9ImZlR2F1c3NpYW5CbHVyNjg2MjEiIHN0ZERldmlhdGlvbj0iMiIvPiYjeGE7PC9maWx0ZXI+JiN4YTs8c29kaXBvZGk6bmFtZWR2aWV3IGJvcmRlcmNvbG9yPSIjNjY2NjY2IiBib3JkZXJvcGFjaXR5PSIxIiBmaXQtbWFyZ2luLWJvdHRvbT0iMCIgZml0LW1hcmdpbi1sZWZ0PSIwIiBmaXQtbWFyZ2luLXJpZ2h0PSIwIiBmaXQtbWFyZ2luLXRvcD0iMCIgZ3JpZHRvbGVyYW5jZT0iMTAiIGd1aWRldG9sZXJhbmNlPSIxMCIgaWQ9Im5hbWVkdmlldzY4Njc0IiBpbmtzY2FwZTpjdXJyZW50LWxheWVyPSJzdmc2ODY3MiIgaW5rc2NhcGU6Y3g9Ii0wLjc4NDM0NjQ0IiBpbmtzY2FwZTpjeT0iMjMuOTU4MzUyIiBpbmtzY2FwZTpwYWdlb3BhY2l0eT0iMCIgaW5rc2NhcGU6cGFnZXNoYWRvdz0iMiIgaW5rc2NhcGU6d2luZG93LWhlaWdodD0iMTAxNyIgaW5rc2NhcGU6d2luZG93LW1heGltaXplZD0iMSIgaW5rc2NhcGU6d2luZG93LXdpZHRoPSIxOTIwIiBpbmtzY2FwZTp3aW5kb3cteD0iLTgiIGlua3NjYXBlOndpbmRvdy15PSItOCIgaW5rc2NhcGU6em9vbT0iOC44NTg2ODMiIG9iamVjdHRvbGVyYW5jZT0iMTAiIHBhZ2Vjb2xvcj0iI2ZmZmZmZiIgc2hvd2dyaWQ9ImZhbHNlIj4mI3hhOwk8L3NvZGlwb2RpOm5hbWVkdmlldz4mI3hhOyYjeGE7PHBhdGggaWQ9InBhdGg2ODYzNCIgaW5rc2NhcGU6Y29ubmVjdG9yLWN1cnZhdHVyZT0iMCIgc3R5bGU9ImZpbGw6IzNlM2UzZSIgZD0iTSA0OS45NywxNi45IEMgNTAuMTksMTUuODUgNTAuMywxNC44NSA1MC4zLDEzLjg1IDUwLjMsNi4yMSA0NC4wOCwwIDM2LjQzLDAgMzEuMDksMCAyNi4yOCwzLjAyIDIzLjk2LDcuNzcgMjIuMSw1LjkxIDE5LjU3LDQuODYgMTYuOTEsNC44NiBjIC01LjQ5LDAgLTkuOTUsNC40NiAtOS45NSw5Ljk1IDAsMC43NSAwLjA4LDEuNSAwLjI1LDIuMjcgQyAyLjY4LDE4LjkzIDAsMjIuNzUgMCwyNy40IDAsMzMuNjYgNS4xMiwzOC41OCAxMS42NiwzOC41OCBoIDAuNzQgYyAwLjEzLDUuNzIgNC44MiwxMC4zNCAxMC41NywxMC4zNCAzLjg3LDAgNy4zNywtMi4wOCA5LjIyLC01LjM5IDEuMzksMS4yIDMuMTcsMS44NyA1LjAyLDEuODcgMy45NSwwIDcuMjEsLTIuOTggNy42NywtNi44MiBoIDEuMTEgYyA2LjU0LDAgMTEuNjYsLTQuOTIgMTEuNjYsLTExLjE4IDAsLTQuODQgLTIuOTQsLTguODMgLTcuNjgsLTEwLjUgeiIvPiYjeGE7JiN4YTs8cGF0aCBpZD0icGF0aDY4NjQyIiBpbmtzY2FwZTpjb25uZWN0b3ItY3VydmF0dXJlPSIwIiBzdHlsZT0iZmlsbDojZmZmZmZmIiBkPSJtIDQ1LjQ3LDIyLjEzIDAuODUsLTIuMDEgLTAuMjUsLTAuMjEgLTEuODUsLTEuNjEgMC4wMSwtMS42MyAyLjA5LC0xLjg3IC0wLjgyLC0yLjAyIC0wLjMyLDAuMDIgLTIuNDUsMC4xOCAtMS4xNSwtMS4xNiAwLjE2LC0yLjggLTIuMDEsLTAuODUgLTAuMjEsMC4yNSAtMS42MSwxLjg1IC0xLjYzLC0wLjAxIC0xLjg3LC0yLjA5IC0yLjAyLDAuODIgMC4wMiwwLjMzIDAuMTgsMi40NSAtMS4xNiwxLjE0IC0yLjgsLTAuMTYgLTAuODUsMi4wMSAwLjI1LDAuMjIgMS44NSwxLjYxIC0wLjAxLDEuNjIgLTIuMDksMS44NyAwLjgyLDIuMDIgMC4zMywtMC4wMiAyLjQ0LC0wLjE3IDEuMTUsMS4xNiAtMC4xNiwyLjc5IDIuMDEsMC44NSAwLjIxLC0wLjI0IDEuNjEsLTEuODYgMS42MywwLjAxIDEuODcsMi4wOSAyLjAyLC0wLjgyIC0wLjAyLC0wLjMyIC0wLjE4LC0yLjQ1IDEuMTYsLTEuMTUgeiBNIDM1LjMxLDIxLjU1IGMgLTIuMjcsLTAuOTUgLTMuMzMsLTMuNTcgLTIuMzcsLTUuODQgMC45NiwtMi4yOCAzLjU3LC0zLjM0IDUuODQsLTIuMzggMi4yOCwwLjk2IDMuMzQsMy41OCAyLjM4LDUuODUgLTAuOTYsMi4yNyAtMy41NywzLjMzIC01Ljg1LDIuMzcgeiIvPiYjeGE7JiN4YTs8cGF0aCBpZD0icGF0aDY4NjUwIiBpbmtzY2FwZTpjb25uZWN0b3ItY3VydmF0dXJlPSIwIiBzdHlsZT0iZmlsbDojZmZmZmZmIiBkPSJtIDMyLjY5LDMyLjIyIHYgLTIuMTggbCAtMC4zLC0wLjEgLTIuMzQsLTAuNzYgLTAuNjIsLTEuNTEgMS4yLC0yLjUzIC0xLjU0LC0xLjU0IC0wLjI5LDAuMTQgLTIuMTksMS4xMSAtMS41LC0wLjYyIC0wLjk1LC0yLjY0IGggLTIuMTggbCAtMC4xLDAuMzEgLTAuNzYsMi4zMyAtMS41MSwwLjYyIC0yLjUzLC0xLjIgLTEuNTQsMS41NSAwLjE0LDAuMjkgMS4xMSwyLjE5IC0wLjYyLDEuNSAtMi42NCwwLjk0IHYgMi4xOCBsIDAuMzEsMC4xIDIuMzMsMC43NyAwLjYyLDEuNSAtMS4yLDIuNTMgMS41NSwxLjU1IDAuMjgsLTAuMTUgMi4yLC0xLjExIDEuNSwwLjYyIDAuOTQsMi42NCBoIDIuMTggbCAwLjEsLTAuMyAwLjc3LC0yLjM0IDEuNSwtMC42MiAyLjUzLDEuMiAxLjU1LC0xLjU0IC0wLjE1LC0wLjI5IC0xLjExLC0yLjE5IDAuNjIsLTEuNSB6IG0gLTkuNTgsMy40MiBjIC0yLjQ3LC0wLjAxIC00LjQ2LC0yLjAxIC00LjQ2LC00LjQ3IDAsLTIuNDcgMiwtNC40NiA0LjQ3LC00LjQ2IDIuNDYsMCA0LjQ2LDIgNC40Niw0LjQ3IC0wLjAxLDIuNDYgLTIuMDEsNC40NiAtNC40Nyw0LjQ2IHoiLz4mI3hhOyYjeGE7PHBhdGggaWQ9InBhdGg2ODY1OCIgaW5rc2NhcGU6Y29ubmVjdG9yLWN1cnZhdHVyZT0iMCIgc3R5bGU9ImZpbGw6I2I4ZDQzMiIgZD0ibSAzOS43MSwxOC41NyBjIC0wLjYyLDEuNDcgLTIuMzIsMi4xNiAtMy43OSwxLjU0IC0xLjQ4LC0wLjYyIC0yLjE3LC0yLjMyIC0xLjU1LC0zLjggMC42MywtMS40NyAyLjMyLC0yLjE2IDMuOCwtMS41NCAxLjQ3LDAuNjIgMi4xNiwyLjMyIDEuNTQsMy44IHoiLz4mI3hhOyYjeGE7PHBhdGggaWQ9InBhdGg2ODY2NiIgaW5rc2NhcGU6Y29ubmVjdG9yLWN1cnZhdHVyZT0iMCIgc3R5bGU9ImZpbGw6I2I4ZDQzMiIgZD0ibSAyNi4wMSwzMS4xNyBjIC0wLjAxLDEuNjEgLTEuMywyLjkgLTIuOSwyLjkgLTEuNiwwIC0yLjksLTEuMyAtMi45LC0yLjkgMCwtMS42IDEuMywtMi45IDIuOSwtMi45IDEuNjEsMC4wMSAyLjksMS4zIDIuOSwyLjkgeiIvPiYjeGE7PC9zdmc+;" vertex="1" parent="1">
          <mxGeometry x="218.01" y="1180" width="35.51" height="30" as="geometry" />
        </mxCell>
        <mxCell id="xkKd55qxpHbyt4-YmWr0-90" value="" style="shape=image;verticalLabelPosition=bottom;labelBackgroundColor=#ffffff;verticalAlign=top;aspect=fixed;imageAspect=0;image=data:image/svg+xml,PHN2ZyB4bWxuczpjYz0iaHR0cDovL2NyZWF0aXZlY29tbW9ucy5vcmcvbnMjIiB4bWxuczpkYz0iaHR0cDovL3B1cmwub3JnL2RjL2VsZW1lbnRzLzEuMS8iIHhtbG5zOmlua3NjYXBlPSJodHRwOi8vd3d3Lmlua3NjYXBlLm9yZy9uYW1lc3BhY2VzL2lua3NjYXBlIiB4bWxuczpyZGY9Imh0dHA6Ly93d3cudzMub3JnLzE5OTkvMDIvMjItcmRmLXN5bnRheC1ucyMiIHhtbG5zOnNvZGlwb2RpPSJodHRwOi8vc29kaXBvZGkuc291cmNlZm9yZ2UubmV0L0RURC9zb2RpcG9kaS0wLmR0ZCIgeG1sbnM6c3ZnPSJodHRwOi8vd3d3LnczLm9yZy8yMDAwL3N2ZyIgeG1sbnM9Imh0dHA6Ly93d3cudzMub3JnLzIwMDAvc3ZnIiB4bWxuczp4bGluaz0iaHR0cDovL3d3dy53My5vcmcvMTk5OS94bGluayIgdmVyc2lvbj0iMS4xIiBpZD0ic3ZnMTAyMTA3IiBpbmtzY2FwZTp2ZXJzaW9uPSIwLjkyLjMgKDI0MDU1NDYsIDIwMTgtMDMtMTEpIiBzb2RpcG9kaTpkb2NuYW1lPSJteXNxbF8yLnN2ZyIgeD0iMHB4IiB5PSIwcHgiIHZpZXdCb3g9IjAgMCA1Mi44OCA2MC4wNyIgc3R5bGU9ImVuYWJsZS1iYWNrZ3JvdW5kOm5ldyAwIDAgNTIuODggNjAuMDc7IiB4bWw6c3BhY2U9InByZXNlcnZlIj4mI3hhOzxmaWx0ZXIgaWQ9ImZpbHRlcl8yIj4mI3hhOwk8ZmVHYXVzc2lhbkJsdXIgaWQ9ImZlR2F1c3NpYW5CbHVyMTAyMDc1IiBzdGREZXZpYXRpb249IjIiLz4mI3hhOzwvZmlsdGVyPiYjeGE7PHNvZGlwb2RpOm5hbWVkdmlldyBib3JkZXJjb2xvcj0iIzY2NjY2NiIgYm9yZGVyb3BhY2l0eT0iMSIgZml0LW1hcmdpbi1ib3R0b209IjAiIGZpdC1tYXJnaW4tbGVmdD0iMCIgZml0LW1hcmdpbi1yaWdodD0iMCIgZml0LW1hcmdpbi10b3A9IjAiIGdyaWR0b2xlcmFuY2U9IjEwIiBndWlkZXRvbGVyYW5jZT0iMTAiIGlkPSJuYW1lZHZpZXcxMDIxMDkiIGlua3NjYXBlOmN1cnJlbnQtbGF5ZXI9InN2ZzEwMjEwNyIgaW5rc2NhcGU6Y3g9IjM1LjI1IiBpbmtzY2FwZTpjeT0iNDAuMDQ1MjAxIiBpbmtzY2FwZTpwYWdlb3BhY2l0eT0iMCIgaW5rc2NhcGU6cGFnZXNoYWRvdz0iMiIgaW5rc2NhcGU6d2luZG93LWhlaWdodD0iMTAxNyIgaW5rc2NhcGU6d2luZG93LW1heGltaXplZD0iMSIgaW5rc2NhcGU6d2luZG93LXdpZHRoPSIxOTIwIiBpbmtzY2FwZTp3aW5kb3cteD0iLTgiIGlua3NjYXBlOndpbmRvdy15PSItOCIgaW5rc2NhcGU6em9vbT0iMTAuODI0NDc2IiBvYmplY3R0b2xlcmFuY2U9IjEwIiBwYWdlY29sb3I9IiNmZmZmZmYiIHNob3dncmlkPSJmYWxzZSI+JiN4YTsJPC9zb2RpcG9kaTpuYW1lZHZpZXc+JiN4YTs8ZyBpZD0iZzEwMjEwNSI+JiN4YTsJPHRpdGxlIGlkPSJ0aXRsZTEwMjA3OSI+UGFnZS0xPC90aXRsZT4mI3hhOwk8ZyBpZD0iZ3JvdXAzNjM3LTEiPiYjeGE7CQk8dGl0bGUgaWQ9InRpdGxlMTAyMDgxIj5NeVNRTCAjMjwvdGl0bGU+JiN4YTsJCTxnIGlkPSJzaGFwZTM2MzgtMiI+JiN4YTsJCQk8dGl0bGUgaWQ9InRpdGxlMTAyMDgzIj5EYXRhYmFzZSAjMjwvdGl0bGU+JiN4YTsJCQk8cGF0aCBpZD0icGF0aDEwMjA4NSIgaW5rc2NhcGU6Y29ubmVjdG9yLWN1cnZhdHVyZT0iMCIgc3R5bGU9ImZpbGw6IzNGNTc2NTsiIGQ9Ik0yNi43MSwwYzE0LjY0LDAsMjYuMTcsMy45MywyNi4xNyw4LjMxICAgICBjMCw0My41NCwwLDQzLjU0LDAsNDMuNTRjMCw0LjgzLTExLjUzLDguMjItMjYuMTcsOC4yMkMxMi4xNSw2MC4wNywwLDU2LjY4LDAsNTEuODVDMCw4LjMxLDAsOC4zMSwwLDguMzEgICAgIEMwLDMuOTMsMTIuMTUsMCwyNi43MSwweiBNMjYuNzEsMTQuMjFjMTIuNTksMCwyMi42OC0yLjk1LDIyLjY4LTUuOWMwLTIuODYtMTAuMDktNS4zNi0yMi42OC01LjM2Yy0xMi42LDAtMjIuNiwyLjUtMjIuNiw1LjM2ICAgICBDNC4xMSwxMS4yNiwxNC4xMSwxNC4yMSwyNi43MSwxNC4yMXoiLz4mI3hhOwkJPC9nPiYjeGE7CQk8ZyBpZD0ic2hhcGUzNjM5LTQiIHRyYW5zZm9ybT0idHJhbnNsYXRlKDEwLjU4OTIsLTcuMjMwNDkpIj4mI3hhOwkJCTx0aXRsZSBpZD0idGl0bGUxMDIwODgiPlNoZWV0LjM2Mzk8L3RpdGxlPiYjeGE7CQkJPGcgaWQ9InNoYWRvdzM2MzktNSIgdHJhbnNmb3JtPSJ0cmFuc2xhdGUoMC4zNDU2LDEuOTcyOCkiPiYjeGE7CQkJCTxnIGlkPSJwYXRoMTAyMDkwIiBpbmtzY2FwZTpjb25uZWN0b3ItY3VydmF0dXJlPSIwIiBzdHlsZT0iZmlsdGVyOnVybCgjZmlsdGVyXzIpOyI+JiN4YTsJCQkJCTxwYXRoIHN0eWxlPSJvcGFjaXR5OjAuMjI7ZmlsbDojNUI5QkQ1OyIgZD0iTTMyLjY3LDUyLjMyYy0xLjkxLTAuMDUtMy4zNiwwLjEzLTQuNjEsMC42NWMtMC4zNSwwLjE1LTAuOTIsMC4xNS0wLjk3LDAuNiAgICAgICBjMC4xOSwwLjIsMC4yMiwwLjUxLDAuMzgsMC43NmMwLjI5LDAuNDgsMC43OSwxLjEyLDEuMjQsMS40NmMwLjQ5LDAuMzcsMSwwLjc2LDEuNTIsMS4wOGMwLjkzLDAuNTcsMS45NywwLjksMi44NywxLjQ3ICAgICAgIGMwLjUzLDAuMzMsMS4wNiwwLjc2LDEuNTcsMS4xNGMwLjI2LDAuMTgsMC40MywwLjQ3LDAuNzYsMC41OWMwLTAuMDIsMC0wLjAzLDAtMC4wNWMtMC4xNy0wLjIyLTAuMjItMC41My0wLjM4LTAuNzYgICAgICAgYy0wLjIzLTAuMjQtMC40Ny0wLjQ3LTAuNy0wLjcxYy0wLjY5LTAuOTEtMS41Ni0xLjcxLTIuNDktMi4zOGMtMC43NS0wLjUzLTIuNC0xLjI1LTIuNzEtMi4xMWMtMC4wMi0wLjAyLTAuMDQtMC4wNC0wLjA2LTAuMDYgICAgICAgYzAuNTMtMC4wNiwxLjE0LTAuMjUsMS42My0wLjM4YzAuODEtMC4yMiwxLjU0LTAuMTYsMi4zOC0wLjM4YzAuMzgtMC4xMSwwLjc2LTAuMjEsMS4xNC0wLjMyYzAtMC4wNywwLTAuMTUsMC0wLjIyICAgICAgIGMtMC40Mi0wLjQ0LTAuNzMtMS4wMS0xLjE5LTEuNDFjLTEuMjItMS4wMy0yLjU0LTIuMDYtMy45LTIuOTNjLTAuNzYtMC40Ny0xLjctMC43OC0yLjUtMS4xOWMtMC4yNy0wLjEzLTAuNzQtMC4yLTAuOTItMC40MyAgICAgICBjLTAuNDItMC41NC0wLjY1LTEuMjItMC45Ny0xLjg0Yy0wLjY4LTEuMzEtMS4zNS0yLjc1LTEuOTYtNC4xMmMtMC40MS0wLjk0LTAuNjgtMS44Ny0xLjE5LTIuNzEgICAgICAgYy0yLjQ2LTQuMDUtNS4xMS02LjQ5LTkuMjEtOC44OWMtMC44OC0wLjUxLTEuOTMtMC43Mi0zLjA0LTAuOThjLTAuNTktMC4wNC0xLjE5LTAuMDctMS43OS0wLjExICAgICAgIGMtMC4zNi0wLjE1LTAuNzQtMC42LTEuMDgtMC44MWMtMS4zNi0wLjg2LTQuODUtMi43My01Ljg1LTAuMjdDMCwyOC41NiwxLjU5LDMwLjA3LDIuMTUsMzAuODZjMC40LDAuNTUsMC45MSwxLjE3LDEuMiwxLjc5ICAgICAgIGMwLjE4LDAuNCwwLjIyLDAuODEsMC4zOCwxLjI0YzAuMzksMS4wNiwwLjczLDIuMjIsMS4yNCwzLjJjMC4yNiwwLjUsMC41NCwxLjAyLDAuODcsMS40NmMwLjIsMC4yOCwwLjU0LDAuNCwwLjYsMC44MiAgICAgICBjLTAuMzQsMC40Ni0wLjM2LDEuMTktMC41NSwxLjc5Yy0wLjg0LDIuNjctMC41Miw1Ljk5LDAuNzEsNy45NmMwLjM4LDAuNjEsMS4yNywxLjkxLDIuNDksMS40MWMxLjA3LTAuNDMsMC44My0xLjc5LDEuMTQtMi45OCAgICAgICBjMC4wNy0wLjI3LDAuMDMtMC40NywwLjE2LTAuNjVjMCwwLjAyLDAsMC4wNCwwLDAuMDZjMC4zMywwLjY1LDAuNjUsMS4zLDAuOTgsMS45NWMwLjcyLDEuMTYsMiwyLjM3LDMuMDksMy4xOSAgICAgICBjMC41NiwwLjQzLDEsMS4xNywxLjczLDEuNDFjMC0wLjAxLDAtMC4wMywwLTAuMDVjLTAuMDIsMC0wLjAzLDAtMC4wNSwwYy0wLjE0LTAuMjItMC4zNi0wLjMxLTAuNTQtMC40OSAgICAgICBjLTAuNDMtMC40MS0wLjktMC45My0xLjI1LTEuNDFjLTAuOTktMS4zNC0xLjg2LTIuODEtMi42Ni00LjMzYy0wLjM4LTAuNzMtMC43MS0xLjU0LTEuMDMtMi4yOCAgICAgICBjLTAuMTItMC4yOS0wLjEyLTAuNzItMC4zOC0wLjg3Yy0wLjM1LDAuNTUtMC44NiwwLjk5LTEuMTMsMS42M2MtMC40NCwxLjAzLTAuNDksMi4yOC0wLjY1LDMuNTggICAgICAgYy0wLjEsMC4wMy0wLjA2LDAuMDEtMC4xMSwwLjA1Yy0wLjc2LTAuMTgtMS4wMi0wLjk2LTEuMy0xLjYzYy0wLjcxLTEuNjgtMC44NS00LjQtMC4yMi02LjM0YzAuMTYtMC41LDAuODktMi4wOCwwLjU5LTIuNTUgICAgICAgYy0wLjE0LTAuNDYtMC42LTAuNzMtMC44Ni0xLjA4Yy0wLjMyLTAuNDQtMC42NS0xLjAxLTAuODctMS41MmMtMC41OC0xLjMxLTAuODUtMi43OS0xLjQ2LTQuMTJjLTAuMy0wLjYzLTAuNzktMS4yNy0xLjItMS44NCAgICAgICBjLTAuNDQtMC42My0wLjk1LTEuMDktMS4zLTEuODRjLTAuMTItMC4yNy0wLjI5LTAuNy0wLjEtMC45OGMwLjA1LTAuMTgsMC4xNC0wLjI2LDAuMzItMC4zMmMwLjMyLTAuMjUsMS4xOSwwLjA4LDEuNTIsMC4yMSAgICAgICBjMC44NywwLjM2LDEuNTksMC43MSwyLjMzLDEuMmMwLjM1LDAuMjMsMC43MSwwLjY4LDEuMTQsMC44MWMwLjE2LDAsMC4zMiwwLDAuNDgsMGMwLjc3LDAuMTcsMS42MiwwLjA1LDIuMzQsMC4yNyAgICAgICBjMS4yNiwwLjM4LDIuMzgsMC45OCwzLjQxLDEuNjNjMy4xMiwxLjk3LDUuNjgsNC43OCw3LjQzLDguMTNjMC4yOCwwLjU0LDAuNCwxLjA1LDAuNjUsMS42MmMwLjUsMS4xNiwxLjEzLDIuMzQsMS42MiwzLjQ3ICAgICAgIGMwLjUsMS4xMywwLjk4LDIuMjYsMS42OCwzLjJjMC4zNywwLjQ5LDEuOCwwLjc2LDIuNDQsMS4wM2MwLjQ2LDAuMTksMS4yLDAuMzksMS42MywwLjY1YzAuODIsMC40OSwxLjYxLDEuMDgsMi4zOCwxLjYzICAgICAgIEMzMS40Myw1MS4yNCwzMi42MSw1MS44MywzMi42Nyw1Mi4zMnoiLz4mI3hhOwkJCQk8L2c+JiN4YTsJCQk8L2c+JiN4YTsJCQk8cGF0aCBpZD0icGF0aDEwMjA5MyIgaW5rc2NhcGU6Y29ubmVjdG9yLWN1cnZhdHVyZT0iMCIgc3R5bGU9ImZpbGw6I0ZGRkZGRjsiIGQ9Ik0zMi42Nyw1Mi4zMmMtMS45MS0wLjA1LTMuMzYsMC4xMy00LjYxLDAuNjUgICAgIGMtMC4zNSwwLjE1LTAuOTIsMC4xNS0wLjk3LDAuNmMwLjE5LDAuMiwwLjIyLDAuNTEsMC4zOCwwLjc2YzAuMjksMC40OCwwLjc5LDEuMTIsMS4yNCwxLjQ2YzAuNDksMC4zNywxLDAuNzYsMS41MiwxLjA4ICAgICBjMC45MywwLjU3LDEuOTcsMC45LDIuODcsMS40N2MwLjUzLDAuMzMsMS4wNiwwLjc2LDEuNTcsMS4xNGMwLjI2LDAuMTgsMC40MywwLjQ3LDAuNzYsMC41OWMwLTAuMDIsMC0wLjAzLDAtMC4wNSAgICAgYy0wLjE3LTAuMjItMC4yMi0wLjUzLTAuMzgtMC43NmMtMC4yMy0wLjI0LTAuNDctMC40Ny0wLjctMC43MWMtMC42OS0wLjkxLTEuNTYtMS43MS0yLjQ5LTIuMzhjLTAuNzUtMC41My0yLjQtMS4yNS0yLjcxLTIuMTEgICAgIGMtMC4wMi0wLjAyLTAuMDQtMC4wNC0wLjA2LTAuMDZjMC41My0wLjA2LDEuMTQtMC4yNSwxLjYzLTAuMzhjMC44MS0wLjIyLDEuNTQtMC4xNiwyLjM4LTAuMzhjMC4zOC0wLjExLDAuNzYtMC4yMSwxLjE0LTAuMzIgICAgIGMwLTAuMDcsMC0wLjE1LDAtMC4yMmMtMC40Mi0wLjQ0LTAuNzMtMS4wMS0xLjE5LTEuNDFjLTEuMjItMS4wMy0yLjU0LTIuMDYtMy45LTIuOTNjLTAuNzYtMC40Ny0xLjctMC43OC0yLjUtMS4xOSAgICAgYy0wLjI3LTAuMTMtMC43NC0wLjItMC45Mi0wLjQzYy0wLjQyLTAuNTQtMC42NS0xLjIyLTAuOTctMS44NGMtMC42OC0xLjMxLTEuMzUtMi43NS0xLjk2LTQuMTJjLTAuNDEtMC45NC0wLjY4LTEuODctMS4xOS0yLjcxICAgICBjLTIuNDYtNC4wNS01LjExLTYuNDktOS4yMS04Ljg5Yy0wLjg4LTAuNTEtMS45My0wLjcyLTMuMDQtMC45OGMtMC41OS0wLjA0LTEuMTktMC4wNy0xLjc5LTAuMTFjLTAuMzYtMC4xNS0wLjc0LTAuNi0xLjA4LTAuODEgICAgIGMtMS4zNi0wLjg2LTQuODUtMi43My01Ljg1LTAuMjdDMCwyOC41NiwxLjU5LDMwLjA3LDIuMTUsMzAuODZjMC40LDAuNTUsMC45MSwxLjE3LDEuMiwxLjc5YzAuMTgsMC40LDAuMjIsMC44MSwwLjM4LDEuMjQgICAgIGMwLjM5LDEuMDYsMC43MywyLjIyLDEuMjQsMy4yYzAuMjYsMC41LDAuNTQsMS4wMiwwLjg3LDEuNDZjMC4yLDAuMjgsMC41NCwwLjQsMC42LDAuODJjLTAuMzQsMC40Ni0wLjM2LDEuMTktMC41NSwxLjc5ICAgICBjLTAuODQsMi42Ny0wLjUyLDUuOTksMC43MSw3Ljk2YzAuMzgsMC42MSwxLjI3LDEuOTEsMi40OSwxLjQxYzEuMDctMC40MywwLjgzLTEuNzksMS4xNC0yLjk4YzAuMDctMC4yNywwLjAzLTAuNDcsMC4xNi0wLjY1ICAgICBjMCwwLjAyLDAsMC4wNCwwLDAuMDZjMC4zMywwLjY1LDAuNjUsMS4zLDAuOTgsMS45NWMwLjcyLDEuMTYsMiwyLjM3LDMuMDksMy4xOWMwLjU2LDAuNDMsMSwxLjE3LDEuNzMsMS40MSAgICAgYzAtMC4wMSwwLTAuMDMsMC0wLjA1Yy0wLjAyLDAtMC4wMywwLTAuMDUsMGMtMC4xNC0wLjIyLTAuMzYtMC4zMS0wLjU0LTAuNDljLTAuNDMtMC40MS0wLjktMC45My0xLjI1LTEuNDEgICAgIGMtMC45OS0xLjM0LTEuODYtMi44MS0yLjY2LTQuMzNjLTAuMzgtMC43My0wLjcxLTEuNTQtMS4wMy0yLjI4Yy0wLjEyLTAuMjktMC4xMi0wLjcyLTAuMzgtMC44N2MtMC4zNSwwLjU1LTAuODYsMC45OS0xLjEzLDEuNjMgICAgIGMtMC40NCwxLjAzLTAuNDksMi4yOC0wLjY1LDMuNThjLTAuMSwwLjAzLTAuMDYsMC4wMS0wLjExLDAuMDVjLTAuNzYtMC4xOC0xLjAyLTAuOTYtMS4zLTEuNjNjLTAuNzEtMS42OC0wLjg1LTQuNC0wLjIyLTYuMzQgICAgIGMwLjE2LTAuNSwwLjg5LTIuMDgsMC41OS0yLjU1Yy0wLjE0LTAuNDYtMC42LTAuNzMtMC44Ni0xLjA4Yy0wLjMyLTAuNDQtMC42NS0xLjAxLTAuODctMS41MmMtMC41OC0xLjMxLTAuODUtMi43OS0xLjQ2LTQuMTIgICAgIGMtMC4zLTAuNjMtMC43OS0xLjI3LTEuMi0xLjg0Yy0wLjQ0LTAuNjMtMC45NS0xLjA5LTEuMy0xLjg0Yy0wLjEyLTAuMjctMC4yOS0wLjctMC4xLTAuOThjMC4wNS0wLjE4LDAuMTQtMC4yNiwwLjMyLTAuMzIgICAgIGMwLjMyLTAuMjUsMS4xOSwwLjA4LDEuNTIsMC4yMWMwLjg3LDAuMzYsMS41OSwwLjcxLDIuMzMsMS4yYzAuMzUsMC4yMywwLjcxLDAuNjgsMS4xNCwwLjgxYzAuMTYsMCwwLjMyLDAsMC40OCwwICAgICBjMC43NywwLjE3LDEuNjIsMC4wNSwyLjM0LDAuMjdjMS4yNiwwLjM4LDIuMzgsMC45OCwzLjQxLDEuNjNjMy4xMiwxLjk3LDUuNjgsNC43OCw3LjQzLDguMTNjMC4yOCwwLjU0LDAuNCwxLjA1LDAuNjUsMS42MiAgICAgYzAuNSwxLjE2LDEuMTMsMi4zNCwxLjYyLDMuNDdjMC41LDEuMTMsMC45OCwyLjI2LDEuNjgsMy4yYzAuMzcsMC40OSwxLjgsMC43NiwyLjQ0LDEuMDNjMC40NiwwLjE5LDEuMiwwLjM5LDEuNjMsMC42NSAgICAgYzAuODIsMC40OSwxLjYxLDEuMDgsMi4zOCwxLjYzQzMxLjQzLDUxLjI0LDMyLjYxLDUxLjgzLDMyLjY3LDUyLjMyeiIvPiYjeGE7CQk8L2c+JiN4YTsJCTxnIGlkPSJzaGFwZTM2NDAtOSIgdHJhbnNmb3JtPSJ0cmFuc2xhdGUoMTguMDU0MiwtMzMuMzU2NSkiPiYjeGE7CQkJPHRpdGxlIGlkPSJ0aXRsZTEwMjA5NiI+U2hlZXQuMzY0MDwvdGl0bGU+JiN4YTsJCQk8ZyBpZD0ic2hhZG93MzY0MC0xMCIgdHJhbnNmb3JtPSJ0cmFuc2xhdGUoMC4zNDU2LDEuOTcyOCkiPiYjeGE7CQkJCTxnIGlkPSJwYXRoMTAyMDk4IiBpbmtzY2FwZTpjb25uZWN0b3ItY3VydmF0dXJlPSIwIiBzdHlsZT0iZmlsdGVyOnVybCgjZmlsdGVyXzIpOyI+JiN4YTsJCQkJCTxwYXRoIHN0eWxlPSJvcGFjaXR5OjAuMjI7ZmlsbDojNUI5QkQ1OyIgZD0iTTAuOTgsNTcuOEMwLjU4LDU3Ljc5LDAuMyw1Ny44NCwwLDU3LjljMCwwLjAyLDAsMC4wNCwwLDAuMDYgICAgICAgYzAuMDIsMCwwLjA0LDAsMC4wNSwwYzAuMTksMC4zOSwwLjUzLDAuNjQsMC43NiwwLjk3YzAuMTgsMC4zOCwwLjM2LDAuNzYsMC41NSwxLjE0YzAuMDEtMC4wMiwwLjAzLTAuMDMsMC4wNS0wLjA1ICAgICAgIGMwLjMzLTAuMjQsMC40OS0wLjYyLDAuNDktMS4xOWMtMC4xNC0wLjE1LTAuMTYtMC4zMi0wLjI3LTAuNDlDMS40Nyw1OC4xMSwxLjE3LDU3Ljk4LDAuOTgsNTcuOHoiLz4mI3hhOwkJCQk8L2c+JiN4YTsJCQk8L2c+JiN4YTsJCQk8cGF0aCBpZD0icGF0aDEwMjEwMSIgaW5rc2NhcGU6Y29ubmVjdG9yLWN1cnZhdHVyZT0iMCIgc3R5bGU9ImZpbGw6I0ZGRkZGRjsiIGQ9Ik0wLjk4LDU3LjhDMC41OCw1Ny43OSwwLjMsNTcuODQsMCw1Ny45ICAgICBjMCwwLjAyLDAsMC4wNCwwLDAuMDZjMC4wMiwwLDAuMDQsMCwwLjA1LDBjMC4xOSwwLjM5LDAuNTMsMC42NCwwLjc2LDAuOTdjMC4xOCwwLjM4LDAuMzYsMC43NiwwLjU1LDEuMTQgICAgIGMwLjAxLTAuMDIsMC4wMy0wLjAzLDAuMDUtMC4wNWMwLjMzLTAuMjQsMC40OS0wLjYyLDAuNDktMS4xOWMtMC4xNC0wLjE1LTAuMTYtMC4zMi0wLjI3LTAuNDlDMS40Nyw1OC4xMSwxLjE3LDU3Ljk4LDAuOTgsNTcuOHogICAgICIvPiYjeGE7CQk8L2c+JiN4YTsJPC9nPiYjeGE7PC9nPiYjeGE7PC9zdmc+;" vertex="1" parent="1">
          <mxGeometry x="221.19" y="1220" width="25.62" height="29" as="geometry" />
        </mxCell>
        <mxCell id="xkKd55qxpHbyt4-YmWr0-91" value="Chú thích:" style="text;html=1;align=center;verticalAlign=middle;resizable=0;points=[];autosize=1;strokeColor=none;fillColor=none;" vertex="1" parent="1">
          <mxGeometry x="110" y="854.5" width="80" height="30" as="geometry" />
        </mxCell>
        <mxCell id="xkKd55qxpHbyt4-YmWr0-92" value="người dùng trên thiết bị di đông tablelet&amp;nbsp;" style="text;html=1;align=center;verticalAlign=middle;resizable=0;points=[];autosize=1;strokeColor=none;fillColor=none;" vertex="1" parent="1">
          <mxGeometry x="270" y="854.5" width="240" height="30" as="geometry" />
        </mxCell>
        <mxCell id="xkKd55qxpHbyt4-YmWr0-93" value="người dùng trên thiết bị di động mobile" style="text;html=1;align=center;verticalAlign=middle;resizable=0;points=[];autosize=1;strokeColor=none;fillColor=none;" vertex="1" parent="1">
          <mxGeometry x="270" y="890" width="230" height="30" as="geometry" />
        </mxCell>
        <mxCell id="xkKd55qxpHbyt4-YmWr0-94" value="người dùng trên browser pc&amp;nbsp;" style="text;html=1;align=center;verticalAlign=middle;resizable=0;points=[];autosize=1;strokeColor=none;fillColor=none;" vertex="1" parent="1">
          <mxGeometry x="270" y="934.5" width="180" height="30" as="geometry" />
        </mxCell>
        <mxCell id="xkKd55qxpHbyt4-YmWr0-95" value="CMS backend" style="text;html=1;align=center;verticalAlign=middle;resizable=0;points=[];autosize=1;strokeColor=none;fillColor=none;" vertex="1" parent="1">
          <mxGeometry x="270" y="1015.71" width="100" height="30" as="geometry" />
        </mxCell>
        <mxCell id="xkKd55qxpHbyt4-YmWr0-96" value="ingress control" style="text;html=1;align=center;verticalAlign=middle;resizable=0;points=[];autosize=1;strokeColor=none;fillColor=none;" vertex="1" parent="1">
          <mxGeometry x="277.2" y="980" width="100" height="30" as="geometry" />
        </mxCell>
        <mxCell id="xkKd55qxpHbyt4-YmWr0-97" value="frontend end user viewer" style="text;html=1;align=center;verticalAlign=middle;resizable=0;points=[];autosize=1;strokeColor=none;fillColor=none;" vertex="1" parent="1">
          <mxGeometry x="270" y="1057.4" width="160" height="30" as="geometry" />
        </mxCell>
        <mxCell id="xkKd55qxpHbyt4-YmWr0-98" value="cronjob worker" style="text;html=1;align=center;verticalAlign=middle;resizable=0;points=[];autosize=1;strokeColor=none;fillColor=none;" vertex="1" parent="1">
          <mxGeometry x="270" y="1094.8000000000002" width="100" height="30" as="geometry" />
        </mxCell>
        <mxCell id="xkKd55qxpHbyt4-YmWr0-99" value="cache and sessions" style="text;html=1;align=center;verticalAlign=middle;resizable=0;points=[];autosize=1;strokeColor=none;fillColor=none;" vertex="1" parent="1">
          <mxGeometry x="270" y="1128.94" width="130" height="30" as="geometry" />
        </mxCell>
        <mxCell id="xkKd55qxpHbyt4-YmWr0-100" value="server api" style="text;html=1;align=center;verticalAlign=middle;resizable=0;points=[];autosize=1;strokeColor=none;fillColor=none;" vertex="1" parent="1">
          <mxGeometry x="270" y="1180" width="80" height="30" as="geometry" />
        </mxCell>
        <mxCell id="xkKd55qxpHbyt4-YmWr0-101" value="server database&amp;nbsp;" style="text;html=1;align=center;verticalAlign=middle;resizable=0;points=[];autosize=1;strokeColor=none;fillColor=none;" vertex="1" parent="1">
          <mxGeometry x="272.2" y="1219" width="110" height="30" as="geometry" />
        </mxCell>
      </root>
    </mxGraphModel>
  </diagram>
</mxfile>
